<?xml version="1.0" standalone="no"?>
<!DOCTYPE svg PUBLIC "-//W3C//DTD SVG 1.1//EN" "http://www.w3.org/Graphics/SVG/1.1/DTD/svg11.dtd" >
<svg xmlns="http://www.w3.org/2000/svg" xmlns:xlink="http://www.w3.org/1999/xlink" version="1.1">
<metadata>
Created by FontForge 20201107 at Tue Jan 17 20:55:02 2012
 By 
Generated by Fontographer 4.7
</metadata>
<defs>
<font id="SornetteLightItalique" horiz-adv-x="427" >
  <font-face 
    font-family="Sornette"
    font-weight="200"
    font-style="italic"
    font-stretch="normal"
    units-per-em="1000"
    panose-1="0 0 2 0 0 0 0 0 0 0"
    ascent="800"
    descent="-200"
    x-height="398"
    cap-height="697"
    bbox="-223 -200 995 800"
    underline-thickness="20"
    underline-position="-143"
    unicode-range="U+0020-2212"
  />
<missing-glyph horiz-adv-x="500" 
d="M63 0v800h375v-800h-375zM125 63h250v675h-250v-675z" />
    <glyph glyph-name=".notdef" horiz-adv-x="500" 
d="M63 0v800h375v-800h-375zM125 63h250v675h-250v-675z" />
    <glyph glyph-name=".null" horiz-adv-x="0" 
 />
    <glyph glyph-name="nonmarkingreturn" horiz-adv-x="160" 
 />
    <glyph glyph-name="space" unicode=" " horiz-adv-x="160" 
 />
    <glyph glyph-name="exclam" unicode="!" horiz-adv-x="95" 
d="M123 697l-96 -547h34l96 547h-34zM2 14h35l18 102h-35z" />
    <glyph glyph-name="quotedbl" unicode="&#x22;" horiz-adv-x="164" 
d="M85 484h34l32 179h-34zM185 663l-31 -179h34l32 179h-35z" />
    <glyph glyph-name="percent" unicode="%" horiz-adv-x="364" 
d="M217 509q39 0 70.5 30.5t31.5 70.5q0 30 -20.5 50t-51.5 20q-40 0 -71 -30.5t-31 -69.5q0 -30 20 -50.5t52 -20.5zM241 646q21 0 33.5 -15t8.5 -36t-21.5 -36t-38.5 -15t-33.5 15t-8.5 36q3 21 21 36t39 15zM282 202q-40 0 -71 -30.5t-31 -70.5q0 -30 20.5 -50t51.5 -20
q40 0 71 30.5t31 69.5q0 30 -20 50.5t-52 20.5zM258 65q-21 0 -33.5 15t-8.5 36t21.5 36.5t38.5 15.5t33.5 -15.5t8.5 -36.5q-3 -21 -21 -36t-39 -15zM473 697l-471 -683h40l470 683h-39z" />
    <glyph glyph-name="ampersand" unicode="&#x26;" horiz-adv-x="529" 
d="M482 14l-88 135l148 277h-37l-131 -246l-122 189l90 54v0v0q43 23 71 66t28 91q0 55 -36.5 90.5t-91.5 35.5v0v0h-7q-69 -3 -122 -57t-53 -122q0 -38 18 -68v0l53 -82l-51 -30v0v0q-54 -26 -87.5 -79.5t-33.5 -112.5q0 -66 44 -109.5t111 -43.5q56 0 107 30t82 79l62 -97
h46zM178 484v-1v0v1q-17 31 -10 69q1 9 4 18h1v1q15 43 52 70.5t82 28.5h5q42 -2 68 -30t26 -69v-1v0q-2 -65 -59 -108q-5 -4 -9 -6l-103 -61zM192 36q-55 0 -91 35.5t-36 89.5q0 13 3 26q14 80 92 127l60 36l134 -208l-2 -4v0l-1 -1q-23 -45 -67 -73t-92 -28z" />
    <glyph glyph-name="quotesingle" unicode="'" horiz-adv-x="177" 
d="M127 475h-43l102 145h43z" />
    <glyph glyph-name="parenleft" unicode="(" horiz-adv-x="270" 
d="M223 -92h-0.5h-0.5q-78 0 -117 71q-34 62 -34 168q0 62 12 129q26 148 91 249q76 118 178 118h0.5h0.5l6 34h-0.5h-0.5q-116 0 -204 -128q-77 -112 -105 -273q-12 -67 -12 -129q0 -120 41 -192q47 -81 138 -81h0.5h0.5z" />
    <glyph glyph-name="parenright" unicode=")" horiz-adv-x="299" 
d="M-16 -92h0.5h0.5q101 0 178 118q65 101 91 250q12 66 12 128q0 106 -35 168q-39 71 -117 71h-0.5h-0.5l6 34h1v0q91 0 138 -81q42 -72 42 -192q0 -62 -12 -128q-29 -162 -106 -274q-88 -128 -203 -128h-1v0z" />
    <glyph glyph-name="asterisk" unicode="*" horiz-adv-x="209" 
d="M247 532l-41 33l52 33l-15 28l-44 -28l8 48h-34l-8 -48l-35 28l-25 -28l41 -33l-52 -33l15 -28l44 28l-8 -48h34l8 48l35 -28z" />
    <glyph glyph-name="plus" unicode="+" horiz-adv-x="317" 
d="M315 236h-120l22 120h-35l-21 -120h-119l-6 -34h119l-21 -120h34l21 120h120z" />
    <glyph glyph-name="comma" unicode="," horiz-adv-x="178" 
d="M32 -63h-43l102 145h43z" />
    <glyph glyph-name="period" unicode="." horiz-adv-x="94" 
d="M37 14h-35l18 102h35z" />
    <glyph glyph-name="slash" unicode="/" horiz-adv-x="413" 
d="M471 697h38l-468 -683h-39z" />
    <glyph glyph-name="zero" unicode="0" horiz-adv-x="467" 
d="M499 501v0v0v0v0q3 18 3 36q0 72 -48.5 120.5t-123.5 48.5q-85 0 -156 -60t-86 -145v0l-51 -291v0q-3 -18 -3 -36q0 -72 48.5 -120.5t123.5 -48.5q85 0 155.5 60t85.5 145v0zM413 210v0q-12 -70 -71 -120.5t-130 -50.5q-62 0 -102.5 40t-40.5 101q0 15 2 30v0l52 291
q12 70 70.5 120.5t130.5 50.5q61 0 102 -40t41 -101q0 -15 -3 -30z" />
    <glyph glyph-name="one" unicode="1" horiz-adv-x="289" 
d="M307 697l-226 -239h43l185 195l-113 -639h34l121 683h-44z" />
    <glyph glyph-name="two" unicode="2" horiz-adv-x="405" 
d="M50 48l337 392q53 62 53 128q0 60 -39.5 99t-100.5 39q-63 0 -117.5 -42t-73.5 -103h35q16 47 58.5 79t91.5 32t80 -31.5t31 -78.5q0 -53 -36 -95l-361 -419h1l-6 -34h367l6 34h-326z" />
    <glyph glyph-name="three" unicode="3" horiz-adv-x="448" 
d="M339 391q51 25 84.5 73.5t33.5 103.5q0 60 -39 99t-101 39q-63 0 -117.5 -42t-72.5 -103h34q16 47 58.5 79t91.5 32t80.5 -31.5t31.5 -78.5q0 -60 -47.5 -107t-108.5 -48l-6 -34h7q58 -3 94.5 -42t36.5 -96q0 -77 -60.5 -136.5t-138.5 -59.5q-54 0 -92 31t-46 80h-35
q7 -63 53 -104t114 -41q93 0 166 71.5t73 164.5q0 108 -94 150z" />
    <glyph glyph-name="four" unicode="4" horiz-adv-x="461" 
d="M447 185h-85l90 512v0h-38l-387 -547h21v0h274l-25 -136h35l24 136h85zM89 185l318 448l-79 -448h-239z" />
    <glyph glyph-name="five" unicode="5" horiz-adv-x="447" 
d="M272 450q-89 0 -161 -67l49 280h325l6 34h-325v0h-34l-65 -367v0v0h38q63 86 161 86q60 0 100 -48q37 -46 37 -109q0 -78 -63 -149t-140 -71q-54 0 -92 31t-46 80h-35q7 -63 53 -104t114 -41q92 0 169 84q74 82 74 176q0 75 -45 129q-48 56 -120 56z" />
    <glyph glyph-name="six" unicode="6" horiz-adv-x="447" 
d="M276 450q-104 0 -180 -97l23 131q14 78 71.5 133t124.5 55q49 0 83.5 -30.5t45.5 -80.5h36q-10 64 -53 104.5t-106 40.5q-81 0 -150 -65t-86 -157l-48 -280q-7 -84 39 -141.5t121 -57.5q82 0 151 65t85 157q4 22 4 44q0 77 -45 128t-116 51zM204 39q-59 0 -96 43t-37 108
q0 18 3 37q14 78 71.5 133t124.5 55q58 0 95 -42.5t37 -107.5q0 -18 -3 -38q-14 -78 -71 -133t-124 -55z" />
    <glyph glyph-name="seven" unicode="7" horiz-adv-x="396" 
d="M516 697h-39v0h-354l-6 -34h336l-176 -256h-128l-6 -34h110l-247 -359h40l247 359h123l6 34h-106z" />
    <glyph glyph-name="eight" unicode="8" horiz-adv-x="456" 
d="M347 392q51 24 84.5 72.5t33.5 103.5q0 60 -39.5 99t-100.5 39q-77 0 -137.5 -59.5t-60.5 -136.5q0 -80 66 -118q-68 -27 -113 -87q-47 -63 -47 -134t47.5 -118.5t121.5 -47.5q93 0 166 71.5t73 164.5q0 108 -94 151zM319 672q49 0 80 -31.5t31 -78.5q0 -61 -48 -108
t-109 -47v0v0q-49 0 -80.5 31t-31.5 78q0 61 48.5 108.5t109.5 47.5zM208 39q-62 0 -101.5 39t-39.5 99q0 74 57 132.5t132 63.5h10.5h10.5q57 -4 93.5 -42.5t36.5 -95.5q0 -77 -61 -136.5t-138 -59.5z" />
    <glyph glyph-name="nine" unicode="9" horiz-adv-x="451" 
d="M432 219l47 265v0q4 22 4 43q0 77 -45.5 128t-116.5 51q-81 0 -150 -65t-86 -157q-4 -22 -4 -44q0 -77 45.5 -127.5t116.5 -50.5q104 0 180 97l-25 -140q-14 -78 -71 -133t-125 -55q-49 0 -83.5 30.5t-45.5 80.5h-36q10 -65 53 -105t106 -40q82 0 151 65t85 156v0v1v0v0z
M249 296q-59 0 -96 42.5t-37 107.5q0 19 3 38q14 78 71.5 133t124.5 55q59 0 96 -43t37 -108q0 -18 -3 -37q-14 -78 -71.5 -133t-124.5 -55z" />
    <glyph glyph-name="colon" unicode=":" horiz-adv-x="95" 
d="M2 14h35l15 85h-35zM39 219l-15 -86h34l15 86h-34z" />
    <glyph glyph-name="semicolon" unicode=";" horiz-adv-x="177" 
d="M155 219h-34l-18 -103h34zM91 82l-102 -145h43l102 145h-43z" />
    <glyph glyph-name="less" unicode="&#x3c;" 
d="M452 381l-409 -139l-7 -39l360 -139l6 36l-317 122l360 123z" />
    <glyph glyph-name="equal" unicode="=" horiz-adv-x="312" 
d="M51 287l-6 -34h273l6 34h-273zM27 150h273l6 35h-273z" />
    <glyph glyph-name="greater" unicode="&#x3e;" horiz-adv-x="414" 
d="M67 381l-6 -36l317 -123l-360 -122l-7 -36l409 139l7 39z" />
    <glyph glyph-name="question" unicode="?" horiz-adv-x="375" 
d="M290 706q-63 0 -117.5 -42t-73.5 -103h34q16 47 59 79t92 32q48 0 79.5 -31.5t31.5 -78.5q0 -53 -36 -95l-156 -181v0q-19 -22 -25 -50v0l-15 -86h34l16 86v0q3 17 15 30l148 174q54 62 54 128q0 60 -39.5 99t-100.5 39zM138 14h34l18 102h-34z" />
    <glyph glyph-name="at" unicode="@" horiz-adv-x="643" 
d="M398 561q-124 0 -229.5 -103t-131.5 -248q-6 -36 -6 -71q0 -121 68 -200t175 -79q58 0 116 25l7 38q-58 -29 -117 -29q-94 0 -154.5 71t-60.5 180q0 32 6 65q23 131 117 223.5t204 92.5q92 0 145.5 -67.5t53.5 -173.5q0 -37 -7 -75l-35 -196q-3 -21 -24.5 -36.5
t-43.5 -15.5t-34 15t-9 37v0v0l41 230v0q3 23 3 44q0 119 -105 119q-56 0 -106 -33.5t-75 -86.5h36q21 38 59 62t80 24q77 0 77 -89q0 -18 -3 -40v0l-2 -7q-33 42 -103 42q-62 0 -110 -35t-58 -94q-2 -12 -2 -25q0 -51 34 -85.5t87 -34.5q68 0 121 52l-8 -43v0q-1 -8 -1 -15
q0 -30 20 -50.5t52 -20.5q36 0 69 25.5t40 60.5l34 196q7 41 7 80q0 119 -60 194q-63 77 -167 77zM298 39q-41 0 -67.5 26.5t-26.5 65.5q0 52 40 84q36 29 90 29q42 0 69 -19.5t27 -56.5q0 -50 -41 -89.5t-91 -39.5z" />
    <glyph glyph-name="A" unicode="A" horiz-adv-x="455" 
d="M413 14l-68 683h-34l-309 -683h35l108 239h210l23 -239h35zM160 287l157 348l34 -348h-191z" />
    <glyph glyph-name="B" unicode="B" horiz-adv-x="399" 
d="M286 419q43 23 71 65t28 90q0 53 -35 88t-90 35h-103v0h-34l-121 -683h137q87 0 159 61t87 148q4 19 4 37q0 54 -28 96.5t-75 62.5zM151 663h103v0q42 0 69.5 -27t27.5 -68q0 -53 -42 -94.5t-96 -41.5v0h-103zM145 48h-102l61 350h103v0q64 0 105.5 -41t41.5 -103
q0 -81 -63.5 -143.5t-145.5 -62.5z" />
    <glyph glyph-name="C" unicode="C" horiz-adv-x="571" 
d="M533 150q-101 -113 -227 -113q-97 0 -158.5 71.5t-61.5 180.5q0 32 6 64q23 131 118 224t207 93q123 0 185 -109h37q-30 66 -85 104q-58 39 -131 39q-124 0 -229.5 -102.5t-131.5 -248.5q-6 -36 -6 -71q0 -120 68 -199.5t176 -79.5q74 0 145 39.5t125 107.5h-37z" />
    <glyph glyph-name="D" unicode="D" horiz-adv-x="465" 
d="M251 697v0h-99v0h-29l-121 -683h121q122 0 226 100t128 242q7 35 7 68q0 116 -65 193t-168 80zM129 47h-1v0h-86l109 616h94v1q93 -3 151 -72.5t58 -173.5q0 -31 -5 -62q-23 -128 -116.5 -218.5t-203.5 -90.5z" />
    <glyph glyph-name="E" unicode="E" horiz-adv-x="342" 
d="M425 663l6 34h-308l-121 -683h308l6 34h-273l60 342h205l6 34h-205l42 239h274z" />
    <glyph glyph-name="F" unicode="F" horiz-adv-x="356" 
d="M425 663l6 34h-308l-121 -683h35l66 376h205l6 34h-205l42 239h274z" />
    <glyph glyph-name="G" unicode="G" horiz-adv-x="646" 
d="M667 389h-291l-6 -34h262q-23 -131 -118.5 -223.5t-207.5 -92.5q-97 0 -158.5 71.5t-61.5 180.5q0 32 6 65q23 131 118.5 223.5t207.5 92.5q124 0 185 -111h38q-30 67 -87 106t-130 39q-124 0 -230 -102.5t-131 -247.5q-7 -37 -7 -72q0 -120 68.5 -199.5t175.5 -79.5
q124 0 229.5 102.5t131.5 247.5v0z" />
    <glyph glyph-name="H" unicode="H" horiz-adv-x="403" 
d="M431 697l-52 -290h-273l51 290h-34l-121 -683h35l63 359h273l-63 -359h34l121 683h-34z" />
    <glyph glyph-name="I" unicode="I" horiz-adv-x="129" 
d="M27 14l121 683h34l-120 -683h-35z" />
    <glyph glyph-name="J" unicode="J" horiz-adv-x="417" 
d="M388 185v0l91 512h-35l-90 -512v0q-9 -60 -59 -103t-110 -43q-53 0 -87 34t-34 85q0 14 3 27h-34q-4 -16 -4 -33q0 -63 42 -105t108 -42q74 0 136 53.5t73 126.5z" />
    <glyph glyph-name="K" unicode="K" horiz-adv-x="400" 
d="M324 14h40l-170 409l259 274h-43l-311 -328l58 328h-34l-121 -683h35l52 299l77 81z" />
    <glyph glyph-name="L" unicode="L" horiz-adv-x="323" 
d="M43 48l114 649h-34l-121 -683h308l6 34h-273z" />
    <glyph glyph-name="M" unicode="M" horiz-adv-x="538" 
d="M562 697l-313 -628l-90 628h-36l-121 -683h35l101 576l84 -576h39l286 576l-102 -576h35l120 683h-38z" />
    <glyph glyph-name="N" unicode="N" horiz-adv-x="434" 
d="M375 14l121 683h-35l-108 -613l-192 613h-38l-121 -683h35l108 614l192 -614h38v0z" />
    <glyph glyph-name="O" unicode="O" horiz-adv-x="649" 
d="M424 706q-124 0 -230 -102.5t-131 -247.5q-7 -37 -7 -72q0 -120 68.5 -199.5t175.5 -79.5q124 0 229.5 102.5t131.5 248.5q6 36 6 71q0 120 -68 199.5t-175 79.5zM306 39q-95 0 -155 71.5t-60 179.5q0 32 6 66q23 131 117 223.5t204 92.5q94 0 154.5 -71.5t60.5 -179.5
q0 -32 -6 -65q-23 -131 -117 -224t-204 -93z" />
    <glyph glyph-name="P" unicode="P" horiz-adv-x="355" 
d="M260 697h-137l-121 -683h35l54 307h102v0v0q88 0 156.5 67t68.5 154q0 67 -44.5 111t-113.5 44zM199 356v0v0h-102l54 307h103v0v0v0v0q56 0 92.5 -36t36.5 -91q0 -71 -56 -125.5t-128 -54.5z" />
    <glyph glyph-name="Q" unicode="Q" horiz-adv-x="650" 
d="M661 356q6 36 6 71q0 120 -68 199.5t-175 79.5q-124 0 -230 -102.5t-131 -247.5q-7 -37 -7 -72q0 -120 68.5 -199.5t175.5 -79.5q63 0 126 30l37 -90h40l-44 108q76 46 130.5 126.5t71.5 176.5zM306 39q-95 0 -155 71.5t-60 179.5q0 32 6 66q23 131 117 223.5t204 92.5
q94 0 154.5 -71.5t60.5 -179.5q0 -32 -6 -65q-15 -87 -64 -159.5t-117 -114.5l-46 111h-39l53 -129q-54 -25 -108 -25z" />
    <glyph glyph-name="R" unicode="R" horiz-adv-x="383" 
d="M335 14l-122 308q82 9 143.5 74t61.5 146q0 67 -44.5 111t-113.5 44h-137l-121 -683h35l54 307h83l122 -307h39zM151 663h103v0v0q56 0 92.5 -36t36.5 -91q0 -71 -56 -125.5t-128 -54.5v0v0h-102z" />
    <glyph glyph-name="S" unicode="S" horiz-adv-x="415" 
d="M335 348l-148 111q-34 41 -34 75q0 55 43 97t98 42q44 0 72 -28t27 -71v-1h35v2q3 56 -33.5 94.5t-94.5 38.5q-71 0 -126.5 -54.5t-55.5 -125.5q0 -68 53 -104l144 -109q50 -56 50 -101q0 -76 -66 -132q-51 -44 -114 -44q-48 0 -82 28t-42 73v1h-36v-3q7 -58 49.5 -96
t104.5 -38q87 0 154 66.5t67 153.5q0 83 -65 125z" />
    <glyph glyph-name="T" unicode="T" horiz-adv-x="375" 
d="M465 697h-154v0h-34v0h-154l-6 -34h154l-115 -649h34l115 649h154z" />
    <glyph glyph-name="U" unicode="U" horiz-adv-x="471" 
d="M499 697l-86 -487v0v0q-16 -72 -73.5 -121.5t-127.5 -49.5q-62 0 -103.5 39t-41.5 97q0 18 4 35l86 487h-34l-86 -487q-5 -21 -5 -42q0 -70 49.5 -116.5t124.5 -46.5q84 0 153 59t88 146l86 487h-34z" />
    <glyph glyph-name="V" unicode="V" horiz-adv-x="432" 
d="M477 697l-268 -617l-51 617h-35l56 -683h36l297 683h-35z" />
    <glyph glyph-name="W" unicode="W" horiz-adv-x="710" 
d="M754 697l-264 -609l-15 609h-37l-230 -609l-50 609h-35l56 -683h36l226 599l15 -599h37l297 683h-36z" />
    <glyph glyph-name="X" unicode="X" horiz-adv-x="431" 
d="M509 697h-38l-209 -304l-101 304h-38l114 -341l-235 -342h39l208 304l101 -304h39l-114 342z" />
    <glyph glyph-name="Y" unicode="Y" horiz-adv-x="421" 
d="M509 697h-38l-209 -304l-101 304h-38l115 -346l-60 -337h35l59 337z" />
    <glyph glyph-name="Z" unicode="Z" horiz-adv-x="419" 
d="M509 697h-38v0h-331l-6 -34h313l-445 -649h385l6 34h-329z" />
    <glyph glyph-name="underscore" unicode="_" horiz-adv-x="383" 
d="M407 -21h-411l-6 -34h411z" />
    <glyph glyph-name="a" unicode="a" horiz-adv-x="352" 
d="M298 237q-34 42 -104 42q-62 0 -108 -34q-49 -36 -59 -95q-3 -12 -3 -25q0 -51 34.5 -85.5t87.5 -34.5q68 0 120 52l-7 -43h34l41 230v0q3 23 3 44q0 119 -105 119q-57 0 -107 -33.5t-74 -86.5h36q21 38 59 62t80 24q77 0 77 -87q0 -19 -4 -42zM152 39q-41 0 -67 26.5
t-26 65.5q0 52 39 84q37 29 90 29q43 0 70 -19.5t27 -56.5q0 -50 -41 -89.5t-92 -39.5z" />
    <glyph glyph-name="b" unicode="b" horiz-adv-x="445" 
d="M421 206q3 19 3 37q0 70 -45 117t-115 47q-101 0 -173 -87l50 283h-35l-103 -589h34l13 78q43 -87 143 -87q80 0 146.5 59t81.5 142zM199 39q-57 0 -94 39t-37 97q0 76 57.5 137t132.5 61q58 0 94.5 -39t36.5 -97q0 -76 -57 -137t-133 -61z" />
    <glyph glyph-name="c" unicode="c" horiz-adv-x="380" 
d="M202 6q101 8 170 93h-42q-60 -59 -139 -60h-6h-7q-53 5 -82.5 40t-29.5 90q0 18 4 37q12 71 60.5 119t114.5 48h9q75 0 114 -60h41q-42 94 -149 94h-9q-80 0 -140 -58.5t-75 -142.5q-3 -22 -3 -42q0 -72 40 -114.5t111 -44.5h1v0h9q3 0 8 1z" />
    <glyph glyph-name="d" unicode="d" horiz-adv-x="446" 
d="M193 5q101 0 174 87l-14 -78h34l104 589h-34l-50 -283q-42 87 -143 87q-80 0 -146.5 -59t-81.5 -142q-3 -19 -3 -37q0 -70 45 -117t115 -47zM258 373q58 0 94.5 -39t36.5 -97q0 -76 -57 -137t-133 -61q-57 0 -94 39t-37 97q0 76 57.5 137t132.5 61z" />
    <glyph glyph-name="e" unicode="e" 
d="M260 407h-9q-80 0 -140 -58.5t-75 -142.5q-3 -22 -3 -42q0 -72 40 -114.5t111 -44.5h1v0h9q3 0 8 1q101 8 170 93h-42q-60 -59 -139 -60h-6h-7q-53 5 -82 40t-29 90q0 16 2 33h352q4 20 4 39q0 71 -46.5 118.5t-118.5 47.5zM245 373h9q60 0 98 -39.5t38 -97.5h-313
q19 60 64.5 98.5t103.5 38.5z" />
    <glyph glyph-name="f" unicode="f" horiz-adv-x="233" 
d="M300 672h6l6 34h-6q-64 0 -107 -47q-39 -44 -52 -115l-25 -146h-52l-6 -34h51l-61 -350h34l62 350h102l6 34h-102l25 146q23 128 119 128z" />
    <glyph glyph-name="g" unicode="g" horiz-adv-x="446" 
d="M455 398h-34l-13 -70q-37 76 -135 79v0v0h-9q-3 -1 -8 -1q-89 -7 -156 -77t-67 -158q0 -71 46.5 -118.5t118.5 -47.5h9q92 0 158 79l-20 -113v0q-26 -128 -119 -128q-42 0 -71.5 23.5t-37.5 61.5h-36q7 -52 45 -85.5t94 -33.5q127 0 159 162v0zM212 39h-8
q-60 0 -98.5 39.5t-38.5 98.5q0 43 22 85h1q26 49 74 79.5t103 31.5h7h6q57 -5 86 -45t25 -100l-8 -44q-18 -63 -64 -104t-107 -41z" />
    <glyph glyph-name="h" unicode="h" horiz-adv-x="351" 
d="M339 275q3 12 3 23q0 49 -35 77t-90 28q-70 0 -119 -43l49 278h-35l-110 -624h35l46 260v0q8 45 44 69.5t84 24.5q42 0 69 -19.5t27 -56.5q0 -8 -2 -18l-46 -260h34l46 261v0z" />
    <glyph glyph-name="i" unicode="i" horiz-adv-x="105" 
d="M80 398l-68 -384h35l67 384h-34zM148 586h-35l-16 -94h34z" />
    <glyph glyph-name="j" unicode="j" horiz-adv-x="141" 
d="M41 -29q-23 -128 -119 -128q-42 0 -71.5 23.5t-37.5 61.5h-36q6 -52 44.5 -85.5t94.5 -33.5q65 0 108 47q39 43 51 115l76 432h-34zM150 586l-17 -94h34l17 94h-34z" />
    <glyph glyph-name="k" unicode="k" horiz-adv-x="350" 
d="M206 134q55 13 95.5 60.5t40.5 103.5q0 49 -35 77t-90 28q-70 0 -119 -43l49 278h-35l-110 -624h35l29 167q35 -52 103 -52h2q-1 -51 26.5 -83t78.5 -32l6 34q-78 0 -76 86zM211 368q42 0 69 -19.5t27 -56.5q0 -50 -41 -89.5t-91 -39.5q-41 0 -67.5 26.5t-26.5 65.5
q0 52 40 84q36 29 90 29z" />
    <glyph glyph-name="l" unicode="l" horiz-adv-x="103" 
d="M46 14h-34l110 624h34z" />
    <glyph glyph-name="m" unicode="m" horiz-adv-x="544" 
d="M531 274v0v0v0q2 12 2 24q0 48 -34.5 76t-90.5 28q-74 0 -108 -56q-30 56 -114 56q-52 0 -86 -27l4 23h-34l-68 -385h34l46 261h1q16 94 97 94q43 0 69.5 -20.5t26.5 -56.5q0 -9 -1 -18l-46 -260h34l46 260v0q8 49 28 70q22 25 65 25t70 -20t27 -56q0 -9 -2 -18l-46 -261
h34l46 261v0z" />
    <glyph glyph-name="n" unicode="n" horiz-adv-x="321" 
d="M309 274v0v1v0q2 12 2 23q0 49 -34.5 77t-90.5 28q-52 0 -86 -28l4 23h-34l-68 -384h35l46 260v0q17 94 97 94q43 0 70 -19.5t27 -56.5q0 -8 -2 -18l-46 -260h34l46 260v0z" />
    <glyph glyph-name="o" unicode="o" horiz-adv-x="437" 
d="M264 407q-80 0 -146.5 -59t-81.5 -142q-3 -19 -3 -37q0 -70 45 -117t115 -47q80 0 146.5 59t81.5 142q3 19 3 37q0 70 -45 117t-115 47zM199 39q-57 0 -94 39t-37 97q0 76 57.5 137t132.5 61q58 0 94.5 -39t36.5 -97q0 -76 -57 -137t-133 -61z" />
    <glyph glyph-name="p" unicode="p" horiz-adv-x="437" 
d="M264 407q-101 0 -173 -87l13 78h-34l-104 -589h34l50 283q43 -87 143 -87q80 0 146.5 59t81.5 142q3 19 3 37q0 70 -45 117t-115 47zM199 39q-57 0 -94 39t-37 97q0 76 57.5 137t132.5 61q58 0 94.5 -39t36.5 -97q0 -76 -57 -137t-133 -61z" />
    <glyph glyph-name="q" unicode="q" horiz-adv-x="447" 
d="M36 206q-3 -19 -3 -37q0 -70 45 -117t115 -47q101 0 174 87l-50 -283h34l104 589h-34l-14 -78q-42 87 -143 87q-80 0 -146.5 -59t-81.5 -142zM258 373q58 0 94.5 -39t36.5 -97q0 -76 -57 -137t-133 -61q-57 0 -94 39t-37 97q0 76 57.5 137t132.5 61z" />
    <glyph glyph-name="r" unicode="r" horiz-adv-x="164" 
d="M100 376l4 22h-34l-68 -384h35l46 260q16 94 97 94l6 35q-52 0 -86 -27z" />
    <glyph glyph-name="s" unicode="s" horiz-adv-x="271" 
d="M200 214l-78 48q-25 15 -18 51q4 25 24 42.5t45 17.5q23 0 36.5 -16t11.5 -39h34q4 37 -18 63t-58 26q-44 0 -77 -34t-33 -77q0 -42 31 -64v0l78 -48v0q30 -18 30 -54t-28 -63.5t-64 -27.5q-26 0 -43.5 16t-20.5 40h-35q0 -39 26.5 -64.5t66.5 -25.5q51 0 91.5 39.5
t40.5 90.5q0 52 -42 79z" />
    <glyph glyph-name="t" unicode="t" horiz-adv-x="233" 
d="M258 398h-102l28 163h-34l-28 -163h-52l-6 -34h51l-61 -350h34l62 350h102z" />
    <glyph glyph-name="u" unicode="u" horiz-adv-x="322" 
d="M297 398l-46 -260h-1q-16 -94 -97 -94q-43 0 -69.5 19.5t-26.5 56.5q0 8 1 18h-34q-2 -13 -2 -24q0 -49 35 -77t90 -28q52 0 86 28l-4 -23h34l68 384h-34zM104 398h-34l-46 -260h34z" />
    <glyph glyph-name="v" unicode="v" horiz-adv-x="364" 
d="M351 398l-182 -339l-62 339h-37l71 -384h40l207 384h-37z" />
    <glyph glyph-name="w" unicode="w" horiz-adv-x="428" 
d="M412 398l-133 -307l-3 307h-35l-110 -307l-25 307h-36l32 -384h36l104 288l2 -288h36l167 384h-35z" />
    <glyph glyph-name="x" unicode="x" horiz-adv-x="299" 
d="M316 398h-39l-112 -156l-56 156h-39l70 -192l-138 -192h39l112 156l56 -156h39l-70 192z" />
    <glyph glyph-name="y" unicode="y" horiz-adv-x="353" 
d="M285 138l46 260h-34l-48 -268q-15 -86 -96 -86q-42 0 -69 19.5t-27 56.5q0 8 2 18l46 260h-34l-46 -260v0v0v-1v0q-3 -12 -3 -23q0 -49 35 -77t90 -28q52 0 86 27l-13 -69q-22 -129 -119 -129q-42 0 -71.5 24t-36.5 62h-36q6 -53 44 -86.5t94 -33.5q65 0 108 48
q39 43 52 115l28 163q1 3 2 8v0z" />
    <glyph glyph-name="z" unicode="z" horiz-adv-x="294" 
d="M316 398h-240l-6 -34h182l-250 -350h39v0h207l6 34h-188z" />
    <glyph glyph-name="hyphen" unicode="&#xad;" horiz-adv-x="240" 
d="M215 202h-179l6 34h179z" />
    <glyph glyph-name="macron" unicode="&#xaf;" horiz-adv-x="240" 
d="M215 202h-179l6 34h179z" />
    <glyph glyph-name="macron" unicode="&#x2c9;" horiz-adv-x="240" 
d="M215 202h-179l6 34h179z" />
    <glyph glyph-name="degree" unicode="&#xb0;" horiz-adv-x="229" 
d="M202 663q-39 0 -70 -30.5t-31 -69.5q0 -30 20 -50.5t51 -20.5q40 0 71 30.5t31 70.5q0 30 -20 50t-52 20zM178 526q-21 0 -33.5 15.5t-8.5 36.5t21.5 36t38.5 15q22 0 34 -15t9 -36q-4 -21 -21.5 -36.5t-39.5 -15.5z" />
    <glyph glyph-name="Agrave" unicode="&#xc0;" horiz-adv-x="455" 
d="M345 697h-34l-309 -683h35l108 239h210l23 -239h35zM160 287l157 348l34 -348h-191zM382 715l-47 68h-43l48 -68h42z" />
    <glyph glyph-name="Acircumflex" unicode="&#xc2;" horiz-adv-x="455" 
d="M345 697h-34l-309 -683h35l108 239h210l23 -239h35zM160 287l157 348l34 -348h-191zM343 758l31 -43h43l-48 68h-43v0v0v0l-72 -68h43z" />
    <glyph glyph-name="Ccedilla" unicode="&#xc7;" horiz-adv-x="541" 
d="M570 153h-37q-93 -105 -210 -113l8 42h-34l-8 -42q-90 7 -146.5 77.5t-56.5 173.5q0 32 6 65q23 131 118.5 223.5t207.5 92.5q123 0 184 -109h38q-30 66 -86.5 104.5t-129.5 38.5q-124 0 -230 -102.5t-131 -247.5q-7 -37 -7 -72q0 -115 63 -193.5t164 -84.5l-14 -78h35
l13 78q145 9 253 147z" />
    <glyph glyph-name="Egrave" unicode="&#xc8;" horiz-adv-x="329" 
d="M425 663l6 34h-308l-121 -683h308l6 34h-273l60 342h205l6 34h-205l42 239h274zM331 715l-48 68h-42l47 -68h43z" />
    <glyph glyph-name="Eacute" unicode="&#xc9;" horiz-adv-x="329" 
d="M425 663l6 34h-308l-121 -683h308l6 34h-273l60 342h205l6 34h-205l42 239h274zM343 783h-43l-71 -68h42z" />
    <glyph glyph-name="Ecircumflex" unicode="&#xca;" horiz-adv-x="329" 
d="M425 663l6 34h-308l-121 -683h308l6 34h-273l60 342h205l6 34h-205l42 239h274zM288 758l30 -43h43l-48 68h-42v0l-72 -68h42z" />
    <glyph glyph-name="Edieresis" unicode="&#xcb;" horiz-adv-x="329" 
d="M425 663l6 34h-308l-121 -683h308l6 34h-273l60 342h205l6 34h-205l42 239h274zM347 783h-34l-12 -68h34zM271 783h-35l-12 -68h34z" />
    <glyph glyph-name="Icircumflex" unicode="&#xce;" horiz-adv-x="159" 
d="M67 14h34l120 683h-34zM241 783h-43v0l-72 -68h43l46 43l31 -43h42z" />
    <glyph glyph-name="Idieresis" unicode="&#xcf;" horiz-adv-x="134" 
d="M41 14h34l121 683h-35zM126 715h34l12 68h-34zM215 783l-12 -68h34l12 68h-34z" />
    <glyph glyph-name="Ocircumflex" unicode="&#xd4;" horiz-adv-x="649" 
d="M424 706q-124 0 -230 -102.5t-131 -247.5q-7 -37 -7 -72q0 -120 68.5 -199.5t175.5 -79.5q124 0 229.5 102.5t131.5 248.5q6 36 6 71q0 120 -68 199.5t-175 79.5zM306 39q-95 0 -155 71.5t-60 179.5q0 32 6 66q23 131 117 223.5t204 92.5q94 0 154.5 -71.5t60.5 -179.5
q0 -32 -6 -65q-23 -131 -117 -224t-204 -93zM433 758l31 -43h42l-47 68v0h-43v0l-72 -68h43z" />
    <glyph glyph-name="Odieresis" unicode="&#xd6;" horiz-adv-x="160" 
 />
    <glyph glyph-name="Ugrave" unicode="&#xd9;" horiz-adv-x="471" 
d="M499 697l-86 -487v0v0q-8 -70 -68.5 -120.5t-132.5 -50.5q-63 0 -103 40.5t-40 100.5q0 15 2 30l86 487h-34l-86 -487q-3 -18 -3 -36q0 -72 48.5 -120.5t123.5 -48.5q85 0 155.5 60t85.5 145l86 487h-34zM382 715l-47 68h-43l48 -68h42z" />
    <glyph glyph-name="Ucircumflex" unicode="&#xdb;" horiz-adv-x="471" 
d="M499 697l-86 -487v0v0q-8 -70 -68.5 -120.5t-132.5 -50.5q-63 0 -103 40.5t-40 100.5q0 15 2 30l86 487h-34l-86 -487q-3 -18 -3 -36q0 -72 48.5 -120.5t123.5 -48.5q85 0 155.5 60t85.5 145l86 487h-34zM339 758l31 -43h42l-47 68h-43v0l-72 -68h43z" />
    <glyph glyph-name="Udieresis" unicode="&#xdc;" horiz-adv-x="471" 
d="M499 697l-86 -487v0v0q-8 -70 -68.5 -120.5t-132.5 -50.5q-63 0 -103 40.5t-40 100.5q0 15 2 30l86 487h-34l-86 -487q-3 -18 -3 -36q0 -72 48.5 -120.5t123.5 -48.5q85 0 155.5 60t85.5 145l86 487h-34zM399 783h-34l-13 -68h35zM322 783h-34l-12 -68h34z" />
    <glyph glyph-name="agrave" unicode="&#xe0;" horiz-adv-x="351" 
d="M334 244q3 23 3 44q0 119 -105 119q-57 0 -107 -33.5t-74 -86.5h36q21 38 59 62t80 24q77 0 77 -89q0 -18 -4 -40h1l-2 -7q-34 42 -104 42q-62 0 -108 -34q-49 -36 -59 -95q-3 -12 -3 -25q0 -51 34.5 -85.5t87.5 -34.5q68 0 120 52l-7 -43h34l41 230v0zM152 39
q-41 0 -67 26.5t-26 65.5q0 52 39 84q37 29 90 29q43 0 70 -19.5t27 -56.5q0 -50 -41 -89.5t-92 -39.5zM276 450l-48 68h-43l48 -68h43z" />
    <glyph glyph-name="acircumflex" unicode="&#xe2;" horiz-adv-x="351" 
d="M232 407q-56 0 -106.5 -33.5t-74.5 -85.5h36q21 38 59 61.5t80 23.5q77 0 77 -87q0 -19 -4 -41l-1 -8q-34 42 -103 42q-63 0 -109 -34q-49 -36 -59 -94q-3 -13 -3 -25q0 -52 34.5 -86t87.5 -34q68 0 121 51l-8 -43h34l41 231v0q3 23 3 43q0 119 -105 119zM152 40
q-40 0 -66.5 26t-26.5 66q0 51 38 82t91 31q43 0 70 -20t27 -56q0 -51 -41 -90t-92 -39zM266 450l-47 68h-43l48 -68h42z" />
    <glyph glyph-name="ccedilla" unicode="&#xe7;" horiz-adv-x="380" 
d="M372 99h-42q-53 -52 -121 -59l6 33h-35l-6 -33q-51 5 -79.5 40.5t-28.5 88.5q0 18 4 37q12 71 60.5 119t114.5 48h9q75 0 114 -60h41q-42 94 -149 94h-9q-80 0 -140 -58.5t-75 -142.5q-3 -22 -3 -42q0 -66 35 -108q37 -45 100 -50l-12 -69h34l13 69q101 9 169 93z" />
    <glyph glyph-name="egrave" unicode="&#xe8;" 
d="M425 241q0 71 -46.5 118.5t-118.5 47.5h-9q-80 0 -140 -58.5t-75 -142.5q-4 -22 -4 -43q0 -68 36 -111q37 -46 100 -46v0h8q6 -1 8 -1h1v0h9q106 5 178 94h-42q-60 -59 -139 -60h-7h-6q-53 5 -82 40.5t-29 89.5q0 16 2 33h352q4 20 4 39zM77 236q19 60 64.5 98.5
t103.5 38.5h9q60 0 98 -39.5t38 -97.5h-313zM323 450l-48 68h-42l47 -68h43z" />
    <glyph glyph-name="eacute" unicode="&#xe9;" 
d="M425 241q0 71 -46.5 118.5t-118.5 47.5h-9q-80 0 -140 -58.5t-75 -142.5q-4 -22 -4 -43q0 -68 36 -111q37 -46 100 -46v0h8q6 -1 8 -1h1v0h9q106 5 178 94h-42q-60 -59 -139 -60h-7h-6q-53 5 -82 40.5t-29 89.5q0 16 2 33h352q4 20 4 39zM77 236q19 60 64.5 98.5
t103.5 38.5h9q60 0 98 -39.5t38 -97.5h-313zM335 518h-43l-71 -68h42z" />
    <glyph glyph-name="ecircumflex" unicode="&#xea;" 
d="M425 241q0 71 -46.5 118.5t-118.5 47.5h-9q-80 0 -140 -58.5t-75 -142.5q-4 -22 -4 -43q0 -68 36 -111q37 -46 100 -46v0h8q6 -1 8 -1h1v0h9q106 5 178 94h-42q-60 -59 -139 -60h-7h-6q-53 5 -82 40.5t-29 89.5q0 16 2 33h352q4 20 4 39zM77 236q19 60 64.5 98.5
t103.5 38.5h9q60 0 98 -39.5t38 -97.5h-313zM280 494l30 -44h43l-48 68h-42l-72 -68h42z" />
    <glyph glyph-name="edieresis" unicode="&#xeb;" 
d="M425 241q0 71 -46.5 118.5t-118.5 47.5h-9q-80 0 -140 -58.5t-75 -142.5q-4 -22 -4 -43q0 -68 36 -111q37 -46 100 -46v0h8q6 -1 8 -1h1v0h9q106 5 178 94h-42q-60 -59 -139 -60h-7h-6q-53 5 -82 40.5t-29 89.5q0 16 2 33h352q4 20 4 39zM77 236q19 60 64.5 98.5
t103.5 38.5h9q60 0 98 -39.5t38 -97.5h-313zM339 518h-34l-12 -68h34zM263 518h-35l-12 -68h34z" />
    <glyph glyph-name="icircumflex" unicode="&#xee;" horiz-adv-x="160" 
d="M206 586v0h-43l-72 -68h43l46 44l31 -44h43zM67 14h34l68 384h-35z" />
    <glyph glyph-name="idieresis" unicode="&#xef;" horiz-adv-x="163" 
d="M91 518h35l12 68h-35zM180 586l-12 -68h34l12 68h-34zM41 14h34l68 384h-34z" />
    <glyph glyph-name="ocircumflex" unicode="&#xf4;" horiz-adv-x="439" 
d="M279 494l31 -44h43l-48 68h-43l-72 -68h43zM264 407q-80 0 -146.5 -59t-81.5 -142q-3 -19 -3 -37q0 -70 45 -117t115 -47q80 0 146.5 59t81.5 142q3 19 3 37q0 70 -45 117t-115 47zM199 39q-57 0 -94 39t-37 97q0 76 57.5 137t132.5 61q58 0 94.5 -39t36.5 -97
q0 -76 -57 -137t-133 -61z" />
    <glyph glyph-name="odieresis" unicode="&#xf6;" horiz-adv-x="160" 
 />
    <glyph glyph-name="ugrave" unicode="&#xf9;" horiz-adv-x="322" 
d="M297 398l-46 -260h-1q-16 -94 -97 -94q-43 0 -69.5 20t-26.5 56q0 9 2 18l45 260h-34l-46 -260v0q-2 -13 -2 -24q0 -48 35 -76.5t90 -28.5q52 0 86 28l-4 -23h34l68 384h-34zM261 450l-48 68h-43l48 -68h43z" />
    <glyph glyph-name="ucircumflex" unicode="&#xfb;" horiz-adv-x="322" 
d="M217 494l31 -44h43l-48 68h-43v0l-72 -68h43zM297 398l-46 -260h-1q-16 -94 -97 -94q-43 0 -69.5 20t-26.5 56q0 9 2 18l45 260h-34l-46 -260v0q-2 -13 -2 -24q0 -48 35 -76.5t90 -28.5q52 0 86 28l-4 -23h34l68 384h-34z" />
    <glyph glyph-name="udieresis" unicode="&#xfc;" horiz-adv-x="322" 
d="M277 518h-34l-12 -68h34zM200 518h-34l-12 -68h34zM297 398l-46 -260h-1q-16 -94 -97 -94q-43 0 -69.5 20t-26.5 56q0 9 2 18l45 260h-34l-46 -260v0q-2 -13 -2 -24q0 -48 35 -76.5t90 -28.5q52 0 86 28l-4 -23h34l68 384h-34z" />
    <glyph glyph-name="yacute" unicode="&#xfd;" horiz-adv-x="626" 
d="M232 407q-56 0 -106.5 -33.5t-74.5 -85.5h36q21 38 59 61.5t80 23.5q77 0 77 -87q0 -19 -4 -41l-1 -8q-34 42 -103 42q-63 0 -109 -34q-49 -36 -59 -94q-3 -13 -3 -25q0 -52 34.5 -86t87.5 -34q68 0 121 51l-8 -43h34l41 231v0q3 23 3 43q0 119 -105 119zM152 40
q-40 0 -66.5 26t-26.5 66q0 51 38 82t91 31q43 0 70 -20t27 -56q0 -51 -41 -90t-92 -39zM266 450l-47 68h-43l48 -68h42zM488 -200h-34l176 1000h34zM582 697h115h-115zM461 14h116h-116z" />
    <glyph glyph-name="OE" unicode="&#x152;" horiz-adv-x="893" 
d="M989 663l6 34h-308l-32 -179q-23 85 -84.5 136.5t-146.5 51.5q-124 0 -230 -102.5t-131 -247.5q-7 -37 -7 -72q0 -120 68.5 -199.5t175.5 -79.5q85 0 165 51.5t133 136.5l-31 -179h307l6 34h-273l60 342h205l6 34h-205l42 239h274zM306 39q-95 0 -155 71.5t-60 179.5
q0 32 6 66q23 131 117 223.5t204 92.5q94 0 154.5 -71.5t60.5 -179.5q0 -32 -6 -65q-23 -131 -117 -224t-204 -93z" />
    <glyph glyph-name="oe" unicode="&#x153;" horiz-adv-x="777" 
d="M770 202q4 20 4 39q0 71 -46 118.5t-118 47.5h-9q-117 0 -183 -115q-15 52 -56 83.5t-98 31.5q-80 0 -146.5 -59t-81.5 -142q-3 -19 -3 -37q0 -70 45 -117t115 -47q57 0 109.5 31.5t84.5 83.5q25 -112 147 -115h1v0h8q4 0 9 1q101 8 170 93h-42q-60 -59 -139 -60h-6h-7
q-53 5 -82.5 40t-29.5 90q0 11 2 22q1 5 2 11h350zM595 373h9q60 0 98 -39.5t38 -97.5h-313q19 60 64.5 98.5t103.5 38.5zM199 39q-57 0 -94 39t-37 97q0 76 57.5 137t132.5 61q58 0 94.5 -39t36.5 -97q0 -11 -1.5 -21t-2.5 -20q-15 -65 -69 -111t-117 -46z" />
    <glyph glyph-name="endash" unicode="&#x2013;" horiz-adv-x="240" 
d="M215 202h-179l6 34h179z" />
    <glyph glyph-name="bullet" unicode="&#x2022;" horiz-adv-x="217" 
d="M102 142q-28 0 -46.5 18t-18.5 45q0 36 28 63.5t64 27.5q28 0 46.5 -18t18.5 -46q0 -35 -28 -62.5t-64 -27.5z" />
    <glyph glyph-name="ellipsis" unicode="&#x2026;" horiz-adv-x="265" 
d="M2 14h35l18 102h-35zM191 116l-18 -102h35l18 102h-35zM88 14h34l18 102h-34z" />
    <glyph glyph-name="Euro" unicode="&#x20ac;" horiz-adv-x="644" 
d="M631 153q-101 -114 -227 -114q-96 0 -157.5 70.5t-62.5 177.5h132l6 34h-137q3 35 12 69h137l6 34h-132q39 107 125.5 177.5t182.5 70.5q123 0 184 -109h38q-30 66 -86.5 104.5t-129.5 38.5q-108 0 -205 -80t-139 -202h-103l-6 -34h99q-9 -34 -12 -69h-99l-6 -34h103
q-1 -121 67.5 -201.5t176.5 -80.5q74 0 145 39.5t125 108.5h-37z" />
    <glyph glyph-name="minus" unicode="&#x2212;" horiz-adv-x="240" 
d="M215 202h-179l6 34h179z" />
  </font>
</defs>
</svg>
