<?xml version="1.0" standalone="no"?>
<!DOCTYPE svg PUBLIC "-//W3C//DTD SVG 1.1//EN" "http://www.w3.org/Graphics/SVG/1.1/DTD/svg11.dtd" >
<svg xmlns="http://www.w3.org/2000/svg" xmlns:xlink="http://www.w3.org/1999/xlink" version="1.1">
<metadata>
Created by FontForge 20201107 at Tue Jan 17 20:55:18 2012
 By 
Generated by Fontographer 4.7
</metadata>
<defs>
<font id="SornetteBoldItalique" horiz-adv-x="193" >
  <font-face 
    font-family="Sornette"
    font-weight="600"
    font-style="italic"
    font-stretch="normal"
    units-per-em="1000"
    panose-1="0 0 6 0 0 0 0 0 0 0"
    ascent="800"
    descent="-200"
    x-height="428"
    cap-height="727"
    bbox="-258 -226 1030 869"
    underline-thickness="20"
    underline-position="-143"
    unicode-range="U+0020-2212"
  />
<missing-glyph horiz-adv-x="500" 
d="M63 0v800h375v-800h-375zM125 63h250v675h-250v-675z" />
    <glyph glyph-name=".notdef" horiz-adv-x="500" 
d="M63 0v800h375v-800h-375zM125 63h250v675h-250v-675z" />
    <glyph glyph-name=".null" horiz-adv-x="0" 
 />
    <glyph glyph-name="nonmarkingreturn" 
 />
    <glyph glyph-name="space" unicode=" " 
 />
    <glyph glyph-name="exclam" unicode="!" horiz-adv-x="160" 
d="M5 199l93 528h94l-93 -528h-94zM-33 -16l29 162h94l-29 -162h-94z" />
    <glyph glyph-name="quotedbl" unicode="&#x22;" horiz-adv-x="320" 
d="M216 454l42 239h97l-42 -239h-97zM50 454l42 239h95l-42 -239h-95z" />
    <glyph glyph-name="percent" unicode="%" horiz-adv-x="481" 
d="M189 489q-38 0 -63 25t-25 62q0 49 38 86.5t87 37.5q39 0 64 -24.5t25 -62.5q0 -48 -38.5 -86t-87.5 -38zM50 -6h-84l498 723h85zM281 11q-39 0 -64 24.5t-25 62.5q0 49 38.5 86.5t87.5 37.5q38 0 63 -25t25 -62q0 -49 -38.5 -86.5t-86.5 -37.5zM213 626q-31 0 -36 -31
q-3 -13 4.5 -22t20.5 -9q32 0 37 31q2 13 -5.5 22t-20.5 9zM305 148q-32 0 -37 -32q-2 -13 5.5 -22t20.5 -9q31 0 36 31q3 13 -4.5 22.5t-20.5 9.5z" />
    <glyph glyph-name="ampersand" unicode="&#x26;" horiz-adv-x="615" 
d="M417 -16l-48 75q-80 -87 -189 -87q-79 0 -129.5 50.5t-50.5 126.5q0 69 39 131t101 92l19 12l-44 67q-22 46 -12 102q14 77 76.5 130t138.5 53q67 0 110.5 -43.5t43.5 -107.5q0 -57 -35 -109q-31 -47 -84 -79l-58 -35l79 -122l115 216h100l-160 -301l111 -171h-123z
M374 568q3 76 -73 73h-3q-34 -1 -64 -27t-36 -61q-5 -28 13 -62q10 -14 37 -55l77 45q42 30 49 72v15zM207 310q-48 -28 -69 -49q-33 -32 -40 -74q-2 -11 -2 -21q0 -43 28.5 -71.5t72.5 -28.5q77 0 122 70z" />
    <glyph glyph-name="quotesingle" unicode="'" horiz-adv-x="245" 
d="M139 445h-110l145 205h110z" />
    <glyph glyph-name="parenleft" unicode="(" horiz-adv-x="327" 
d="M19 276q29 167 112 287q99 144 238 144q18 -20 9 -94h-32q-81 1 -147 -100q-61 -94 -86 -237q-12 -66 -12 -123q0 -98 32 -154q35 -61 100 -61q18 -20 9 -94q-124 0 -184 94q-51 79 -51 211q0 62 12 127z" />
    <glyph glyph-name="parenright" unicode=")" horiz-adv-x="357" 
d="M-33 -156q-17 20 -8 94h31q82 -1 148 100q60 94 86 238q11 65 11 122q0 98 -32 154q-34 61 -100 61q-18 20 -9 94h31q107 2 160 -90q45 -78 45 -208q0 -66 -12 -133q-30 -168 -112 -288q-100 -144 -239 -144z" />
    <glyph glyph-name="asterisk" unicode="*" horiz-adv-x="234" 
d="M222 504l-35 28l-8 -48h-34l8 48l-44 -28l-15 28l52 33l-41 33l25 28l35 -28l8 48h34l-8 -48l44 28l15 -28l-52 -33l41 -33z" />
    <glyph glyph-name="plus" unicode="+" horiz-adv-x="378" 
d="M214 172l-21 -120h-94l21 120h-120l17 94h120l21 120h94l-21 -120h119l-16 -94h-120z" />
    <glyph glyph-name="comma" unicode="," horiz-adv-x="251" 
d="M44 -93h-110l145 205h110z" />
    <glyph glyph-name="period" unicode="." horiz-adv-x="166" 
d="M-33 -16l29 162h94l-29 -162h-94z" />
    <glyph glyph-name="slash" unicode="/" horiz-adv-x="486" 
d="M54 -16h-106l510 743h105z" />
    <glyph glyph-name="zero" unicode="0" horiz-adv-x="531" 
d="M201 -25q-86 0 -142 55.5t-56 138.5q0 20 4 41l51 291q18 97 99 166t178 69q86 0 141.5 -55t55.5 -139q0 -20 -3 -41l-52 -291q-17 -97 -98 -166t-178 -69zM318 642q-58 0 -106.5 -41.5t-58.5 -99.5l-52 -291q-2 -12 -2 -24q0 -50 33.5 -83.5t84.5 -33.5q59 0 107.5 41.5
t58.5 99.5l51 291q3 12 3 24q0 50 -33.5 83.5t-85.5 33.5z" />
    <glyph glyph-name="one" unicode="1" horiz-adv-x="354" 
d="M161 -16l102 581l-130 -137h-119l284 299h88l-131 -743h-94z" />
    <glyph glyph-name="two" unicode="2" horiz-adv-x="466" 
d="M-33 -16l23 128l14 -45q74 99 343 417q28 33 28 73q0 37 -24.5 61t-61.5 24q-88 0 -125 -111h-94q29 95 93.5 150t141.5 55q72 0 118.5 -46.5t46.5 -115.5q0 -79 -62 -151l-296 -345h300l-17 -94h-428z" />
    <glyph glyph-name="three" unicode="3" horiz-adv-x="502" 
d="M189 -25q-81 0 -133.5 53.5t-63.5 151.5h96q20 -111 117 -111q64 0 114 48.5t50 112.5q0 46 -29.5 78t-76.5 35q-4 0 -37 -1l16 94q60 1 102 31q48 34 48 90q0 37 -24 61t-62 24q-87 0 -125 -111h-94q29 95 94 150t142 55q72 0 118.5 -46.5t46.5 -115.5q0 -107 -92 -179
q68 -55 68 -149q0 -20 -4 -40q-17 -96 -96.5 -163.5t-174.5 -67.5z" />
    <glyph glyph-name="four" unicode="4" horiz-adv-x="524" 
d="M380 120l-24 -136h-94l24 136h-315l430 607h87q-6 -37 -91 -512h85l-16 -95h-86zM355 512l-210 -297h158z" />
    <glyph glyph-name="five" unicode="5" horiz-adv-x="496" 
d="M189 -25q-81 0 -133.5 53.5t-63.5 151.5h96q20 -111 117 -111q63 0 115.5 60.5t52.5 124.5q0 54 -32.5 93t-79.5 39q-81 0 -144 -86h-86q7 43 77 427h418l-16 -94h-325l-33 -187q61 34 126 34q84 0 138 -65q52 -60 52 -146q0 -107 -86 -199q-87 -95 -193 -95z" />
    <glyph glyph-name="six" unicode="6" horiz-adv-x="504" 
d="M192 -25q-75 0 -125 49t-60 125l65 363q19 102 88.5 163t165.5 61q76 0 125.5 -53t64.5 -152h-98q-24 111 -108 111q-53 0 -101 -45.5t-60 -112.5l-9 -52q68 48 141 48q83 0 135 -58.5t52 -145.5q0 -24 -5 -49q-18 -103 -97 -177.5t-174 -74.5zM265 385q-54 0 -100 -44
q-49 -47 -61 -114q-3 -17 -3 -33q0 -55 31 -90t77 -35q53 0 100.5 45.5t59.5 112.5q3 17 3 33q0 55 -31 90t-76 35z" />
    <glyph glyph-name="seven" unicode="7" horiz-adv-x="439" 
d="M370 437h87l-16 -94h-135l-247 -359h-107l247 359h-92l17 94h140l135 196h-317l16 94h472z" />
    <glyph glyph-name="eight" unicode="8" horiz-adv-x="510" 
d="M196 -25q-84 0 -138.5 54.5t-54.5 136.5q0 68 38 131q36 60 96 98q-41 45 -41 110q0 91 71.5 161t163.5 70q72 0 118.5 -46.5t46.5 -115.5q0 -106 -92 -179q68 -55 68 -149q0 -20 -4 -40q-17 -96 -96.5 -163.5t-175.5 -67.5zM314 642q-48 0 -85 -36.5t-37 -84.5
q0 -36 24 -60t62 -24q47 0 84.5 36.5t37.5 83.5q0 37 -24 61t-62 24zM272 343h-10.5h-10.5q-61 -5 -107 -52.5t-46 -108.5q0 -49 32.5 -81t82.5 -32q64 0 114 48.5t50 112.5q0 46 -29.5 77.5t-75.5 35.5z" />
    <glyph glyph-name="nine" unicode="9" horiz-adv-x="516" 
d="M462 220q-6 -102 -90 -177.5t-181 -75.5q-76 0 -125.5 52.5t-64.5 152.5h98q24 -111 109 -111q53 0 100.5 45.5t59.5 112.5l11 60q-68 -47 -141 -47q-84 0 -135.5 58t-51.5 145q0 24 4 49q18 103 97 177.5t175 74.5q83 0 134.5 -58.5t51.5 -145.5q0 -24 -4 -48zM310 642
q-53 0 -101 -45.5t-60 -112.5q-2 -17 -2 -33q0 -55 30.5 -90t76.5 -35q54 0 101.5 45.5t59.5 112.5q3 17 3 33q0 55 -31 90t-77 35z" />
    <glyph glyph-name="colon" unicode=":" horiz-adv-x="158" 
d="M0 171l24 134h94l-24 -134h-94zM-33 -16l24 134h94l-24 -134h-94z" />
    <glyph glyph-name="semicolon" unicode=";" horiz-adv-x="227" 
d="M79 152l26 151h95l-27 -151h-94zM32 -93h-98l133 194h96z" />
    <glyph glyph-name="less" unicode="&#x3c;" horiz-adv-x="500" 
d="M2 182l14 81l473 161l-17 -100l-299 -102l263 -101l-18 -100z" />
    <glyph glyph-name="equal" unicode="=" horiz-adv-x="375" 
d="M24 307l17 94h333l-16 -94h-334zM-11 108l17 95h333l-16 -95h-334z" />
    <glyph glyph-name="greater" unicode="&#x3e;" horiz-adv-x="467" 
d="M-26 21l17 100l299 101l-263 102l18 100l416 -161l-14 -81z" />
    <glyph glyph-name="question" unicode="?" horiz-adv-x="430" 
d="M398 423l-149 -174q-5 -6 -8 -20l-13 -77h-94l14 84q4 20 27 57l6 9q48 58 156 183q27 31 27 72q0 37 -24 61t-62 24q-87 0 -125 -111h-94q30 95 94.5 150t141.5 55q72 0 118.5 -46.5t46.5 -115.5q0 -79 -62 -151zM104 -16l23 126h94l-22 -126h-95z" />
    <glyph glyph-name="at" unicode="@" horiz-adv-x="698" 
d="M604 14q-8 -44 -48.5 -75t-84.5 -31q-40 0 -64.5 28t-23.5 75q-54 -26 -95 -26q-61 0 -100 39t-39 98q0 14 3 28q12 69 69 110q53 39 122 39q44 0 93 -24q-28 80 -68 80q-48 0 -69 -6q-33 -10 -50 -40h-76q36 71 92 97q43 21 115 21q123 0 123 -134q0 -23 -4 -48
l-41 -231q-2 -13 5.5 -22.5t20.5 -9.5q16 0 30 10.5t15 21.5l35 196q7 37 7 72q0 100 -50 162t-133 62q-100 0 -187.5 -86t-109.5 -210q-5 -32 -5 -62q0 -102 56 -168t142 -66q36 0 63 12l-14 -80q-37 -11 -98 -11q-109 0 -170 81q-57 75 -57 199q0 46 9 95
q27 152 139 261.5t246 109.5q113 0 180 -83q64 -80 64 -205q0 -40 -8 -83zM330 224q-44 0 -73 -22q-32 -25 -32 -68q0 -32 21.5 -53.5t54.5 -21.5q41 0 75 32t34 73q0 60 -80 60z" />
    <glyph glyph-name="A" unicode="A" horiz-adv-x="518" 
d="M350 -16l-23 239h-165l-108 -239h-96l335 743h80l74 -743h-97zM297 522l-92 -205h112z" />
    <glyph glyph-name="B" unicode="B" horiz-adv-x="455" 
d="M134 -16h-167l131 743h167q66 0 108.5 -42t42.5 -106q0 -89 -74 -155q77 -57 77 -159q0 -21 -4 -42q-17 -99 -99.5 -169t-181.5 -70zM248 633h-72l-30 -171h72q40 0 71 30.5t31 70.5q0 30 -20 50t-52 20zM202 368h-73l-51 -290h72q68 0 121 51.5t53 118.5q0 52 -34.5 86
t-87.5 34z" />
    <glyph glyph-name="C" unicode="C" horiz-adv-x="647" 
d="M294 -27q-120 0 -194 87t-74 218q0 37 6 75q28 156 143 268.5t254 112.5q168 0 259 -203h-106q-62 109 -170 109q-98 0 -183.5 -83t-106.5 -204q-6 -30 -6 -59q0 -99 55.5 -163t139.5 -64q111 0 212 113h105q-162 -207 -334 -207z" />
    <glyph glyph-name="D" unicode="D" horiz-adv-x="526" 
d="M117 -16h-150l131 743h173q110 0 178 -88q65 -83 65 -208q0 -38 -7 -75q-26 -153 -139.5 -262.5t-250.5 -109.5zM239 634h-63l-98 -556h55q96 0 180.5 81t105.5 198q5 29 5 57q0 94 -52 156t-133 64z" />
    <glyph glyph-name="E" unicode="E" horiz-adv-x="393" 
d="M-33 -16l131 743h368l-17 -94h-273l-32 -179h205l-16 -94h-205l-50 -282h273l-16 -94h-368z" />
    <glyph glyph-name="F" unicode="F" horiz-adv-x="397" 
d="M176 633l-32 -179h205l-16 -94h-205l-67 -376h-94l131 743h368l-17 -94h-273z" />
    <glyph glyph-name="G" unicode="G" horiz-adv-x="707" 
d="M295 -25q-120 0 -194.5 87t-74.5 218q0 37 7 76q27 155 142.5 267.5t253.5 112.5q169 0 260 -205h-106q-61 111 -171 111q-97 0 -183 -83t-107 -203q-5 -31 -5 -60q0 -99 55 -163t139 -64q91 0 173 73t111 183h-260l17 94h350l-11 -64q-28 -155 -143 -267.5t-253 -112.5z
" />
    <glyph glyph-name="H" unicode="H" horiz-adv-x="468" 
d="M275 -16l63 359h-213l-64 -359h-94l131 743h94l-51 -290h214l51 290h94l-131 -743h-94z" />
    <glyph glyph-name="I" unicode="I" horiz-adv-x="189" 
d="M-4 -16l131 743h94l-131 -743h-94z" />
    <glyph glyph-name="J" unicode="J" horiz-adv-x="479" 
d="M173 -25q-75 0 -125 48.5t-50 120.5q0 20 4 39l7 32h94l-7 -33q-2 -10 -2 -21q0 -39 27 -65.5t69 -26.5q47 0 86 33.5t48 80.5l96 544h94l-96 -542q-15 -87 -87 -148.5t-158 -61.5z" />
    <glyph glyph-name="K" unicode="K" horiz-adv-x="485" 
d="M301 -16l-148 357l-35 -38l-57 -319h-94l131 743h94l-47 -269l255 269h119l-290 -306l182 -437h-110z" />
    <glyph glyph-name="L" unicode="L" horiz-adv-x="417" 
d="M-33 -16l131 743h94l-114 -649h273l-16 -94h-368z" />
    <glyph glyph-name="M" unicode="M" horiz-adv-x="593" 
d="M410 -16l73 414l-206 -414h-83l-60 414l-73 -414h-94l131 743h88l81 -560l278 560h91l-132 -743h-94z" />
    <glyph glyph-name="N" unicode="N" horiz-adv-x="499" 
d="M399 -16h-86l-161 514l-91 -514h-94l131 743h87l161 -514l91 514h94z" />
    <glyph glyph-name="O" unicode="O" horiz-adv-x="710" 
d="M295 -25q-120 0 -194.5 87t-74.5 218q0 37 7 76q27 155 142.5 267.5t253.5 112.5q120 0 194.5 -87t74.5 -218q0 -37 -7 -75q-27 -156 -142.5 -268.5t-253.5 -112.5zM412 642q-95 0 -179.5 -83t-105.5 -203q-6 -31 -6 -61q0 -99 54 -162.5t136 -63.5q96 0 180.5 83
t105.5 204q5 31 5 60q0 99 -54 162.5t-136 63.5z" />
    <glyph glyph-name="P" unicode="P" horiz-adv-x="412" 
d="M188 291h-72l-55 -307h-94l131 743h167q80 0 131.5 -51t51.5 -128q0 -19 -3 -39q-16 -90 -91.5 -154t-165.5 -64zM248 633h-72l-44 -247h73q57 0 102 44t45 101q0 44 -29 73t-75 29z" />
    <glyph glyph-name="Q" unicode="Q" horiz-adv-x="712" 
d="M497 45l53 -130h-109l-34 81q-56 -21 -112 -21q-120 0 -194.5 87t-74.5 218q0 37 7 76q27 155 142.5 267.5t253.5 112.5q120 0 194.5 -87t74.5 -218q0 -37 -7 -75q-17 -95 -68.5 -177t-125.5 -134zM412 642q-95 0 -179.5 -83t-105.5 -203q-6 -31 -6 -61q0 -99 54 -162.5
t136 -63.5q31 0 62 10l-60 144h110l40 -96q109 86 134 229q5 31 5 60q0 99 -54 162.5t-136 63.5z" />
    <glyph glyph-name="R" unicode="R" horiz-adv-x="457" 
d="M273 -16l-122 307h-35l-55 -307h-94l131 743h167q80 0 131.5 -51t51.5 -128q0 -83 -56 -152.5t-136 -94.5l126 -317h-109zM248 633h-72l-44 -247h73q57 0 102 44t45 101q0 44 -29 73t-75 29z" />
    <glyph glyph-name="S" unicode="S" horiz-adv-x="473" 
d="M174 -27q-162 0 -184 197h98q17 -102 103 -102q55 0 99 42.5t44 97.5q0 52 -40 82l-144 109q-62 48 -62 125q0 84 66.5 149t150.5 65q80 0 119 -56q37 -51 32 -139h-94q2 100 -73 100q-40 0 -72.5 -31t-32.5 -70q0 -40 25 -58l147 -110q75 -56 75 -148q0 -18 -4 -37
q-16 -89 -90 -152.5t-163 -63.5z" />
    <glyph glyph-name="T" unicode="T" horiz-adv-x="425" 
d="M330 633l-115 -649h-94l115 649h-154l16 94h402l-16 -94h-154z" />
    <glyph glyph-name="U" unicode="U" horiz-adv-x="533" 
d="M201 -25q-86 0 -142 55.5t-56 138.5q0 20 4 41l91 517h94l-91 -517q-2 -12 -2 -24q0 -50 33.5 -83.5t84.5 -33.5q59 0 107.5 41.5t58.5 99.5l91 517h95l-92 -517q-17 -99 -97.5 -167t-178.5 -68z" />
    <glyph glyph-name="V" unicode="V" horiz-adv-x="496" 
d="M233 -16h-83l-60 743h97l43 -527l229 527h97z" />
    <glyph glyph-name="W" unicode="W" horiz-adv-x="774" 
d="M511 -16h-84l-12 477l-181 -477h-84l-60 743h97l41 -505l191 505h85l13 -505l219 505h98z" />
    <glyph glyph-name="X" unicode="X" horiz-adv-x="514" 
d="M309 356l123 -372h-105l-90 268l-183 -268h-106l255 372l-124 371h106l89 -268l184 268h105z" />
    <glyph glyph-name="Y" unicode="Y" horiz-adv-x="493" 
d="M301 344l-64 -360h-94l64 360l-128 383h106l89 -268l184 268h105z" />
    <glyph glyph-name="Z" unicode="Z" horiz-adv-x="495" 
d="M118 78h310l-16 -94h-464l445 649h-294l16 94h448z" />
    <glyph glyph-name="underscore" unicode="_" horiz-adv-x="550" 
d="M-45 -85l17 94h470l-17 -94h-470z" />
    <glyph glyph-name="a" unicode="a" horiz-adv-x="414" 
d="M318 -16h-94l3 22q-45 -31 -86 -31q-64 0 -105.5 41.5t-41.5 103.5q0 15 3 30q12 74 74 118q56 41 129 41q40 0 72 -14q-5 47 -52 48t-62 -4q-23 -6 -37 -34h-97q39 83 94 111q41 21 119 21q67 0 101 -43q30 -37 30 -100q0 -24 -4 -49zM183 214q-39 0 -65 -19
q-29 -21 -29 -59q0 -29 19.5 -48t49.5 -19q36 0 66 28.5t30 64.5q0 52 -71 52z" />
    <glyph glyph-name="b" unicode="b" horiz-adv-x="493" 
d="M188 -25q-71 0 -121 42l-6 -33h-94l115 649h94l-42 -238q65 42 135 42q82 0 134 -54t52 -135q0 -21 -4 -42q-17 -95 -93.5 -163t-169.5 -68zM253 343q-62 0 -108.5 -50.5t-46.5 -112.5q0 -48 30 -79.5t77 -31.5q61 0 107.5 50.5t46.5 112.5q0 48 -30 79.5t-76 31.5z" />
    <glyph glyph-name="c" unicode="c" horiz-adv-x="468" 
d="M184 -25h-4h-5q-82 2 -127.5 53t-45.5 130q0 108 72 191q76 88 182 88h9q124 0 193 -154h-109q-40 60 -100 60h-9q-52 0 -91 -38.5t-49 -98.5q-3 -17 -3 -32q0 -45 23 -73.5t65 -31.5h5h6h2q63 1 123 60h110q-122 -151 -247 -154z" />
    <glyph glyph-name="d" unicode="d" horiz-adv-x="512" 
d="M318 -16l5 33q-64 -42 -135 -42q-82 0 -133.5 54t-51.5 135q0 21 3 42q17 95 94 163t169 68q71 0 121 -42l42 238h94l-114 -649h-94zM253 343q-62 0 -108.5 -50.5t-46.5 -112.5q0 -48 30 -79.5t77 -31.5q61 0 107.5 50.5t46.5 112.5q0 48 -30 79.5t-76 31.5z" />
    <glyph glyph-name="e" unicode="e" horiz-adv-x="491" 
d="M444 172h-347q1 -44 24 -72t64 -31h5h6h2q63 1 123 60h110q-122 -151 -247 -154h-4h-5q-82 2 -127.5 53t-45.5 130q0 108 72 191q76 88 182 88h9q83 0 137 -54t54 -134q0 -21 -5 -44zM249 343h-9q-77 0 -119 -77h234q-11 35 -39.5 56t-66.5 21z" />
    <glyph glyph-name="f" unicode="f" horiz-adv-x="291" 
d="M295 642q-66 0 -84 -98l-20 -116h103l-17 -94h-103l-61 -350h-95l62 350h-51l17 94h51l20 116q14 80 61 132q53 60 134 60q3 0 36 -1l-17 -95z" />
    <glyph glyph-name="g" unicode="g" horiz-adv-x="511" 
d="M448 191l-41 -235q-13 -75 -61 -123q-54 -54 -131 -54q-142 0 -162 173h96q16 -79 82 -79q67 0 85 104l6 34q-57 -36 -121 -36h-9q-83 0 -136 54.5t-53 136.5q0 20 3 40q17 95 95 162t173 69h4h5q64 -1 108 -36l5 27h94l-37 -208q-1 -9 -5 -29zM360 227q7 110 -93 116h-6
h-2h-3q-62 -3 -110 -51.5t-48 -109.5q0 -49 31 -81t80 -32h9q47 0 83.5 32t51.5 84z" />
    <glyph glyph-name="h" unicode="h" horiz-adv-x="407" 
d="M224 -16l51 290q1 7 1 12q0 52 -71 52q-81 0 -95 -79l-49 -275h-94l121 684h94l-44 -252q40 17 84 17q64 0 107 -34.5t43 -94.5q0 -14 -3 -29l-51 -291h-94z" />
    <glyph glyph-name="i" unicode="i" horiz-adv-x="171" 
d="M62 462l27 154h94l-27 -154h-94zM-23 -16l79 444h94l-79 -444h-94z" />
    <glyph glyph-name="j" unicode="j" horiz-adv-x="207" 
d="M98 462l27 154h94l-27 -154h-94zM-89 -221q-69 0 -113.5 45.5t-55.5 133.5h97q18 -85 88 -85q67 0 84 98l81 462h95l-82 -462q-14 -81 -60 -133q-54 -59 -134 -59z" />
    <glyph glyph-name="k" unicode="k" horiz-adv-x="402" 
d="M239 115q9 -37 79 -37l-17 -94q-146 0 -159 116q-31 4 -57 19l-24 -135h-94l121 684h94l-44 -252q40 17 84 17q64 0 107 -34.5t43 -94.5q0 -14 -3 -30q-9 -52 -45 -95t-85 -64zM205 338q-39 0 -66 -20t-27 -58q0 -29 19 -48t49 -19q36 0 66 28.5t30 64.5q0 52 -71 52z
" />
    <glyph glyph-name="l" unicode="l" horiz-adv-x="170" 
d="M-23 -16l121 684h93l-121 -684h-93z" />
    <glyph glyph-name="m" unicode="m" horiz-adv-x="608" 
d="M416 -17l51 291q1 6 1 12q0 52 -71 52q-31 0 -43 -17q-9 -12 -15 -48l-51 -290h-95l52 290q1 6 1 12q0 53 -71 53q-34 0 -48 -23q-9 -14 -17 -56l-49 -276h-94l78 445h95l-1 -3q24 7 53 7q70 0 112 -39q43 39 110 39q64 0 107 -34t43 -94q0 -14 -3 -30l-51 -291h-94z" />
    <glyph glyph-name="n" unicode="n" horiz-adv-x="386" 
d="M194 -16l51 290q1 7 1 12q0 52 -71 52q-34 0 -48 -22q-9 -14 -17 -57l-49 -275h-94l79 444h94l-1 -2q25 7 53 7q64 0 105 -33q45 -36 45 -96q0 -14 -3 -29l-51 -291h-94z" />
    <glyph glyph-name="o" unicode="o" horiz-adv-x="493" 
d="M188 -25q-82 0 -133.5 54t-51.5 135q0 21 3 42q17 95 94 163t169 68q82 0 134 -54t52 -135q0 -21 -4 -42q-17 -95 -93.5 -163t-169.5 -68zM253 343q-62 0 -108.5 -50.5t-46.5 -112.5q0 -48 30 -79.5t77 -31.5q61 0 107.5 50.5t46.5 112.5q0 48 -30 79.5t-76 31.5z" />
    <glyph glyph-name="p" unicode="p" horiz-adv-x="493" 
d="M188 -25q-71 0 -121 42l-42 -238h-94l114 649h95l-6 -33q65 42 135 42q82 0 134 -54t52 -135q0 -21 -4 -42q-17 -95 -93.5 -163t-169.5 -68zM253 343q-62 0 -108.5 -50.5t-46.5 -112.5q0 -48 30 -79.5t77 -31.5q61 0 107.5 50.5t46.5 112.5q0 48 -30 79.5t-76 31.5z" />
    <glyph glyph-name="q" unicode="q" horiz-adv-x="511" 
d="M281 -221l42 238q-64 -42 -135 -42q-82 0 -133.5 54t-51.5 135q0 21 3 42q17 95 94 163t169 68q71 0 121 -42l6 33h94l-114 -649h-95zM253 343q-62 0 -108.5 -50.5t-46.5 -112.5q0 -48 30 -79.5t77 -31.5q61 0 107.5 50.5t46.5 112.5q0 48 -30 79.5t-76 31.5z" />
    <glyph glyph-name="r" unicode="r" horiz-adv-x="220" 
d="M113 274l-52 -290h-94l79 444h94l-4 -20q51 25 85 25l-16 -95q-52 0 -69 -12.5t-23 -51.5z" />
    <glyph glyph-name="s" unicode="s" horiz-adv-x="332" 
d="M105 -25q-54 0 -86 38.5t-33 111.5h94q6 -56 41 -56q20 0 36 14t19 33q5 28 -17 42l-102 63l4 4q-23 27 -23 66q0 57 44.5 101.5t101.5 44.5q45 0 72 -31t27 -87q0 -15 -2 -31h-93q6 55 -21 55q-28 0 -33 -30q-4 -18 7 -25q80 -49 88 -56q44 -38 44 -89q0 -13 -2 -27
q-11 -58 -59.5 -99.5t-106.5 -41.5z" />
    <glyph glyph-name="t" unicode="t" horiz-adv-x="290" 
d="M174 334l-61 -350h-95l62 350h-51l17 94h51l28 163h95l-29 -163h103l-17 -94h-103z" />
    <glyph glyph-name="u" unicode="u" horiz-adv-x="389" 
d="M194 -16v2q-24 -7 -52 -7q-65 0 -106 33q-45 36 -45 96q0 14 3 29l52 291h94l-52 -290q-1 -7 -1 -13q0 -51 71 -51q34 0 49 22q8 14 16 57l49 275h94l-78 -444h-94z" />
    <glyph glyph-name="v" unicode="v" horiz-adv-x="431" 
d="M197 -16h-82l-82 444h100l52 -280l150 280h101z" />
    <glyph glyph-name="w" unicode="w" horiz-adv-x="491" 
d="M298 -16h-84l-1 152l-55 -152h-85l-36 444h97l12 -280l75 280h86l-23 -280l110 280h97z" />
    <glyph glyph-name="x" unicode="x" horiz-adv-x="382" 
d="M186 -16l-45 122l-87 -122h-107l159 222l-81 222h107l45 -122l87 122h107l-159 -222l81 -222h-107z" />
    <glyph glyph-name="y" unicode="y" horiz-adv-x="401" 
d="M105 -226q-69 0 -113.5 46t-54.5 134h97q17 -86 88 -86q66 0 83 99l4 19q-24 -7 -52 -7q-64 0 -107 34.5t-43 94.5q0 14 3 29l51 291h94l-51 -290q-1 -7 -1 -13q0 -51 71 -51q29 0 41.5 12t18.5 44l53 298h94l-81 -461q-15 -81 -61 -133q-53 -60 -134 -60z" />
    <glyph glyph-name="z" unicode="z" horiz-adv-x="369" 
d="M121 78h168l-17 -94h-325l250 350h-162l17 94h319z" />
    <glyph glyph-name="nonbreakingspace" unicode="&#xa0;" 
 />
    <glyph glyph-name="guillemotleft" unicode="&#xab;" 
 />
    <glyph glyph-name="hyphen" unicode="&#xad;" horiz-adv-x="299" 
d="M0 172l17 94h239l-16 -94h-240z" />
    <glyph glyph-name="macron" unicode="&#xaf;" horiz-adv-x="299" 
d="M0 172l17 94h239l-16 -94h-240z" />
    <glyph glyph-name="macron" unicode="&#x2c9;" horiz-adv-x="299" 
d="M0 172l17 94h239l-16 -94h-240z" />
    <glyph glyph-name="degree" unicode="&#xb0;" horiz-adv-x="269" 
d="M170 477q-37 0 -61 24t-24 59q0 47 36.5 82.5t83.5 35.5q37 0 60.5 -23.5t23.5 -59.5q0 -46 -36.5 -82t-82.5 -36zM194 614q-15 0 -27.5 -10.5t-15.5 -25.5t6 -26t24 -11t27.5 11t15.5 26q2 15 -6.5 25.5t-23.5 10.5z" />
    <glyph glyph-name="Agrave" unicode="&#xc0;" horiz-adv-x="518" 
d="M311 745l-73 108h102l73 -108h-102zM350 -16l-23 239h-165l-108 -239h-96l335 743h80l74 -743h-97zM297 522l-92 -205h112z" />
    <glyph glyph-name="Acircumflex" unicode="&#xc2;" horiz-adv-x="518" 
d="M367 751l-17 44l-33 -44h-84l92 102h70l54 -102h-82zM350 -16l-23 239h-165l-108 -239h-96l335 743h80l74 -743h-97zM297 522l-92 -205h112z" />
    <glyph glyph-name="Ccedilla" unicode="&#xc7;" horiz-adv-x="627" 
d="M343 -21l-18 -102h-95l18 102q-101 17 -161.5 100.5t-60.5 199.5q0 38 7 77q27 155 142.5 267.5t253.5 112.5q168 0 260 -203h-107q-62 109 -170 109q-97 0 -183 -83t-107 -203q-5 -31 -5 -60q0 -84 41 -144t107 -77l14 77h94l-14 -77q85 19 164 108h106
q-142 -181 -286 -204z" />
    <glyph glyph-name="Egrave" unicode="&#xc8;" horiz-adv-x="392" 
d="M255 758l-68 95h107l69 -95h-108zM-33 -16l131 743h368l-17 -94h-273l-32 -179h205l-16 -94h-205l-50 -282h273l-16 -94h-368z" />
    <glyph glyph-name="Eacute" unicode="&#xc9;" horiz-adv-x="392" 
d="M307 757h-110l102 96h111zM-33 -16l131 743h368l-17 -94h-273l-32 -179h205l-16 -94h-205l-50 -282h273l-16 -94h-368z" />
    <glyph glyph-name="Ecircumflex" unicode="&#xca;" horiz-adv-x="392" 
d="M312 757l-19 32l-31 -32h-94l101 96h70l67 -96h-94zM-33 -16l131 743h368l-17 -94h-273l-32 -179h205l-16 -94h-205l-50 -282h273l-16 -94h-368z" />
    <glyph glyph-name="Edieresis" unicode="&#xcb;" horiz-adv-x="393" 
d="M301 749l19 104h78l-19 -104h-78zM192 749l19 104h78l-19 -104h-78zM-33 -16l131 743h368l-17 -94h-273l-32 -179h205l-16 -94h-205l-50 -282h273l-16 -94h-368z" />
    <glyph glyph-name="Icircumflex" unicode="&#xce;" horiz-adv-x="225" 
d="M238 751l-18 34l-31 -34h-90l98 102h70l62 -102h-91zM31 -16l131 743h95l-132 -743h-94z" />
    <glyph glyph-name="Idieresis" unicode="&#xcf;" horiz-adv-x="199" 
d="M208 757l17 96h58l-16 -96h-59zM111 757l17 96h61l-17 -96h-61zM6 -16l131 743h94l-131 -743h-94z" />
    <glyph glyph-name="Ocircumflex" unicode="&#xd4;" horiz-adv-x="710" 
d="M459 764l-19 34l-31 -34h-107l115 105h70l78 -105h-106zM295 -25q-120 0 -194.5 87t-74.5 218q0 37 7 76q27 155 142.5 267.5t253.5 112.5q120 0 194.5 -87t74.5 -218q0 -37 -7 -75q-27 -156 -142.5 -268.5t-253.5 -112.5zM412 642q-95 0 -179.5 -83t-105.5 -203
q-6 -31 -6 -61q0 -99 54 -162.5t136 -63.5q96 0 180.5 83t105.5 204q5 31 5 60q0 99 -54 162.5t-136 63.5z" />
    <glyph glyph-name="Ugrave" unicode="&#xd9;" horiz-adv-x="532" 
d="M310 758l-64 95h107l64 -95h-107zM201 -25q-86 0 -142 55.5t-56 138.5q0 20 4 41l91 517h94l-91 -517q-2 -12 -2 -24q0 -50 33.5 -83.5t84.5 -33.5q59 0 107.5 41.5t58.5 99.5l91 517h95l-92 -517q-17 -97 -98 -166t-178 -69z" />
    <glyph glyph-name="Ucircumflex" unicode="&#xdb;" horiz-adv-x="532" 
d="M372 758l-19 34l-31 -34h-102l101 95h85l64 -95h-98zM201 -25q-86 0 -142 55.5t-56 138.5q0 20 4 41l91 517h94l-91 -517q-2 -12 -2 -24q0 -50 33.5 -83.5t84.5 -33.5q59 0 107.5 41.5t58.5 99.5l91 517h95l-92 -517q-17 -97 -98 -166t-178 -69z" />
    <glyph glyph-name="Udieresis" unicode="&#xdc;" horiz-adv-x="532" 
d="M356 744l19 109h75l-19 -109h-75zM243 744l19 109h74l-19 -109h-74zM201 -25q-86 0 -142 55.5t-56 138.5q0 20 4 41l91 517h94l-91 -517q-2 -12 -2 -24q0 -50 33.5 -83.5t84.5 -33.5q59 0 107.5 41.5t58.5 99.5l91 517h95l-92 -517q-17 -97 -98 -166t-178 -69z" />
    <glyph glyph-name="agrave" unicode="&#xe0;" horiz-adv-x="407" 
d="M194 459l-65 97h98l66 -97h-99zM318 -16h-94l3 20q-42 -28 -86 -28q-64 0 -105.5 41t-41.5 103q0 15 3 31q13 73 74 117q57 41 129 41q40 0 72 -13q-5 51 -51 51q-86 0 -110 -41h-97q57 131 223 131q67 0 102 -42q29 -37 29 -100q0 -24 -4 -50zM183 215q-39 0 -66 -20
t-27 -58q0 -29 19 -48t49 -19q36 0 66 28.5t30 64.5q0 52 -71 52z" />
    <glyph glyph-name="acircumflex" unicode="&#xe2;" horiz-adv-x="411" 
d="M259 459l-19 33l-30 -33h-107l114 97h74l67 -97h-99zM318 -16h-94l3 19q-58 -28 -86 -28q-64 0 -105.5 41.5t-41.5 103.5q0 15 3 30q12 74 74 118q56 41 129 41q40 0 72 -14q-3 25 -19.5 40.5t-40.5 15.5q-71 0 -99 -43h-97q53 73 104 102q48 27 117 27q67 0 101 -42
q30 -38 30 -101q0 -24 -4 -49zM183 215q-39 0 -65 -20q-29 -21 -29 -59q0 -28 19.5 -47.5t49.5 -19.5q36 0 66 28.5t30 65.5q0 52 -71 52z" />
    <glyph glyph-name="ccedilla" unicode="&#xe7;" horiz-adv-x="468" 
d="M228 -20l-16 -90h-94l16 90q-63 14 -98 64q-34 47 -34 115q0 107 74 192.5t181 85.5h8q124 0 194 -154h-110q-40 60 -100 60h-9q-51 0 -90.5 -38.5t-49.5 -98.5q-3 -16 -3 -31q0 -74 54 -98l7 41h95l-8 -41q37 13 76 52h110q-104 -129 -203 -149z" />
    <glyph glyph-name="egrave" unicode="&#xe8;" horiz-adv-x="490" 
d="M248 479l-79 109h110l79 -109h-110zM445 172h-348q1 -44 24 -72t64 -31h5h6h2q63 1 123 60h110q-122 -151 -247 -154h-4h-5q-84 2 -128.5 50t-44.5 133q0 108 72 191q76 88 183 88h8q83 0 137 -54t54 -133q0 -22 -5 -44zM249 343h-9q-77 0 -119 -77h234q-11 35 -39.5 56
t-66.5 21z" />
    <glyph glyph-name="eacute" unicode="&#xe9;" horiz-adv-x="491" 
d="M317 477h-103l117 111h103zM445 172h-348q1 -44 24 -72t64 -31h5h6h2q63 1 123 60h110q-122 -151 -247 -154h-4h-5q-84 2 -128.5 50t-44.5 133q0 108 72 191q76 88 183 88h8q83 0 137 -54t54 -134q0 -21 -5 -43zM249 343h-9q-77 0 -119 -77h234q-11 35 -39.5 56t-66.5 21
z" />
    <glyph glyph-name="ecircumflex" unicode="&#xea;" horiz-adv-x="491" 
d="M301 476l-19 34l-30 -34h-107l116 112h70l68 -112h-98zM445 172h-348q1 -44 24 -72t64 -31h5h6h2q63 1 123 60h110q-122 -151 -247 -154h-4h-5q-84 2 -128.5 50t-44.5 133q0 108 72 191q76 88 183 88h8q83 0 137 -54t54 -134q0 -21 -5 -43zM249 343h-9q-77 0 -119 -77
h234q-11 35 -39.5 56t-66.5 21z" />
    <glyph glyph-name="edieresis" unicode="&#xeb;" horiz-adv-x="491" 
d="M291 472l21 116h78l-21 -116h-78zM182 472l21 116h78l-21 -116h-78zM445 172h-348q1 -44 24 -72t64 -31h5h6h2q63 1 123 60h110q-122 -151 -247 -154h-4h-5q-84 2 -128.5 50t-44.5 133q0 108 72 191q76 88 183 88h8q83 0 137 -54t54 -134q0 -21 -5 -43zM249 343h-9
q-77 0 -119 -77h234q-11 35 -39.5 56t-66.5 21z" />
    <glyph glyph-name="icircumflex" unicode="&#xee;" horiz-adv-x="229" 
d="M199 528l-19 34l-31 -34h-104l129 128h46l84 -128h-105zM31 -16l79 444h94l-79 -444h-94z" />
    <glyph glyph-name="idieresis" unicode="&#xef;" horiz-adv-x="225" 
d="M164 528l23 128h78l-23 -128h-78zM55 528l23 128h78l-23 -128h-78zM6 -16l78 444h94l-78 -444h-94z" />
    <glyph glyph-name="ocircumflex" unicode="&#xf4;" horiz-adv-x="493" 
d="M298 459l-19 34l-31 -34h-104l112 100h70l76 -100h-104zM188 -25q-82 0 -133.5 54t-51.5 135q0 21 3 42q17 95 94 163t169 68q82 0 134 -54t52 -135q0 -21 -4 -42q-17 -95 -93.5 -163t-169.5 -68zM253 343q-62 0 -108.5 -50.5t-46.5 -112.5q0 -48 30 -79.5t77 -31.5
q61 0 107.5 50.5t46.5 112.5q0 48 -30 79.5t-76 31.5z" />
    <glyph glyph-name="ugrave" unicode="&#xf9;" horiz-adv-x="387" 
d="M190 460l-67 96h98l67 -96h-98zM194 -16v2q-24 -7 -52 -7q-65 0 -106 34q-44 35 -44 95q0 14 2 30l52 290h94l-51 -290q-2 -6 -2 -12q0 -52 71 -52q34 0 49 22q8 14 16 57l49 275h94l-78 -444h-94z" />
    <glyph glyph-name="ucircumflex" unicode="&#xfb;" horiz-adv-x="383" 
d="M238 464l-19 34l-31 -34h-88l93 92h70l60 -92h-85zM194 -16v2q-24 -7 -52 -7q-65 0 -106 34q-44 35 -44 95q0 14 2 30l52 290h94l-51 -290q-2 -6 -2 -12q0 -52 71 -52q34 0 49 22q8 14 16 57l49 275h94l-78 -444h-94z" />
    <glyph glyph-name="udieresis" unicode="&#xfc;" horiz-adv-x="383" 
d="M229 461l17 95h62l-17 -95h-62zM122 461l17 95h65l-17 -95h-65zM194 -16v2q-24 -7 -52 -7q-65 0 -106 34q-44 35 -44 95q0 14 2 30l52 290h94l-51 -290q-2 -6 -2 -12q0 -52 71 -52q34 0 49 22q8 14 16 57l49 275h94l-78 -444h-94z" />
    <glyph glyph-name="OE" unicode="&#x152;" horiz-adv-x="956" 
d="M531 -16l19 105q-117 -114 -255 -114q-120 0 -194.5 87t-74.5 218q0 37 7 76q27 155 142.5 267.5t253.5 112.5t215 -114l18 105h368l-17 -94h-273l-32 -179h205l-16 -94h-205l-50 -282h274l-17 -94h-368zM412 642q-95 0 -179.5 -83t-105.5 -203q-6 -31 -6 -61
q0 -99 54 -162.5t136 -63.5q96 0 180.5 83t105.5 204q5 31 5 60q0 99 -54 162.5t-136 63.5z" />
    <glyph glyph-name="oe" unicode="&#x153;" horiz-adv-x="841" 
d="M794 172h-347q1 -44 24 -72t64 -31h5h6h2q63 1 123 60h110q-122 -151 -247 -154h-4h-5q-105 2 -150 85q-81 -85 -187 -85q-82 0 -133.5 54t-51.5 135q0 21 3 42q17 95 94 163t169 68q106 0 158 -85q75 85 179 85h9q83 0 137 -54t54 -134q0 -21 -5 -44zM599 343h-9
q-77 0 -119 -77h234q-11 35 -39.5 56t-66.5 21zM253 343q-62 0 -108.5 -50.5t-46.5 -112.5q0 -48 30 -79.5t77 -31.5q60 0 102 45q38 40 51 101q6 54 -24.5 91t-80.5 37z" />
    <glyph glyph-name="Scaron" unicode="&#x160;" 
 />
    <glyph glyph-name="endash" unicode="&#x2013;" horiz-adv-x="299" 
d="M0 172l17 94h239l-16 -94h-240z" />
    <glyph glyph-name="bullet" unicode="&#x2022;" horiz-adv-x="266" 
d="M97 112q-40 0 -65 25t-25 63q0 50 39 88t88 38q40 0 65 -25.5t25 -63.5q0 -49 -39 -87t-88 -38z" />
    <glyph glyph-name="ellipsis" unicode="&#x2026;" horiz-adv-x="498" 
d="M297 -16l28 162h78l-28 -162h-78zM146 -16l28 162h78l-29 -162h-77zM-3 -16l29 162h79l-29 -162h-79z" />
    <glyph glyph-name="Euro" unicode="&#x20ac;" horiz-adv-x="731" 
d="M393 -25q-115 0 -188.5 80t-80.5 202h-109l14 78h98l7 41h-98l14 78h109q50 122 150 201q104 81 218 81q168 0 260 -203h-107q-62 109 -170 109q-75 0 -146.5 -52t-111.5 -136h123l-14 -78h-138l-7 -41h138l-14 -78h-123q11 -84 64 -136t128 -52q111 0 212 114h106
q-163 -208 -334 -208z" />
    <glyph glyph-name="minus" unicode="&#x2212;" horiz-adv-x="299" 
d="M0 172l17 94h239l-16 -94h-240z" />
    <glyph glyph-name="glyph94" 
 />
    <glyph glyph-name="glyph95" 
 />
    </font>
</defs>
</svg>
