<?xml version="1.0" standalone="no"?>
<!DOCTYPE svg PUBLIC "-//W3C//DTD SVG 1.1//EN" "http://www.w3.org/Graphics/SVG/1.1/DTD/svg11.dtd" >
<svg xmlns="http://www.w3.org/2000/svg" xmlns:xlink="http://www.w3.org/1999/xlink" version="1.1">
<metadata>
Created by FontForge 20201107 at Tue Jan 17 21:18:01 2012
 By 
Generated by Fontographer 4.7
</metadata>
<defs>
<font id="SornetteRegularItalique" horiz-adv-x="171" >
  <font-face 
    font-family="Sornette"
    font-weight="400"
    font-style="italic"
    font-stretch="normal"
    units-per-em="1000"
    panose-1="0 0 4 0 0 0 0 0 0 0"
    ascent="800"
    descent="-200"
    x-height="413"
    cap-height="712"
    bbox="-240 -211 1012 842"
    underline-thickness="20"
    underline-position="-143"
    unicode-range="U+0020-2212"
  />
<missing-glyph horiz-adv-x="500" 
d="M63 0v800h375v-800h-375zM125 63h250v675h-250v-675z" />
    <glyph glyph-name=".notdef" horiz-adv-x="500" 
d="M63 0v800h375v-800h-375zM125 63h250v675h-250v-675z" />
    <glyph glyph-name=".null" horiz-adv-x="0" 
 />
    <glyph glyph-name="nonmarkingreturn" 
 />
    <glyph glyph-name="space" unicode=" " 
 />
    <glyph glyph-name="exclam" unicode="!" horiz-adv-x="118" 
d="M19 185l92 527h64l-92 -527h-64zM-15 -1l23 132h64l-23 -132h-64z" />
    <glyph glyph-name="quotedbl" unicode="&#x22;" horiz-adv-x="344" 
d="M187 469l37 209h64l-37 -209h-64zM68 469l37 209h64l-37 -209h-64z" />
    <glyph glyph-name="percent" unicode="%" horiz-adv-x="400" 
d="M214 494q-37 0 -60.5 24t-23.5 59q0 47 36.5 82.5t83.5 35.5q36 0 60 -23.5t24 -59.5q0 -46 -36.5 -82t-83.5 -36zM48 -1h-73l491 713h74zM249 16q-36 0 -60 23.5t-24 59.5q0 46 36.5 82t83.5 36q37 0 60.5 -24t23.5 -59q0 -47 -36.5 -82.5t-83.5 -35.5zM238 631
q-15 0 -27.5 -10.5t-14.5 -25.5q-3 -15 5.5 -25.5t23.5 -10.5t27.5 10.5t15.5 25.5t-6 25.5t-24 10.5zM273 153q-15 0 -27.5 -11t-14.5 -26q-3 -15 6 -25.5t24 -10.5t27.5 10.5t14.5 25.5q3 15 -5.5 26t-24.5 11z" />
    <glyph glyph-name="ampersand" unicode="&#x26;" horiz-adv-x="556" 
d="M427 -1l-55 85q-76 -97 -189 -97q-74 0 -121 47t-47 118q0 64 36.5 122t94.5 85l35 21l-52 80q-20 41 -11 93q12 68 67.5 117t122.5 51h2h6q59 0 99.5 -39.5t40.5 -99.5q0 -107 -109 -172l-73 -44l100 -156l123 231h68l-153 -289l99 -153h-84zM195 485q9 -11 46 -69
l91 53q57 41 59 100l3 -4q-16 18 -21 44t-11 33q-13 13 -53 14h-5h-3q-41 -1 -76 -31.5t-42 -71.5q-6 -34 12 -67v-1zM336 139l-123 191q-19 -12 -58 -36q-61 -44 -72 -107q-2 -12 -2 -24q0 -48 32 -80t81 -32q43 0 82 24.5t60 63.5z" />
    <glyph glyph-name="quotesingle" unicode="'" horiz-adv-x="203" 
d="M133 460h-77l124 175h77z" />
    <glyph glyph-name="parenleft" unicode="(" horiz-adv-x="290" 
d="M34 276q29 164 108 280q93 136 219 136q12 -14 4 -64h-16q-123 2 -200 -181q-63 -148 -63 -297q0 -102 32 -161q37 -66 107 -66q12 -14 4 -64q-107 0 -161 88q-46 75 -46 202q0 62 12 127z" />
    <glyph glyph-name="parenright" unicode=")" horiz-adv-x="319" 
d="M-24 -141q-12 14 -5 64h17q122 -2 200 181q62 148 62 298q0 101 -32 160q-36 66 -106 66q-13 14 -5 64h16q99 2 149 -85q43 -75 43 -200q0 -65 -12 -131q-29 -165 -108 -281q-94 -136 -219 -136z" />
    <glyph glyph-name="asterisk" unicode="*" horiz-adv-x="236" 
d="M222 504l-35 28l-8 -48h-34l8 48l-44 -28l-15 28l52 33l-41 33l25 28l35 -28l8 48h34l-8 -48l44 28l15 -28l-52 -33l41 -33z" />
    <glyph glyph-name="plus" unicode="+" horiz-adv-x="339" 
d="M202 187l-21 -120h-65l22 120h-120l11 64h120l21 120h64l-21 -120h120l-12 -64h-119z" />
    <glyph glyph-name="comma" unicode="," horiz-adv-x="206" 
d="M38 -78h-77l124 175h77z" />
    <glyph glyph-name="period" unicode="." horiz-adv-x="119" 
d="M-15 -1l23 132h64l-23 -132h-64z" />
    <glyph glyph-name="slash" unicode="/" horiz-adv-x="442" 
d="M47 -1h-72l489 713h72z" />
    <glyph glyph-name="zero" unicode="0" horiz-adv-x="491" 
d="M462 210q-16 -91 -91.5 -155.5t-167.5 -64.5q-80 0 -132 52t-52 130q0 19 3 38l51 291q16 91 92 155.5t167 64.5q81 0 133 -51.5t52 -129.5q0 -19 -3 -39zM398 210l51 291q3 14 3 27q0 55 -37 92t-94 37q-65 0 -118.5 -46t-64.5 -110l-52 -291q-2 -14 -2 -27
q0 -55 37 -92t94 -37q64 0 118 46t65 110z" />
    <glyph glyph-name="one" unicode="1" horiz-adv-x="311" 
d="M178 -1l108 610l-157 -166h-81l255 269h65l-126 -713h-64z" />
    <glyph glyph-name="two" unicode="2" horiz-adv-x="428" 
d="M-15 -1l9 49l3 -12q1 19 361 440q32 38 32 84q0 41 -28 69t-71 28q-44 0 -82 -30.5t-55 -80.5h-65q24 78 83.5 126.5t130.5 48.5q66 0 109 -43t43 -107q0 -73 -57 -140l-317 -368h313l-11 -64h-398z" />
    <glyph glyph-name="three" unicode="3" horiz-adv-x="468" 
d="M191 -10q-74 0 -123.5 47t-58.5 128h66q9 -51 43.5 -81t83.5 -30q71 0 126.5 54t55.5 125q0 51 -33 86.5t-85 38.5q-4 0 -23 -1l12 65q60 1 106 40t46 98q0 41 -27.5 69t-70.5 28q-45 0 -83 -30.5t-55 -80.5h-64q24 78 83.5 126.5t129.5 48.5q67 0 110 -43t43 -107
q0 -53 -28.5 -100.5t-74.5 -77.5q79 -50 79 -149q0 -19 -4 -38q-16 -89 -90 -152.5t-164 -63.5z" />
    <glyph glyph-name="four" unicode="4" horiz-adv-x="483" 
d="M368 135l-24 -136h-64l24 136h-305l408 577h64q-4 -23 -92 -512h86l-11 -65h-86zM381 573l-264 -373h198z" />
    <glyph glyph-name="five" unicode="5" horiz-adv-x="452" 
d="M191 -10q-74 0 -123.5 47t-58.5 128h66q9 -51 43.5 -81t83.5 -30q70 0 129 67q57 64 57 135q0 59 -35.5 102t-88.5 43q-90 0 -153 -86h-63q5 29 72 397h389l-11 -64h-325l-41 -231q67 48 143 48q78 0 129 -61q48 -57 48 -137q0 -100 -81 -188.5t-180 -88.5z" />
    <glyph glyph-name="six" unicode="6" horiz-adv-x="461" 
d="M23 151v0l64 361q17 96 82 152.5t155 56.5q69 0 115.5 -46.5t58.5 -128.5h-67q-24 111 -119 111q-60 0 -112.5 -50.5t-65.5 -122.5l-15 -86q74 67 159 67q78 0 126 -55t48 -137q0 -22 -4 -46q-17 -97 -91 -167t-162 -70q-70 0 -116.5 45t-55.5 116zM267 400
q-60 0 -112.5 -50t-65.5 -123q-3 -18 -3 -35q0 -60 34 -99t86 -39q60 0 112.5 50.5t65.5 122.5q3 18 3 36q0 60 -34 98.5t-86 38.5z" />
    <glyph glyph-name="seven" unicode="7" horiz-adv-x="404" 
d="M343 422h97l-12 -64h-129l-247 -359h-73l247 359h-101l11 64h134l156 226h-327l12 64h432z" />
    <glyph glyph-name="eight" unicode="8" horiz-adv-x="475" 
d="M199 -10q-79 0 -130 51t-51 127q0 69 41 132q40 60 103 93q-51 43 -51 115q0 84 66.5 148.5t150.5 64.5q67 0 109.5 -43t42.5 -107q0 -53 -28 -100.5t-74 -77.5q78 -50 78 -149q0 -19 -3 -38q-16 -89 -90 -152.5t-164 -63.5zM317 657q-55 0 -97.5 -42t-42.5 -96
q0 -42 27.5 -69.5t70.5 -27.5q55 0 97.5 42t42.5 96q0 41 -27.5 69t-70.5 28zM274 358h-10h-10q-68 -5 -120 -58t-52 -121q0 -54 36 -89.5t92 -35.5q71 0 126.5 54t55.5 125q0 51 -33 86t-85 39z" />
    <glyph glyph-name="nine" unicode="9" horiz-adv-x="475" 
d="M194 -18q-70 0 -116.5 46.5t-58.5 128.5h67q24 -111 119 -111q60 0 112.5 50t65.5 123l17 95q-74 -67 -160 -67q-77 0 -125.5 54.5t-48.5 136.5q0 22 4 46q18 97 92 167t162 70q77 0 125.5 -54.5t48.5 -136.5q0 -23 -4 -46l-47 -265q-6 -95 -84.5 -166t-168.5 -71z
M313 657q-61 0 -113.5 -50.5t-65.5 -122.5q-3 -18 -3 -36q0 -60 34 -98.5t87 -38.5q60 0 112.5 50t65.5 123q3 18 3 35q0 60 -34 99t-86 39z" />
    <glyph glyph-name="colon" unicode=":" horiz-adv-x="115" 
d="M13 158l20 116h65l-21 -116h-64zM-15 -1l20 115h64l-20 -115h-64z" />
    <glyph glyph-name="semicolon" unicode=";" horiz-adv-x="203" 
d="M92 141l23 133h65l-24 -133h-64zM38 -78h-77l124 175h77z" />
    <glyph glyph-name="less" unicode="&#x3c;" horiz-adv-x="449" 
d="M19 192l11 61l441 150l-12 -69l-330 -112l290 -111l-12 -69z" />
    <glyph glyph-name="equal" unicode="=" horiz-adv-x="338" 
d="M34 278l11 64h304l-11 -64h-304zM9 135l11 65h304l-12 -65h-303z" />
    <glyph glyph-name="greater" unicode="&#x3e;" horiz-adv-x="433" 
d="M-8 42l13 69l329 111l-290 112l12 69l388 -150l-11 -61z" />
    <glyph glyph-name="question" unicode="?" horiz-adv-x="366" 
d="M226 229l-15 -86h-64l16 93q4 19 25 51l5 8q102 123 155 181q32 37 32 84q0 41 -28 69t-71 28q-44 0 -82.5 -30.5t-55.5 -80.5h-64q24 78 83.5 126.5t129.5 48.5q67 0 110 -43t43 -107q0 -73 -58 -140l-148 -173q-9 -11 -13 -29zM124 -1l19 108h64l-19 -108h-64z" />
    <glyph glyph-name="at" unicode="@" horiz-adv-x="664" 
d="M441 259q-11 99 -73 99q-85 0 -127 -76h-66q66 140 205 140q118 0 118 -132q0 -22 -4 -45v0l-41 -231q-2 -15 6.5 -26t23.5 -11q17 0 33 11.5t18 25.5l35 196q7 38 7 73q0 102 -51 165t-136 63q-102 0 -191.5 -87.5t-111.5 -213.5q-5 -32 -5 -63q0 -103 57 -170.5
t145 -67.5q45 0 97 35l-13 -74q-49 -30 -131 -30q-107 0 -166 79q-57 75 -57 197q0 46 9 94q27 151 137.5 258.5t241.5 107.5q111 0 176 -82q64 -78 64 -202q0 -40 -8 -82l-34 -196q-8 -42 -46.5 -71.5t-80.5 -29.5q-37 0 -60.5 24t-23.5 59q0 9 1 18l2 8q-49 -32 -102 -32
q-59 0 -97 38t-38 94q0 14 3 28q11 66 66 106q52 38 119 38q61 0 99 -35zM331 229q-46 0 -78.5 -25t-32.5 -70q0 -34 22.5 -57t57.5 -23q44 0 79.5 34t35.5 77q0 64 -84 64z" />
    <glyph glyph-name="A" unicode="A" horiz-adv-x="480" 
d="M153 238l-108 -239h-65l322 713h57l71 -713h-66l-23 239h-188zM307 579l-125 -277h152z" />
    <glyph glyph-name="B" unicode="B" horiz-adv-x="418" 
d="M137 -1h-152l126 713h151q61 0 99.5 -38.5t38.5 -96.5q0 -95 -84 -156q88 -51 88 -159q0 -19 -4 -39q-16 -93 -93.5 -158.5t-169.5 -65.5zM251 648h-88l-35 -201h88q46 0 82.5 36t36.5 82q0 36 -23.5 59.5t-60.5 23.5zM204 383h-87l-57 -320h88q74 0 132.5 57t58.5 131
q0 57 -38 94.5t-97 37.5z" />
    <glyph glyph-name="C" unicode="C" horiz-adv-x="602" 
d="M297 -12q-114 0 -185 83t-71 209q0 36 6 73q27 151 137.5 258.5t241.5 107.5q160 0 238 -173h-72q-62 109 -177 109q-105 0 -195.5 -88t-112.5 -214q-6 -31 -6 -62q0 -103 58.5 -171t148.5 -68q119 0 220 113h71q-139 -177 -302 -177z" />
    <glyph glyph-name="D" unicode="D" horiz-adv-x="485" 
d="M120 -1h-135l126 713h158q103 0 168 -83q62 -80 62 -200q0 -37 -7 -73q-25 -147 -134 -252t-238 -105zM242 649h-78l-104 -586h71q103 0 192 85.5t111 208.5q5 30 5 59q0 99 -55 164.5t-142 68.5z" />
    <glyph glyph-name="E" unicode="E" horiz-adv-x="365" 
d="M-15 -1l126 713h337l-11 -64h-274l-36 -209h205l-12 -64h-205l-55 -312h274l-12 -64h-337z" />
    <glyph glyph-name="F" unicode="F" horiz-adv-x="361" 
d="M163 648l-36 -209h205l-12 -64h-205l-66 -376h-64l126 713h337l-11 -64h-274z" />
    <glyph glyph-name="G" unicode="G" horiz-adv-x="664" 
d="M297 -10q-113 0 -184.5 83t-71.5 209q0 36 7 74q26 150 136.5 257.5t241.5 107.5q161 0 239 -175h-72q-61 111 -178 111q-105 0 -195.5 -88t-112.5 -213q-6 -32 -6 -62q0 -104 58.5 -172t149.5 -68q101 0 189.5 83t115.5 203h-261l11 64h321l-9 -49
q-27 -150 -137.5 -257.5t-241.5 -107.5z" />
    <glyph glyph-name="H" unicode="H" horiz-adv-x="426" 
d="M292 -1l64 359h-244l-63 -359h-64l126 713h64l-51 -290h243l51 290h64l-125 -713h-65z" />
    <glyph glyph-name="I" unicode="I" horiz-adv-x="145" 
d="M14 -1l125 713h65l-126 -713h-64z" />
    <glyph glyph-name="J" unicode="J" horiz-adv-x="440" 
d="M176 -10q-70 0 -116 45t-46 112q0 18 3 36l4 17h64l-4 -17q-2 -13 -2 -25q0 -44 31 -74t77 -30q54 0 98 38t54 91l93 529h64l-93 -527q-14 -80 -80.5 -137.5t-146.5 -57.5z" />
    <glyph glyph-name="K" unicode="K" horiz-adv-x="429" 
d="M313 -1l-153 369l-56 -60l-55 -309h-64l126 713h64l-53 -298l283 298h81l-275 -290l176 -423h-74z" />
    <glyph glyph-name="L" unicode="L" horiz-adv-x="347" 
d="M-15 -1l126 713h64l-115 -649h274l-12 -64h-337z" />
    <glyph glyph-name="M" unicode="M" horiz-adv-x="561" 
d="M428 -1l87 495l-246 -495h-61l-72 495l-87 -495h-64l126 713h61l86 -594l296 594h64l-126 -713h-64z" />
    <glyph glyph-name="N" unicode="N" horiz-adv-x="456" 
d="M325 -1l-177 564l-99 -564h-64l126 713h62l177 -563l99 563h64l-126 -713h-62z" />
    <glyph glyph-name="O" unicode="O" horiz-adv-x="669" 
d="M297 -10q-113 0 -184.5 83t-71.5 209q0 36 7 74q26 150 136.5 257.5t241.5 107.5q114 0 185.5 -83t71.5 -209q0 -36 -7 -73q-27 -151 -137.5 -258.5t-241.5 -107.5zM415 657q-103 0 -192 -88t-111 -213q-6 -33 -6 -64q0 -103 57 -170.5t146 -67.5q102 0 191.5 88
t111.5 214q5 32 5 63q0 103 -57 170.5t-145 67.5z" />
    <glyph glyph-name="P" unicode="P" horiz-adv-x="376" 
d="M191 306h-88l-54 -307h-64l126 713h151q75 0 123 -47.5t48 -119.5q0 -94 -74 -166.5t-168 -72.5zM251 648h-88l-48 -277h87q65 0 115.5 49t50.5 114q0 49 -33 81.5t-84 32.5z" />
    <glyph glyph-name="Q" unicode="Q" horiz-adv-x="670" 
d="M478 48l49 -118h-75l-35 85q-60 -25 -120 -25q-113 0 -184.5 83t-71.5 209q0 36 7 74q26 150 136.5 257.5t241.5 107.5q114 0 185.5 -83t71.5 -209q0 -36 -7 -73q-17 -95 -70 -176.5t-128 -131.5zM415 657q-103 0 -192 -88t-111 -213q-6 -33 -6 -64q0 -103 57 -170.5
t146 -67.5q42 0 85 17l-57 137h75l43 -104q128 89 157 252q5 32 5 63q0 103 -57 170.5t-145 67.5z" />
    <glyph glyph-name="R" unicode="R" horiz-adv-x="411" 
d="M284 -1l-121 307h-60l-54 -307h-64l126 713h151q75 0 123 -47.5t48 -119.5q0 -82 -58.5 -149.5t-139.5 -84.5l123 -312h-74zM251 648h-88l-48 -277h87q65 0 115.5 49t50.5 114q0 49 -33 81.5t-84 32.5z" />
    <glyph glyph-name="S" unicode="S" horiz-adv-x="435" 
d="M177 -12q-151 0 -170 167h67q18 -102 114 -102q62 0 111.5 48t49.5 109q0 59 -45 93l-143 109q-58 44 -58 115q0 77 61 136.5t139 59.5q71 0 109 -49q34 -44 30 -116h-65q2 100 -86 100q-47 0 -84.5 -36t-37.5 -83q0 -46 29 -68l148 -110q69 -52 69 -138q0 -17 -3 -34
q-14 -83 -83 -142t-152 -59z" />
    <glyph glyph-name="T" unicode="T" horiz-adv-x="395" 
d="M317 648l-114 -649h-64l114 649h-154l12 64h371l-11 -64h-154z" />
    <glyph glyph-name="U" unicode="U" horiz-adv-x="493" 
d="M203 -10q-80 0 -132 52t-52 130q0 19 3 38l89 502h64l-89 -502q-2 -14 -2 -27q0 -55 37 -92t94 -37q64 0 118 46t65 110l89 502h64l-89 -502q-16 -93 -91.5 -156.5t-167.5 -63.5z" />
    <glyph glyph-name="V" unicode="V" horiz-adv-x="455" 
d="M224 -1h-60l-58 713h67l46 -572l249 572h66z" />
    <glyph glyph-name="W" unicode="W" horiz-adv-x="733" 
d="M502 -1h-61l-13 538l-203 -538h-61l-58 713h67l45 -557l210 557h61l14 -557l242 557h67z" />
    <glyph glyph-name="X" unicode="X" horiz-adv-x="463" 
d="M338 -1l-95 286l-196 -286h-72l245 357l-119 356h72l95 -286l196 286h72l-244 -356l118 -357h-72z" />
    <glyph glyph-name="Y" unicode="Y" horiz-adv-x="449" 
d="M287 348l-62 -349h-64l61 349l-121 364h72l95 -286l196 286h72z" />
    <glyph glyph-name="Z" unicode="Z" horiz-adv-x="449" 
d="M91 63h320l-12 -64h-424l445 649h-304l12 64h408z" />
    <glyph glyph-name="underscore" unicode="_" horiz-adv-x="507" 
d="M-27 -70l11 64h440l-11 -64h-440z" />
    <glyph glyph-name="a" unicode="a" horiz-adv-x="373" 
d="M287 269q7 89 -64 89q-82 0 -123 -74h-66q65 138 200 138q119 0 119 -130q0 -23 -4 -47l-44 -246h-64l4 23q-48 -32 -101 -32q-59 0 -97 38t-38 94q0 14 3 28q11 66 66 106q52 38 119 38q54 0 90 -25zM186 229q-47 0 -78 -24q-34 -26 -34 -71q0 -34 23 -57t58 -23
q44 0 79 34t35 77q0 64 -83 64z" />
    <glyph glyph-name="b" unicode="b" horiz-adv-x="458" 
d="M191 -10q-83 0 -133 60l-9 -51h-64l109 619h64l-45 -256q71 60 154 60q76 0 124 -50.5t48 -126.5q0 -19 -3 -39q-16 -89 -87.5 -152.5t-157.5 -63.5zM255 358q-68 0 -120 -55.5t-52 -124.5q0 -53 33.5 -88.5t85.5 -35.5q68 0 120 55.5t52 124.5q0 53 -33.5 88.5
t-85.5 35.5z" />
    <glyph glyph-name="c" unicode="c" horiz-adv-x="416" 
d="M191 -10h-8h-10q-74 2 -116 52q-40 47 -40 119q0 101 67 179q70 82 170 82h9q115 0 171 -124h-76q-39 60 -107 60h-8q-59 0 -103 -43.5t-55 -108.5q-3 -18 -3 -34q0 -50 25 -81q26 -34 74 -37h6h6h7q66 1 125 60h77q-98 -121 -211 -124z" />
    <glyph glyph-name="d" unicode="d" horiz-adv-x="469" 
d="M335 -1l9 51q-70 -60 -153 -60q-76 0 -124.5 50.5t-48.5 126.5q0 19 3 39q16 89 88 152.5t158 63.5q83 0 132 -60l45 256h65l-109 -619h-65zM255 358q-68 0 -120 -55.5t-52 -124.5q0 -53 33.5 -88.5t85.5 -35.5q68 0 120 55.5t52 124.5q0 53 -33.5 88.5t-85.5 35.5z" />
    <glyph glyph-name="e" unicode="e" horiz-adv-x="450" 
d="M433 187h-351q-4 -56 22 -93t77 -40h6h6h7q66 1 125 60h77q-98 -121 -211 -124h-8h-10q-74 2 -116 52q-40 47 -40 119q0 101 67 179q70 82 170 82h9q77 0 127.5 -50.5t50.5 -124.5q0 -21 -5 -41zM251 358h-8q-48 0 -86.5 -29.5t-58.5 -77.5h276q-6 47 -39.5 77t-83.5 30z
" />
    <glyph glyph-name="f" unicode="f" horiz-adv-x="257" 
d="M298 657q-82 0 -102 -113l-23 -131h103l-11 -64h-103l-62 -350h-64l62 350h-51l11 64h51l23 131q14 76 56 123q48 54 121 54q3 0 21 -1l-11 -64z" />
    <glyph glyph-name="g" unicode="g" horiz-adv-x="468" 
d="M331 -23l12 66q-63 -53 -139 -53h-9q-78 0 -127.5 51t-49.5 127q0 97 76 174t172 80h9h10q72 -2 116 -53l7 44h64l-34 -193l-46 -264q-12 -69 -56 -114q-49 -48 -119 -48q-62 0 -103.5 39.5t-49.5 109.5h66q18 -85 99 -85t102 119zM376 227q3 55 -23 91.5t-77 39.5h-6h-6
h-6q-105 -4 -160 -111q-16 -30 -16 -68q0 -53 35 -89t89 -36h9q54 0 95.5 36.5t57.5 93.5z" />
    <glyph glyph-name="h" unicode="h" horiz-adv-x="372" 
d="M242 -1l48 275q2 8 2 15q0 64 -84 64q-96 0 -113 -94l-46 -260h-64l115 654h64l-46 -261q46 26 101 26q60 0 99 -31.5t39 -85.5q0 -13 -3 -26l-48 -276h-64z" />
    <glyph glyph-name="i" unicode="i" horiz-adv-x="127" 
d="M79 477l22 124h64l-22 -124h-64zM-5 -1l73 414h64l-73 -414h-64z" />
    <glyph glyph-name="j" unicode="j" horiz-adv-x="161" 
d="M115 477l22 124h64l-22 -124h-64zM-87 -206q-62 0 -103.5 39.5t-49.5 109.5h66q18 -85 99 -85t101 113l79 447h64l-79 -447q-13 -76 -56 -124q-48 -53 -121 -53z" />
    <glyph glyph-name="k" unicode="k" horiz-adv-x="365" 
d="M156 114q-48 3 -81 32l-26 -147h-64l115 654h64l-46 -261q46 26 101 26q60 0 99 -31.5t39 -85.5q0 -58 -39.5 -108.5t-96.5 -69.5q6 -60 79 -60l-11 -64q-64 0 -99 33q-31 30 -34 82zM208 353q-46 0 -78 -24q-33 -27 -33 -71q0 -35 22.5 -57.5t57.5 -22.5q44 0 79.5 34
t35.5 77q0 64 -84 64z" />
    <glyph glyph-name="l" unicode="l" horiz-adv-x="126" 
d="M-5 -1l115 654h63l-115 -654h-63z" />
    <glyph glyph-name="m" unicode="m" horiz-adv-x="563" 
d="M498 -2h-65l49 276q1 8 1 15q0 64 -83 64q-36 0 -52 -18t-24 -62l-49 -275h-64l49 275q1 8 1 15q0 65 -83 65q-38 0 -55.5 -20.5t-27.5 -73.5l-46 -261h-64l73 415h64l-2 -10q30 14 69 14q75 0 113 -45q39 45 109 45q60 0 99 -31t39 -85q0 -13 -3 -27z" />
    <glyph glyph-name="n" unicode="n" horiz-adv-x="341" 
d="M275 -1h-64l49 275q1 8 1 15q0 64 -83 64q-38 0 -55.5 -20t-27.5 -74l-46 -260h-64l73 414h64l-2 -9q30 14 69 14q60 0 99 -31t39 -85q0 -13 -3 -27z" />
    <glyph glyph-name="o" unicode="o" horiz-adv-x="467" 
d="M191 -10q-76 0 -124.5 50.5t-48.5 126.5q0 19 3 39q16 89 88 152.5t158 63.5q76 0 124 -50.5t48 -126.5q0 -19 -3 -39q-16 -89 -87.5 -152.5t-157.5 -63.5zM255 358q-68 0 -120 -55.5t-52 -124.5q0 -53 33.5 -88.5t85.5 -35.5q68 0 120 55.5t52 124.5q0 53 -33.5 88.5
t-85.5 35.5z" />
    <glyph glyph-name="p" unicode="p" horiz-adv-x="457" 
d="M191 -10q-83 0 -133 60l-45 -256h-64l109 619h64l-9 -51q71 60 154 60q76 0 124 -50.5t48 -126.5q0 -19 -3 -39q-16 -89 -87.5 -152.5t-157.5 -63.5zM255 358q-68 0 -120 -55.5t-52 -124.5q0 -53 33.5 -88.5t85.5 -35.5q68 0 120 55.5t52 124.5q0 53 -33.5 88.5
t-85.5 35.5z" />
    <glyph glyph-name="q" unicode="q" horiz-adv-x="474" 
d="M299 -206l45 256q-70 -60 -153 -60q-76 0 -124.5 50.5t-48.5 126.5q0 19 3 39q16 89 88 152.5t158 63.5q83 0 132 -60l9 51h64l-109 -619h-64zM255 358q-68 0 -120 -55.5t-52 -124.5q0 -53 33.5 -88.5t85.5 -35.5q68 0 120 55.5t52 124.5q0 53 -33.5 88.5t-85.5 35.5z
" />
    <glyph glyph-name="r" unicode="r" horiz-adv-x="186" 
d="M98 274l-49 -275h-64l73 414h64l-4 -25q31 30 86 30l-12 -65q-47 0 -67 -17.5t-27 -61.5z" />
    <glyph glyph-name="s" unicode="s" horiz-adv-x="292" 
d="M107 -10q-47 0 -76 32t-30 88h65q6 -56 53 -56q25 0 46.5 18.5t25.5 43.5q7 37 -23 55l-89 55l1 2q-27 26 -27 65q0 50 39 89.5t89 39.5q40 0 64 -26.5t24 -71.5q0 -10 -1 -21h-63q5 55 -35 55q-18 0 -33 -13t-18 -32q-5 -27 13 -38q79 -49 83 -53q43 -35 43 -83
q0 -11 -2 -23q-10 -52 -53 -89t-96 -37z" />
    <glyph glyph-name="t" unicode="t" horiz-adv-x="258" 
d="M162 349l-62 -350h-64l62 350h-51l11 64h51l29 163h64l-29 -163h103l-11 -64h-103z" />
    <glyph glyph-name="u" unicode="u" horiz-adv-x="344" 
d="M211 -1l2 9q-30 -14 -69 -14q-59 0 -98 31t-39 85q0 13 2 27l49 276h64l-49 -275q-1 -8 -1 -15q0 -64 84 -64q37 0 54.5 20t27.5 74l46 260h65l-74 -414h-64z" />
    <glyph glyph-name="v" unicode="v" horiz-adv-x="391" 
d="M189 -1h-61l-76 414h68l57 -310l166 310h69z" />
    <glyph glyph-name="w" unicode="w" horiz-adv-x="453" 
d="M289 -1h-60l-2 220l-79 -220h-61l-33 414h66l20 -252l91 252h61l1 -252l110 252h66z" />
    <glyph glyph-name="x" unicode="x" horiz-adv-x="329" 
d="M197 -1l-50 139l-99 -139h-73l148 207l-75 207h73l50 -139l99 139h73l-148 -207l75 -207h-73z" />
    <glyph glyph-name="y" unicode="y" horiz-adv-x="359" 
d="M285 -33q-14 -77 -56 -124q-49 -54 -121 -54q-63 0 -104.5 40t-49.5 110h67q17 -86 98 -86t101 114l8 41q-30 -14 -68 -14q-60 0 -99 31t-39 85q0 13 3 27l48 276h64l-48 -275q-2 -8 -2 -15q0 -64 84 -64q66 0 78 71l50 283h64z" />
    <glyph glyph-name="z" unicode="z" horiz-adv-x="325" 
d="M-25 -1l250 350h-172l11 64h279l-250 -350h178l-11 -64h-285z" />
    <glyph glyph-name="nonbreakingspace" unicode="&#xa0;" 
 />
    <glyph glyph-name="guillemotleft" unicode="&#xab;" 
 />
    <glyph glyph-name="hyphen" unicode="&#xad;" horiz-adv-x="262" 
d="M18 187l11 64h210l-12 -64h-209z" />
    <glyph glyph-name="macron" unicode="&#xaf;" horiz-adv-x="262" 
d="M18 187l11 64h210l-12 -64h-209z" />
    <glyph glyph-name="macron" unicode="&#x2c9;" horiz-adv-x="262" 
d="M18 187l11 64h210l-12 -64h-209z" />
    <glyph glyph-name="degree" unicode="&#xb0;" horiz-adv-x="248" 
d="M170 477q-37 0 -61 24t-24 59q0 47 36.5 82.5t83.5 35.5q37 0 60.5 -23.5t23.5 -59.5q0 -46 -36.5 -82t-82.5 -36zM194 614q-15 0 -27.5 -10.5t-15.5 -25.5t6 -26t24 -11t27.5 11t15.5 26q2 15 -6.5 25.5t-23.5 10.5z" />
    <glyph glyph-name="Agrave" unicode="&#xc0;" horiz-adv-x="480" 
d="M337 740l-68 98h82l69 -98h-83zM153 238l-108 -239h-65l322 713h57l71 -713h-66l-23 239h-188zM307 579l-125 -277h152z" />
    <glyph glyph-name="Acircumflex" unicode="&#xc2;" horiz-adv-x="480" 
d="M371 740l-25 36l-38 -36h-82l103 98h56l69 -98h-83zM153 238l-108 -239h-65l322 713h57l71 -713h-66l-23 239h-188zM307 579l-125 -277h152z" />
    <glyph glyph-name="Ccedilla" unicode="&#xc7;" horiz-adv-x="578" 
d="M330 -8l-14 -79h-64l14 79q-101 12 -163 93t-62 197q0 36 7 74q26 150 136.5 257.5t241.5 107.5q160 0 238 -173h-72q-62 109 -177 109q-105 0 -195.5 -88t-112.5 -213q-6 -32 -6 -62q0 -94 49 -159.5t127 -77.5l7 40h64l-7 -40q101 14 187 111h71q-124 -159 -269 -176z
" />
    <glyph glyph-name="Egrave" unicode="&#xc8;" horiz-adv-x="353" 
d="M286 740l-69 98h83l69 -98h-83zM-15 -1l126 713h337l-11 -64h-274l-36 -209h205l-12 -64h-205l-55 -312h274l-12 -64h-337z" />
    <glyph glyph-name="Eacute" unicode="&#xc9;" horiz-adv-x="353" 
d="M283 740h-83l103 98h83zM-15 -1l126 713h337l-11 -64h-274l-36 -209h205l-12 -64h-205l-55 -312h274l-12 -64h-337z" />
    <glyph glyph-name="Ecircumflex" unicode="&#xca;" horiz-adv-x="353" 
d="M316 740l-25 36l-38 -36h-83l103 98h57l68 -98h-82zM-15 -1l126 713h337l-11 -64h-274l-36 -209h205l-12 -64h-205l-55 -312h274l-12 -64h-337z" />
    <glyph glyph-name="Edieresis" unicode="&#xcb;" horiz-adv-x="353" 
d="M307 740l17 98h64l-17 -98h-64zM198 740l17 98h64l-17 -98h-64zM-15 -1l126 713h337l-11 -64h-274l-36 -209h205l-12 -64h-205l-55 -312h274l-12 -64h-337z" />
    <glyph glyph-name="Icircumflex" unicode="&#xce;" horiz-adv-x="184" 
d="M243 740l-25 36l-38 -36h-83l104 98h56l69 -98h-83zM49 -1l126 713h64l-126 -713h-64z" />
    <glyph glyph-name="Idieresis" unicode="&#xcf;" horiz-adv-x="156" 
d="M192 740l18 98h64l-17 -98h-65zM115 740l18 98h64l-17 -98h-65zM23 -1l126 713h64l-126 -713h-64z" />
    <glyph glyph-name="Ocircumflex" unicode="&#xd4;" horiz-adv-x="669" 
d="M462 744l-25 36l-38 -36h-83l103 98h57l68 -98h-82zM297 -10q-113 0 -184.5 83t-71.5 209q0 36 7 74q26 150 136.5 257.5t241.5 107.5q114 0 185.5 -83t71.5 -209q0 -36 -7 -73q-27 -151 -137.5 -258.5t-241.5 -107.5zM415 657q-103 0 -192 -88t-111 -213q-6 -33 -6 -64
q0 -103 57 -170.5t146 -67.5q102 0 191.5 88t111.5 214q5 32 5 63q0 103 -57 170.5t-145 67.5z" />
    <glyph glyph-name="Ugrave" unicode="&#xd9;" horiz-adv-x="492" 
d="M337 740l-68 98h82l69 -98h-83zM203 -10q-80 0 -132 52t-52 130q0 19 3 38l89 502h64l-89 -502q-2 -14 -2 -27q0 -55 37 -92t94 -37q64 0 118 46t65 110l89 502h64l-89 -502q-16 -91 -91.5 -155.5t-167.5 -64.5z" />
    <glyph glyph-name="Ucircumflex" unicode="&#xdb;" horiz-adv-x="492" 
d="M367 740l-25 36l-38 -36h-83l104 98h56l69 -98h-83zM203 -10q-80 0 -132 52t-52 130q0 19 3 38l89 502h64l-89 -502q-2 -14 -2 -27q0 -55 37 -92t94 -37q64 0 118 46t65 110l89 502h64l-89 -502q-16 -91 -91.5 -155.5t-167.5 -64.5z" />
    <glyph glyph-name="Udieresis" unicode="&#xdc;" horiz-adv-x="492" 
d="M358 740l17 98h64l-17 -98h-64zM249 740l17 98h64l-17 -98h-64zM203 -10q-80 0 -132 52t-52 130q0 19 3 38l89 502h64l-89 -502q-2 -14 -2 -27q0 -55 37 -92t94 -37q64 0 118 46t65 110l89 502h64l-89 -502q-16 -91 -91.5 -155.5t-167.5 -64.5z" />
    <glyph glyph-name="agrave" unicode="&#xe0;" horiz-adv-x="373" 
d="M216 443l-69 98h83l68 -98h-82zM287 269q7 89 -64 89q-82 0 -125 -77h-67q67 141 203 141q119 0 119 -129q0 -23 -4 -48l-44 -246h-64l4 24q-48 -32 -101 -32q-59 0 -97 37.5t-38 94.5q0 14 3 28q11 66 66 106q52 37 119 37q54 0 90 -25zM186 230q-47 0 -78 -24
q-34 -27 -34 -72q0 -34 23 -56.5t58 -22.5q44 0 79 33.5t35 77.5q0 64 -83 64z" />
    <glyph glyph-name="acircumflex" unicode="&#xe2;" horiz-adv-x="374" 
d="M263 442l-25 37l-38 -37h-83l104 99h56l69 -99h-83zM287 269q7 89 -64 89q-82 0 -125 -78h-67q67 142 203 142q119 0 119 -130q0 -22 -4 -47l-44 -246h-64l4 23q-48 -32 -101 -32q-59 0 -97 38t-38 94q0 14 3 28q11 66 66 106q52 38 119 38q54 0 90 -25zM186 230
q-47 0 -78 -25q-34 -26 -34 -71q0 -34 23 -57t58 -23q44 0 79 34t35 77q0 65 -83 65z" />
    <glyph glyph-name="ccedilla" unicode="&#xe7;" horiz-adv-x="416" 
d="M215 -7l-12 -71h-64l12 71q-63 9 -98.5 55.5t-35.5 112.5q0 22 4 45q16 90 79 151q67 65 154 65h9q115 0 171 -124h-76q-39 60 -107 60h-8q-70 0 -115.5 -57.5t-45.5 -128.5q0 -96 80 -115l8 43h64l-7 -43q52 12 98 57h77q-87 -107 -187 -121z" />
    <glyph glyph-name="egrave" unicode="&#xe8;" horiz-adv-x="450" 
d="M278 475l-69 98h83l69 -98h-83zM433 187h-351q-4 -55 22 -92.5t78 -40.5h5h6h7q66 2 125 60h77q-98 -121 -211 -124h-9h-9q-76 2 -116 48t-40 122q0 101 68.5 181.5t168.5 80.5h9q77 0 127.5 -50.5t50.5 -124.5q0 -20 -5 -41zM251 358h-8q-48 0 -86.5 -29.5t-58.5 -77.5
h276q-6 47 -39.5 77t-83.5 30z" />
    <glyph glyph-name="eacute" unicode="&#xe9;" horiz-adv-x="450" 
d="M274 475h-82l103 98h83zM433 187h-351q-4 -55 22 -92.5t78 -40.5h5h6h7q66 2 125 60h77q-98 -121 -211 -124h-9h-9q-76 2 -116 48t-40 122q0 101 68.5 181.5t168.5 80.5h9q77 0 127.5 -50.5t50.5 -124.5q0 -20 -5 -41zM251 358h-8q-48 0 -86.5 -29.5t-58.5 -77.5h276
q-6 47 -39.5 77t-83.5 30z" />
    <glyph glyph-name="ecircumflex" unicode="&#xea;" horiz-adv-x="450" 
d="M308 475l-25 36l-38 -36h-83l103 98h57l68 -98h-82zM433 187h-351q-4 -55 22 -92.5t78 -40.5h5h6h7q66 2 125 60h77q-98 -121 -211 -124h-9h-9q-76 2 -116 48t-40 122q0 101 68.5 181.5t168.5 80.5h9q77 0 127.5 -50.5t50.5 -124.5q0 -20 -5 -41zM251 358h-8
q-48 0 -86.5 -29.5t-58.5 -77.5h276q-6 47 -39.5 77t-83.5 30z" />
    <glyph glyph-name="edieresis" unicode="&#xeb;" horiz-adv-x="450" 
d="M299 475l17 98h64l-17 -98h-64zM190 475l17 98h64l-17 -98h-64zM433 187h-351q-4 -55 22 -92.5t78 -40.5h5h6h7q66 2 125 60h77q-98 -121 -211 -124h-9h-9q-76 2 -116 48t-40 122q0 101 68.5 181.5t168.5 80.5h9q77 0 127.5 -50.5t50.5 -124.5q0 -20 -5 -41zM251 358h-8
q-48 0 -86.5 -29.5t-58.5 -77.5h276q-6 47 -39.5 77t-83.5 30z" />
    <glyph glyph-name="icircumflex" unicode="&#xee;" horiz-adv-x="182" 
d="M209 543l-26 36l-38 -36h-82l103 98h56l69 -98h-82zM49 -1l73 414h64l-73 -414h-64z" />
    <glyph glyph-name="idieresis" unicode="&#xef;" horiz-adv-x="172" 
d="M174 543l17 98h64l-17 -98h-64zM65 543l17 98h64l-17 -98h-64zM23 -1l73 414h65l-74 -414h-64z" />
    <glyph glyph-name="ocircumflex" unicode="&#xf4;" horiz-adv-x="460" 
d="M303 446l-26 36l-38 -36h-82l103 98h56l69 -98h-82zM191 -10q-76 0 -124.5 50.5t-48.5 126.5q0 19 3 39q16 89 88 152.5t158 63.5q76 0 124 -50.5t48 -126.5q0 -19 -3 -39q-16 -89 -87.5 -152.5t-157.5 -63.5zM255 358q-68 0 -120 -55.5t-52 -124.5q0 -53 33.5 -88.5
t85.5 -35.5q68 0 120 55.5t52 124.5q0 53 -33.5 88.5t-85.5 35.5z" />
    <glyph glyph-name="ugrave" unicode="&#xf9;" horiz-adv-x="344" 
d="M210 443l-69 98h83l69 -98h-83zM211 -1l2 9q-30 -14 -69 -14q-59 0 -98 31.5t-39 85.5q0 13 2 27l49 275h64l-48 -275q-2 -8 -2 -15q0 -64 84 -64q37 0 54.5 20t27.5 74l46 260h65l-74 -414h-64z" />
    <glyph glyph-name="ucircumflex" unicode="&#xfb;" horiz-adv-x="344" 
d="M240 443l-25 36l-38 -36h-83l104 98h56l69 -98h-83zM211 -1l2 9q-30 -14 -69 -14q-59 0 -98 31.5t-39 85.5q0 13 2 27l49 275h64l-48 -275q-2 -8 -2 -15q0 -64 84 -64q37 0 54.5 20t27.5 74l46 260h65l-74 -414h-64z" />
    <glyph glyph-name="udieresis" unicode="&#xfc;" horiz-adv-x="344" 
d="M219 443l17 98h64l-17 -98h-64zM134 443l17 98h64l-17 -98h-64zM211 -1l2 9q-30 -14 -69 -14q-59 0 -98 31.5t-39 85.5q0 13 2 27l49 275h64l-48 -275q-2 -8 -2 -15q0 -64 84 -64q37 0 54.5 20t27.5 74l46 260h65l-74 -414h-64z" />
    <glyph glyph-name="OE" unicode="&#x152;" horiz-adv-x="917" 
d="M549 -1l24 135q-120 -144 -276 -144q-113 0 -184.5 83t-71.5 209q0 36 7 74q26 150 136.5 257.5t241.5 107.5q76 0 134.5 -38.5t90.5 -105.5l24 135h337l-11 -64h-273l-37 -209h205l-12 -64h-205l-55 -312h274l-11 -64h-338zM415 657q-103 0 -192 -88t-111 -213
q-6 -33 -6 -64q0 -103 57 -170.5t146 -67.5q102 0 191.5 88t111.5 214q5 32 5 63q0 103 -57 170.5t-145 67.5z" />
    <glyph glyph-name="oe" unicode="&#x153;" horiz-adv-x="800" 
d="M432 187q-4 -56 22 -93t77 -40h6h6h7q66 1 125 60h77q-98 -121 -211 -124h-9h-9q-105 3 -142 97q-79 -97 -190 -97q-76 0 -124.5 50.5t-48.5 126.5q0 19 3 39q16 89 88 152.5t158 63.5q111 0 156 -97q72 97 181 97h9q77 0 127 -50.5t50 -124.5q0 -21 -4 -41l-4 -19h-350z
M601 358h-8q-48 0 -86.5 -29.5t-58.5 -77.5h276q-6 47 -40 77t-83 30zM255 358q-68 0 -120 -55.5t-52 -124.5q0 -53 33.5 -88.5t85.5 -35.5q68 0 120 56t52 124q0 53 -33.5 88.5t-85.5 35.5z" />
    <glyph glyph-name="Scaron" unicode="&#x160;" 
 />
    <glyph glyph-name="endash" unicode="&#x2013;" horiz-adv-x="262" 
d="M18 187l11 64h210l-12 -64h-209z" />
    <glyph glyph-name="bullet" unicode="&#x2022;" horiz-adv-x="243" 
d="M99 127q-33 0 -55 21.5t-22 54.5q0 42 33.5 75t76.5 33q33 0 55 -22t22 -54q0 -43 -33.5 -75.5t-76.5 -32.5z" />
    <glyph glyph-name="ellipsis" unicode="&#x2026;" horiz-adv-x="318" 
d="M188 -1l23 132h64l-23 -132h-64zM86 -1l24 132h64l-24 -132h-64zM-15 -1l23 132h64l-23 -132h-64z" />
    <glyph glyph-name="Euro" unicode="&#x20ac;" horiz-adv-x="682" 
d="M395 -10q-111 0 -182 80t-74 202h-106l11 64h99q2 20 7 39h-99l11 64h107q46 122 145 202t210 80q160 0 238 -173h-72q-61 109 -177 109q-86 0 -164.5 -61t-118.5 -157h127l-11 -64h-137q-5 -19 -7 -39h137l-11 -64h-128q7 -96 64 -157t143 -61q118 0 219 114h71
q-139 -178 -302 -178z" />
    <glyph glyph-name="minus" unicode="&#x2212;" horiz-adv-x="262" 
d="M18 187l11 64h210l-12 -64h-209z" />
    <glyph glyph-name="glyph94" 
 />
    <glyph glyph-name="glyph95" 
 />
    </font>
</defs>
</svg>
