<?xml version="1.0" standalone="no"?>
<!DOCTYPE svg PUBLIC "-//W3C//DTD SVG 1.1//EN" "http://www.w3.org/Graphics/SVG/1.1/DTD/svg11.dtd" >
<svg xmlns="http://www.w3.org/2000/svg" xmlns:xlink="http://www.w3.org/1999/xlink" version="1.1">
<metadata>
Created by FontForge 20201107 at Tue Jan 17 19:41:49 2012
 By 
Generated by Fontographer 4.7
</metadata>
<defs>
<font id="SornetteLight" horiz-adv-x="427" >
  <font-face 
    font-family="Sornette"
    font-weight="200"
    font-stretch="normal"
    units-per-em="1000"
    panose-1="0 0 2 0 0 0 0 0 0 0"
    ascent="800"
    descent="-200"
    x-height="398"
    cap-height="697"
    bbox="-210 -200 872 800"
    underline-thickness="20"
    underline-position="-143"
    unicode-range="U+0020-2212"
  />
<missing-glyph horiz-adv-x="500" 
d="M63 0v800h375v-800h-375zM125 63h250v675h-250v-675z" />
    <glyph glyph-name=".notdef" horiz-adv-x="500" 
d="M63 0v800h375v-800h-375zM125 63h250v675h-250v-675z" />
    <glyph glyph-name=".null" horiz-adv-x="0" 
 />
    <glyph glyph-name="nonmarkingreturn" horiz-adv-x="160" 
 />
    <glyph glyph-name="space" unicode=" " horiz-adv-x="160" 
 />
    <glyph glyph-name="exclam" unicode="!" horiz-adv-x="95" 
d="M0 697v-547h34v547h-34zM0 14h34v102h-34v-102z" />
    <glyph glyph-name="quotedbl" unicode="&#x22;" horiz-adv-x="164" 
d="M0 484h34v179h-34v-179zM68 663v-179h35v179h-35z" />
    <glyph glyph-name="percent" unicode="%" horiz-adv-x="364" 
d="M127 509q35 0 60 25t25 61q0 35 -25 60t-60 25t-60.5 -25t-25.5 -60q0 -36 25.5 -61t60.5 -25zM127 646q21 0 36 -15t15 -36t-15 -36t-36 -15t-36 15t-15 36t15 36t36 15zM247 202q-36 0 -61 -25t-25 -61q0 -35 25 -60t61 -25q35 0 60 25t25 60q0 36 -25 61t-60 25z
M247 65q-22 0 -37 15t-15 36t15 36.5t37 15.5q21 0 36 -15.5t15 -36.5t-15 -36t-36 -15zM350 697l-350 -683h39l350 683h-39z" />
    <glyph glyph-name="ampersand" unicode="&#x26;" horiz-adv-x="529" 
d="M479 14l-111 135l99 277h-37l-87 -246l-156 189l80 54v0v0q74 44 74 130q0 64 -44.5 108.5t-107.5 44.5h-1v0h-7q-61 -3 -103 -47t-42 -106q0 -52 32 -94v0l68 -82l-46 -30v0v0q-90 -47 -90 -160q0 -77 54.5 -131t130.5 -54q56 0 101.5 30t67.5 79l80 -97h45zM93 484v-1
v0v1q-23 31 -23 69q0 9 2 18v0v1q7 44 40 71t76 28h6q42 -2 73 -30t38 -69v-1v0q2 -9 2 -18q0 -65 -49 -96l-93 -61zM185 36q-62 0 -106 44.5t-44 106.5q0 80 70 127l53 36l171 -208l-1 -4h-1v-1q-16 -45 -54.5 -73t-87.5 -28z" />
    <glyph glyph-name="quotesingle" unicode="'" horiz-adv-x="177" 
d="M43 475h-43l77 145h43z" />
    <glyph glyph-name="parenleft" unicode="(" horiz-adv-x="270" 
d="M239 -92v0h-1q-101 0 -157 118q-47 101 -47 250q0 148 47 249q56 118 157 118h1v0v34v0h-1q-115 0 -181 -128q-57 -112 -57 -273q0 -162 57 -274q66 -128 181 -128h1v0v34z" />
    <glyph glyph-name="parenright" unicode=")" horiz-adv-x="299" 
d="M0 -92h0.5h0.5q102 0 157 118q47 101 47 250q0 148 -47 249q-55 118 -157 118h-0.5h-0.5v34h0.5h0.5q116 0 181 -128q57 -112 57 -273q0 -162 -57 -274q-65 -128 -181 -128h-0.5h-0.5v34z" />
    <glyph glyph-name="asterisk" unicode="*" horiz-adv-x="209" 
d="M153 532l-47 33l47 33l-20 28l-40 -28v48h-34v-48l-39 28l-20 -28l47 -33l-47 -33l20 -28l39 28v-48h34v48l40 -28z" />
    <glyph glyph-name="plus" unicode="+" horiz-adv-x="317" 
d="M274 236h-120v120h-34v-120h-120v-34h120v-120h34v120h120v34z" />
    <glyph glyph-name="comma" unicode="," horiz-adv-x="178" 
d="M43 -63h-43l77 145h43z" />
    <glyph glyph-name="period" unicode="." horiz-adv-x="94" 
d="M34 14h-34v102h34v-102z" />
    <glyph glyph-name="slash" unicode="/" horiz-adv-x="413" 
d="M348 697h38l-348 -683h-38z" />
    <glyph glyph-name="zero" unicode="0" horiz-adv-x="467" 
d="M410 501v0v0v0v0q0 85 -60 145t-145 60t-145 -60t-60 -145v0v-291v0q0 -85 60 -145t145 -60t145 60t60 145v0v291zM376 210v0q0 -71 -50 -121t-121 -50t-121 50t-50 121v0v291q0 71 50 121t121 50t121 -50t50 -121v-291z" />
    <glyph glyph-name="one" unicode="1" horiz-adv-x="289" 
d="M184 697l-184 -239h43l150 195v-639h35v683h-44z" />
    <glyph glyph-name="two" unicode="2" horiz-adv-x="405" 
d="M41 48l268 392q33 48 33 99q0 69 -48.5 118t-118.5 49q-63 0 -110 -42t-55 -103h35q7 47 44 79t86 32q55 0 94 -39t39 -94q0 -41 -21 -72l-287 -419v0v-34h368v34h-327z" />
    <glyph glyph-name="three" unicode="3" horiz-adv-x="448" 
d="M270 391q41 22 65.5 61.5t24.5 86.5q0 69 -49 118t-118 49q-63 0 -110 -42t-55 -103h34q8 47 45 79t86 32q55 0 93.5 -39t38.5 -94q0 -54 -37.5 -92.5t-92.5 -39.5v-34h8q66 -4 111.5 -52t45.5 -115q0 -69 -49 -118t-118 -49q-54 0 -97 31t-61 80h-35q18 -63 71.5 -104
t121.5 -41q83 0 142 59t59 142q0 62 -34.5 112.5t-89.5 72.5z" />
    <glyph glyph-name="four" unicode="4" horiz-adv-x="461" 
d="M415 185h-86v512v0h-38l-291 -547h21v0h274v-136h34v136h86v35zM57 185l238 448v-448h-238z" />
    <glyph glyph-name="five" unicode="5" horiz-adv-x="447" 
d="M193 450q-90 0 -150 -67v280h325v34h-325v0h-34v-367v0v0h38q48 86 146 86q68 0 117.5 -58.5t49.5 -130.5q0 -71 -49.5 -129.5t-117.5 -58.5q-54 0 -97 31t-61 80h-35q18 -63 71.5 -104t121.5 -41q81 0 142 70q59 67 59 152q0 86 -60 154.5t-141 68.5z" />
    <glyph glyph-name="six" unicode="6" horiz-adv-x="447" 
d="M197 450q-104 0 -163 -97v131q0 78 47.5 133t115.5 55q48 0 88 -30.5t60 -80.5h36q-21 64 -71.5 104.5t-112.5 40.5q-82 0 -139.5 -65t-57.5 -157l1 -280q8 -84 64 -141.5t132 -57.5q81 0 138.5 65t57.5 157t-57.5 157.5t-138.5 65.5zM197 39q-68 0 -115.5 55t-47.5 133
t47.5 133t115.5 55q67 0 114.5 -55t47.5 -133t-47.5 -133t-114.5 -55z" />
    <glyph glyph-name="seven" unicode="7" horiz-adv-x="396" 
d="M393 697h-39v0h-354v-34h336l-131 -256h-128v-34h111l-184 -359h39l184 359h123v34h-106z" />
    <glyph glyph-name="eight" unicode="8" horiz-adv-x="456" 
d="M278 392q41 21 65.5 60.5t24.5 86.5q0 69 -49 118t-118 49t-118 -49t-49 -118q0 -47 24.5 -86.5t65.5 -60.5q-56 -23 -90 -73.5t-34 -112.5q0 -83 59 -142t142 -59t142 59t59 142q0 62 -34.5 112.5t-89.5 73.5zM68 539q0 55 39 94t94 39t93.5 -39t38.5 -94t-38.5 -93.5
t-93.5 -38.5v0v0q-55 0 -94 38.5t-39 93.5zM201 39q-69 0 -118.5 49t-49.5 118q0 66 46 114.5t111 52.5h10.5h10.5q66 -4 111.5 -52.5t45.5 -114.5q0 -69 -49 -118t-118 -49z" />
    <glyph glyph-name="nine" unicode="9" horiz-adv-x="451" 
d="M394 219v265v0q0 92 -58 157t-139 65q-82 0 -139.5 -65t-57.5 -157t57.5 -157t139.5 -65q104 0 162 97v-140q0 -78 -47.5 -133t-114.5 -55q-49 0 -89 30.5t-60 80.5h-36q21 -65 71.5 -105t113.5 -40q81 0 139 65t58 156v0v1v0v0zM197 296q-68 0 -115.5 55t-47.5 133
t47.5 133t115.5 55q67 0 114.5 -55t47.5 -133t-47.5 -133t-114.5 -55z" />
    <glyph glyph-name="colon" unicode=":" horiz-adv-x="95" 
d="M0 14h34v85h-34v-85zM0 219v-86h34v86h-34z" />
    <glyph glyph-name="semicolon" unicode=";" horiz-adv-x="177" 
d="M116 219h-34v-103h34v103zM77 82l-77 -145h43l77 145h-43z" />
    <glyph glyph-name="less" unicode="&#x3c;" 
d="M385 381l-385 -139v-39l385 -139v36l-339 122l339 123v36z" />
    <glyph glyph-name="equal" unicode="=" horiz-adv-x="312" 
d="M0 287v-34h273v34h-273zM0 150h273v35h-273v-35z" />
    <glyph glyph-name="greater" unicode="&#x3e;" horiz-adv-x="414" 
d="M0 381v-36l339 -123l-339 -122v-36l385 139v39z" />
    <glyph glyph-name="question" unicode="?" horiz-adv-x="375" 
d="M165 706q-63 0 -110 -42t-55 -103h34q8 47 45 79t86 32q55 0 94 -39t39 -94q0 -41 -22 -72l-123 -181v0q-16 -22 -16 -50v0v-86h34v86v0q0 17 10 30l118 174q33 48 33 99q0 69 -49 118t-118 49zM135 14h35v102h-35v-102z" />
    <glyph glyph-name="at" unicode="@" horiz-adv-x="643" 
d="M299 561q-124 0 -211.5 -103t-87.5 -248t87.5 -247.5t211.5 -102.5q58 0 111 25v38q-52 -29 -111 -29q-110 0 -187.5 92.5t-77.5 223.5t77.5 223.5t187.5 92.5q108 0 178 -91.5t70 -224.5v-196q0 -21 -19 -36.5t-41 -15.5q-21 0 -36 15t-15 37v0v0v230v0q-2 73 -32 115
q-34 48 -99 48q-56 0 -100 -33.5t-60 -86.5h36q15 38 48.5 62t75.5 24q93 0 97 -129v0v-7q-42 42 -111 42q-63 0 -103 -34q-43 -36 -43 -95q0 -60 42.5 -102.5t103.5 -42.5q67 0 111 52v-43v0q0 -36 25 -61t60 -25q36 0 65 25.5t29 60.5v196q0 147 -80 249t-202 102zM291 39
q-46 0 -79 32.5t-33 78.5q0 45 33 70q30 24 79 24q48 0 79.5 -24.5t31.5 -69.5q0 -46 -32.5 -78.5t-78.5 -32.5z" />
    <glyph glyph-name="A" unicode="A" horiz-adv-x="455" 
d="M410 14l-188 683h-34l-188 -683h34l66 239h210l66 -239h34zM109 287l96 348l96 -348h-192z" />
    <glyph glyph-name="B" unicode="B" horiz-adv-x="399" 
d="M212 419q74 43 74 129q0 62 -43.5 105.5t-105.5 43.5h-103v0h-34v-683h137q86 0 147.5 61t61.5 148q0 66 -37 119.5t-97 76.5zM34 663h103v0q48 0 81.5 -33.5t33.5 -81.5t-33.5 -82t-81.5 -34v0h-103v231zM137 48h-103v350h103v0q72 0 123.5 -51t51.5 -124t-51.5 -124
t-123.5 -51z" />
    <glyph glyph-name="C" unicode="C" horiz-adv-x="571" 
d="M506 150q-81 -113 -207 -113q-112 0 -191 92.5t-79 223.5t79 224t191 93q123 0 204 -109h37q-41 66 -104.5 104.5t-136.5 38.5q-124 0 -211.5 -102.5t-87.5 -248.5q0 -145 87.5 -247.5t211.5 -102.5q74 0 138.5 39.5t105.5 107.5h-37z" />
    <glyph glyph-name="D" unicode="D" horiz-adv-x="465" 
d="M128 697v0h-99v0h-29v-683h120q122 0 208.5 100t86.5 242q0 139 -83.5 238.5t-203.5 102.5zM120 47v0v0h-86v616h94v1q108 -4 183 -93.5t75 -214.5q0 -128 -78 -218.5t-188 -90.5z" />
    <glyph glyph-name="E" unicode="E" horiz-adv-x="342" 
d="M308 663v34h-308v-683h308v34h-274v342h205v34h-205v239h274z" />
    <glyph glyph-name="F" unicode="F" horiz-adv-x="356" 
d="M308 663v34h-308v-683h34v376h205v34h-205v239h274z" />
    <glyph glyph-name="G" unicode="G" horiz-adv-x="646" 
d="M598 389h-290v-34h261q0 -131 -79 -223.5t-191 -92.5t-191 93t-79 224t79 223.5t191 92.5q125 0 206 -111h37q-42 67 -105.5 106t-137.5 39q-124 0 -211.5 -102.5t-87.5 -247.5q0 -146 87.5 -248.5t211.5 -102.5t211.5 102.5t87.5 247.5v0v34z" />
    <glyph glyph-name="H" unicode="H" horiz-adv-x="403" 
d="M308 697v-290h-274v290h-34v-683h34v359h274v-359h34v683h-34z" />
    <glyph glyph-name="I" unicode="I" horiz-adv-x="129" 
d="M25 14v683h34v-683h-34z" />
    <glyph glyph-name="J" unicode="J" horiz-adv-x="417" 
d="M356 185v0v512h-35v-512v0v-2q0 -60 -42 -102t-101 -42q-60 0 -102 42t-42 102v2h-34v-2q0 -74 52 -126t126 -52q73 0 125.5 52t52.5 126v2z" />
    <glyph glyph-name="K" unicode="K" horiz-adv-x="400" 
d="M321 14h40l-242 409l211 274h-43l-253 -328v328h-34v-683h34v299l62 81z" />
    <glyph glyph-name="L" unicode="L" horiz-adv-x="323" 
d="M34 48v649h-34v-683h308v34h-274z" />
    <glyph glyph-name="M" unicode="M" horiz-adv-x="538" 
d="M439 697l-202 -628l-201 628h-36v-683h34v576l185 -576h39l185 576v-576h34v683h-38z" />
    <glyph glyph-name="N" unicode="N" horiz-adv-x="434" 
d="M373 14v683h-35v-613l-300 613h-38v-683h34v614l301 -614h38v0z" />
    <glyph glyph-name="O" unicode="O" horiz-adv-x="649" 
d="M299 706q-124 0 -211.5 -102.5t-87.5 -247.5q0 -146 87.5 -248.5t211.5 -102.5t211.5 102.5t87.5 248.5q0 145 -87.5 247.5t-211.5 102.5zM299 39q-110 0 -187.5 93t-77.5 224t77.5 223.5t187.5 92.5t187.5 -92.5t77.5 -223.5t-77.5 -224t-187.5 -93z" />
    <glyph glyph-name="P" unicode="P" horiz-adv-x="355" 
d="M137 697h-137v-683h34v307h103v0v0q78 0 133 55.5t55 132.5q0 78 -55 133t-133 55zM137 356v0v0h-103v307h103v0v0v0v0q63 0 108.5 -45t45.5 -109q0 -63 -45.5 -108t-108.5 -45z" />
    <glyph glyph-name="Q" unicode="Q" horiz-adv-x="650" 
d="M598 356q0 145 -87.5 247.5t-211.5 102.5t-211.5 -102.5t-87.5 -247.5q0 -146 87.5 -248.5t211.5 -102.5q64 0 121 30l53 -90h40l-64 108q68 46 108.5 126.5t40.5 176.5zM299 39q-110 0 -187.5 93t-77.5 224t77.5 223.5t187.5 92.5t187.5 -92.5t77.5 -223.5
q0 -87 -36 -159.5t-96 -114.5l-66 111h-39l76 -129q-50 -25 -104 -25z" />
    <glyph glyph-name="R" unicode="R" horiz-adv-x="383" 
d="M333 14l-177 308q71 8 120 61.5t49 125.5q0 78 -55 133t-133 55h-137v-683h34v307h83l176 -307h40zM34 663h103v0v0q63 0 108.5 -45t45.5 -109q0 -63 -45.5 -108t-108.5 -45v0v0h-103v307z" />
    <glyph glyph-name="S" unicode="S" horiz-adv-x="415" 
d="M274 348l-168 111q-49 51 -49 96q0 49 34.5 83.5t83.5 34.5q44 0 77 -28t40 -71v-1h35l-1 2q-7 56 -50 94.5t-101 38.5q-63 0 -107.5 -45t-44.5 -108q0 -86 74 -131l162 -109q70 -68 70 -126q0 -63 -44 -107t-106 -44q-49 0 -87.5 28t-54.5 73l-1 1h-36l1 -3
q17 -58 66 -96t112 -38q76 0 130.5 54.5t54.5 131.5q0 107 -90 159z" />
    <glyph glyph-name="T" unicode="T" horiz-adv-x="375" 
d="M342 697h-154v0h-34v0h-154v-34h154v-649h34v649h154v34z" />
    <glyph glyph-name="U" unicode="U" horiz-adv-x="471" 
d="M376 697v-487v0v0q0 -71 -50 -121t-121 -50t-121 50t-50 121v0v487h-34v-487q0 -85 60 -145t145 -60t145 60t60 145v0v487h-34z" />
    <glyph glyph-name="V" unicode="V" horiz-adv-x="432" 
d="M354 697l-160 -617l-159 617h-35l176 -683h37l176 683h-35z" />
    <glyph glyph-name="W" unicode="W" horiz-adv-x="710" 
d="M631 697l-157 -609l-122 609h-37l-123 -609l-157 609h-35l176 -683h37l120 599l121 -599h36l177 683h-36z" />
    <glyph glyph-name="X" unicode="X" horiz-adv-x="431" 
d="M386 697h-38l-155 -304l-155 304h-38l174 -341l-174 -342h38l155 304l155 -304h38l-174 342z" />
    <glyph glyph-name="Y" unicode="Y" horiz-adv-x="421" 
d="M386 697h-38l-155 -304l-155 304h-38l176 -346v-337h34v337z" />
    <glyph glyph-name="Z" unicode="Z" horiz-adv-x="419" 
d="M386 697h-38v0h-331v-34h313l-330 -649h385v34h-329z" />
    <glyph glyph-name="underscore" unicode="_" horiz-adv-x="383" 
d="M410 -21h-410v-34h410v34z" />
    <glyph glyph-name="a" unicode="a" horiz-adv-x="352" 
d="M256 237q-41 42 -111 42q-62 0 -102 -34q-43 -36 -43 -95q0 -60 42.5 -102.5t102.5 -42.5q68 0 111 52v-43h35v230v0q-2 73 -33 115q-34 48 -98 48q-56 0 -100.5 -33.5t-59.5 -86.5h36q14 38 48 62t76 24q94 0 96 -129v-7zM145 39q-46 0 -78.5 32.5t-32.5 78.5
q0 45 33 70q30 24 78 24t79.5 -24.5t31.5 -69.5q0 -46 -32.5 -78.5t-78.5 -32.5z" />
    <glyph glyph-name="b" unicode="b" horiz-adv-x="445" 
d="M385 206q0 83 -56.5 142t-136.5 59q-100 0 -158 -87v283h-34v-589h34v78q58 -87 158 -87q80 0 136.5 59t56.5 142zM350 206q0 -69 -46 -118t-112 -49q-65 0 -111.5 49t-46.5 118t46.5 118t111.5 49q66 0 112 -49t46 -118z" />
    <glyph glyph-name="c" unicode="c" horiz-adv-x="380" 
d="M201 6q100 8 153 93h-42q-49 -59 -128 -60h-7h-6q-64 5 -102 54q-36 46 -36 113q0 71 40 119t106 48h9q75 0 125 -60h41q-59 94 -166 94h-9q-79 0 -129 -58.5t-50 -142.5q0 -85 50 -142t134 -59v0v0h9q3 0 8 1z" />
    <glyph glyph-name="d" unicode="d" horiz-adv-x="446" 
d="M192 5q101 0 158 87v-78h35v589h-35v-283q-57 87 -158 87q-79 0 -135.5 -59t-56.5 -142t56.5 -142t135.5 -59zM192 373q66 0 112 -49t46 -118t-46 -118t-112 -49q-65 0 -111.5 49t-46.5 118t46.5 118t111.5 49z" />
    <glyph glyph-name="e" unicode="e" 
d="M188 407h-9q-79 0 -129 -58.5t-50 -142.5q0 -85 50 -142t134 -59v0v0h9q3 0 8 1q100 8 153 93h-42q-49 -59 -128 -60h-7h-6q-63 5 -100 53q-36 44 -37 110h351q0 5 0 4q0 82 -57.5 141.5t-139.5 59.5zM179 373h9q60 0 105 -39.5t56 -97.5h-313q8 60 46.5 98.5t96.5 38.5z
" />
    <glyph glyph-name="f" unicode="f" horiz-adv-x="233" 
d="M182 672h6v34h-6q-65 0 -98 -45.5t-33 -116.5v-146h-51v-34h51v-350h34v350h103v34h-103v146q0 128 97 128z" />
    <glyph glyph-name="g" unicode="g" horiz-adv-x="446" 
d="M385 213v7v178h-35v-70q-50 76 -148 79h-1v0h-9q-3 -1 -8 -1q-77 -6 -130.5 -63.5t-53.5 -136.5q0 -82 57.5 -141.5t139.5 -59.5h9q92 0 144 79v-113v0q-4 -128 -96 -128q-42 0 -76 23.5t-48 61.5h-36q15 -52 59.5 -85.5t100.5 -33.5q64 0 98 47q31 42 33 115v0v220v8v7
v7zM206 39h-9q-68 0 -116 49t-48 118q0 29 10 56h1q17 50 60 80t97 31h7h6q58 -5 94 -45t42 -100v-44q-6 -63 -45 -104t-99 -41z" />
    <glyph glyph-name="h" unicode="h" horiz-adv-x="351" 
d="M291 275q0 58 -41.5 93t-103.5 35q-70 0 -112 -43v278h-34v-624h34v260h1q0 45 31.5 69.5t79.5 24.5t79.5 -24.5t31.5 -69.5v-260h34v261v0z" />
    <glyph glyph-name="i" unicode="i" horiz-adv-x="105" 
d="M10 398v-384h34v384h-34zM44 586h-34v-94h34v94z" />
    <glyph glyph-name="j" unicode="j" horiz-adv-x="141" 
d="M46 -29q0 -128 -96 -128q-42 0 -76 23.5t-48 61.5h-36q15 -52 59.5 -85.5t100.5 -33.5q65 0 99 47q31 43 31 115v432h-34v-432zM46 586v-94h34v94h-34z" />
    <glyph glyph-name="k" unicode="k" horiz-adv-x="350" 
d="M182 134q48 12 78.5 51t30.5 89q0 59 -41.5 94t-103.5 35q-70 0 -112 -43v278h-34v-624h34v167q44 -52 112 -52h2q8 -51 41.5 -83t84.5 -32v34q-78 0 -92 86zM35 274q0 45 31.5 69.5t79.5 24.5t79.5 -24.5t31.5 -69.5q0 -46 -32.5 -78.5t-78.5 -32.5t-78.5 32.5
t-32.5 78.5z" />
    <glyph glyph-name="l" unicode="l" horiz-adv-x="103" 
d="M43 14h-33v624h33v-624z" />
    <glyph glyph-name="m" unicode="m" horiz-adv-x="544" 
d="M483 274v0v0v0q0 59 -41.5 93.5t-103.5 34.5q-75 0 -99 -56q-40 56 -124 56q-52 0 -81 -27v23h-34v-385h34v261h1q0 94 80 94q48 0 79.5 -25.5t31.5 -69.5v-260h35v260v0q0 49 15 70q18 25 62 25q48 0 79.5 -25t31.5 -69v-261h34v261v0z" />
    <glyph glyph-name="n" unicode="n" horiz-adv-x="321" 
d="M261 274v0v1v0q-1 58 -42.5 93t-103.5 35q-52 0 -81 -28v23h-34v-384h34v260h1q0 94 80 94q48 0 79.5 -24.5t31.5 -69.5v-260h35v260v0z" />
    <glyph glyph-name="o" unicode="o" horiz-adv-x="437" 
d="M192 407q-79 0 -135.5 -59t-56.5 -142t56.5 -142t135.5 -59q80 0 136.5 59t56.5 142t-56.5 142t-136.5 59zM192 39q-65 0 -111.5 49t-46.5 118t46.5 118t111.5 49q66 0 112 -49t46 -118t-46 -118t-112 -49z" />
    <glyph glyph-name="p" unicode="p" horiz-adv-x="437" 
d="M192 407q-100 0 -158 -87v78h-34v-589h34v283q58 -87 158 -87q80 0 136.5 59t56.5 142t-56.5 142t-136.5 59zM192 39q-65 0 -111.5 49t-46.5 118t46.5 118t111.5 49q66 0 112 -49t46 -118t-46 -118t-112 -49z" />
    <glyph glyph-name="q" unicode="q" horiz-adv-x="447" 
d="M0 206q0 -83 56.5 -142t135.5 -59q101 0 158 87v-283h35v589h-35v-78q-57 87 -158 87q-79 0 -135.5 -59t-56.5 -142zM34 206q0 69 46.5 118t111.5 49q66 0 112 -49t46 -118t-46 -118t-112 -49q-65 0 -111.5 49t-46.5 118z" />
    <glyph glyph-name="r" unicode="r" horiz-adv-x="164" 
d="M34 376v22h-34v-384h34v260q0 94 81 94v35q-52 0 -81 -27z" />
    <glyph glyph-name="s" unicode="s" horiz-adv-x="271" 
d="M162 214l-86 48q-28 15 -28 51q0 25 17.5 42.5t41.5 17.5q23 0 39.5 -16t18.5 -39h34q-2 37 -28.5 63t-63.5 26q-38 0 -65 -27.5t-27 -66.5q0 -53 44 -81v0l86 -48v0q41 -22 41 -68q0 -32 -22.5 -54.5t-54.5 -22.5q-58 0 -74 56h-35q8 -39 38.5 -64.5t70.5 -25.5
q46 0 78.5 32.5t32.5 78.5q0 65 -58 98z" />
    <glyph glyph-name="t" unicode="t" horiz-adv-x="233" 
d="M188 398h-103v163h-34v-163h-51v-34h51v-350h34v350h103v34z" />
    <glyph glyph-name="u" unicode="u" horiz-adv-x="322" 
d="M226 398v-260v0q0 -94 -81 -94q-48 0 -78 24q-33 25 -33 70h-34q0 -59 43 -95q40 -34 102 -34q53 0 81 28v-23h35v384h-35zM34 398h-34v-260h34v260z" />
    <glyph glyph-name="v" unicode="v" horiz-adv-x="364" 
d="M281 398l-122 -339l-123 339h-36l139 -384h40l138 384h-36z" />
    <glyph glyph-name="w" unicode="w" horiz-adv-x="428" 
d="M342 398l-79 -307l-57 307h-35l-57 -307l-79 307h-35l99 -384h37l53 288l53 -288h36l99 384h-35z" />
    <glyph glyph-name="x" unicode="x" horiz-adv-x="299" 
d="M245 398h-38l-84 -156l-84 156h-39l103 -192l-103 -192h39l84 156l84 -156h38l-103 192z" />
    <glyph glyph-name="y" unicode="y" horiz-adv-x="353" 
d="M260 138v260h-34v-268q0 -86 -80 -86q-48 0 -79.5 24.5t-31.5 69.5v260h-35v-260v0v0v-1v0q0 -58 42 -93t104 -35q52 0 80 27v-69q0 -129 -96 -129q-42 0 -76 24t-48 62h-36q15 -53 59.5 -86.5t100.5 -33.5q65 0 99 48q31 43 31 115v163q0 1 1 4v4h-1z" />
    <glyph glyph-name="z" unicode="z" horiz-adv-x="294" 
d="M245 398h-239v-34h182l-188 -350h39v0h206v34h-188z" />
    <glyph glyph-name="hyphen" unicode="&#xad;" horiz-adv-x="240" 
d="M179 202h-179v34h179v-34z" />
    <glyph glyph-name="macron" unicode="&#xaf;" horiz-adv-x="240" 
d="M179 202h-179v34h179v-34z" />
    <glyph glyph-name="macron" unicode="&#x2c9;" horiz-adv-x="240" 
d="M179 202h-179v34h179v-34z" />
    <glyph glyph-name="degree" unicode="&#xb0;" horiz-adv-x="229" 
d="M85 663q-35 0 -60 -25t-25 -60q0 -36 25 -61t60 -25q36 0 61 25t25 61q0 35 -25 60t-61 25zM85 526q-21 0 -36 15.5t-15 36.5t15 36t36 15q22 0 37 -15t15 -36t-15 -36.5t-37 -15.5z" />
    <glyph glyph-name="Agrave" unicode="&#xc0;" horiz-adv-x="455" 
d="M222 697h-34l-188 -683h34l66 239h210l66 -239h34zM109 287l96 348l96 -348h-192zM256 715l-59 68h-43l60 -68h42z" />
    <glyph glyph-name="Acircumflex" unicode="&#xc2;" horiz-adv-x="455" 
d="M222 697h-34l-188 -683h34l66 239h210l66 -239h34zM109 287l96 348l96 -348h-192zM209 758l39 -43h43l-60 68h-43v0v0v0l-60 -68h43z" />
    <glyph glyph-name="Ccedilla" unicode="&#xc7;" horiz-adv-x="541" 
d="M543 153h-37q-74 -105 -190 -113v42h-34v-42q-106 8 -179.5 99t-73.5 217q0 131 79 223.5t191 92.5q123 0 204 -109h37q-41 66 -104.5 104.5t-136.5 38.5q-124 0 -211.5 -102.5t-87.5 -247.5q0 -140 82 -241t200 -109v-78h34v78q144 9 227 147z" />
    <glyph glyph-name="Egrave" unicode="&#xc8;" horiz-adv-x="329" 
d="M308 663v34h-308v-683h308v34h-274v342h205v34h-205v239h274zM205 715l-60 68h-42l59 -68h43z" />
    <glyph glyph-name="Eacute" unicode="&#xc9;" horiz-adv-x="329" 
d="M308 663v34h-308v-683h308v34h-274v342h205v34h-205v239h274zM205 783h-43l-59 -68h42z" />
    <glyph glyph-name="Ecircumflex" unicode="&#xca;" horiz-adv-x="329" 
d="M308 663v34h-308v-683h308v34h-274v342h205v34h-205v239h274zM154 758l38 -43h43l-60 68h-43v0l-59 -68h42z" />
    <glyph glyph-name="Edieresis" unicode="&#xcb;" horiz-adv-x="329" 
d="M308 663v34h-308v-683h308v34h-274v342h205v34h-205v239h274zM209 783h-34v-68h34v68zM132 783h-34v-68h34v68z" />
    <glyph glyph-name="Icircumflex" unicode="&#xce;" horiz-adv-x="159" 
d="M64 14h34v683h-34v-683zM103 783h-43v0l-60 -68h43l38 43l39 -43h42z" />
    <glyph glyph-name="Idieresis" unicode="&#xcf;" horiz-adv-x="134" 
d="M38 14h35v683h-35v-683zM0 715h34v68h-34v-68zM77 783v-68h34v68h-34z" />
    <glyph glyph-name="Ocircumflex" unicode="&#xd4;" horiz-adv-x="649" 
d="M299 706q-124 0 -211.5 -102.5t-87.5 -247.5q0 -146 87.5 -248.5t211.5 -102.5t211.5 102.5t87.5 248.5q0 145 -87.5 247.5t-211.5 102.5zM299 39q-110 0 -187.5 93t-77.5 224t77.5 223.5t187.5 92.5t187.5 -92.5t77.5 -223.5t-77.5 -224t-187.5 -93zM299 758l39 -43h42
l-59 68h-43v0l-60 -68h43z" />
    <glyph glyph-name="Odieresis" unicode="&#xd6;" horiz-adv-x="160" 
 />
    <glyph glyph-name="Ugrave" unicode="&#xd9;" horiz-adv-x="471" 
d="M376 697v-487v0v0q0 -71 -50 -121t-121 -50t-121 50t-50 121v487h-34v-487q0 -85 60 -145t145 -60t145 60t60 145v487h-34zM256 715l-59 68h-43l60 -68h42z" />
    <glyph glyph-name="Ucircumflex" unicode="&#xdb;" horiz-adv-x="471" 
d="M376 697v-487v0v0q0 -71 -50 -121t-121 -50t-121 50t-50 121v487h-34v-487q0 -85 60 -145t145 -60t145 60t60 145v487h-34zM205 758l39 -43h42l-60 68h-42v0l-60 -68h43z" />
    <glyph glyph-name="Udieresis" unicode="&#xdc;" horiz-adv-x="471" 
d="M376 697v-487v0v0q0 -71 -50 -121t-121 -50t-121 50t-50 121v487h-34v-487q0 -85 60 -145t145 -60t145 60t60 145v487h-34zM261 783h-35v-68h35v68zM184 783h-34v-68h34v68z" />
    <glyph glyph-name="agrave" unicode="&#xe0;" horiz-adv-x="351" 
d="M290 244q-1 73 -32 115q-34 48 -98 48q-56 0 -100.5 -33.5t-59.5 -86.5h36q14 38 48 62t76 24q92 0 96 -129v0v-7q-41 42 -111 42q-62 0 -102 -34q-43 -36 -43 -95q0 -60 42.5 -102.5t102.5 -42.5q68 0 111 52v-43h35v230h-1zM145 39q-46 0 -78.5 32.5t-32.5 78.5
q0 45 33 70q30 24 78 24t79.5 -24.5t31.5 -69.5q0 -46 -32.5 -78.5t-78.5 -32.5zM197 450l-60 68h-43l60 -68h43z" />
    <glyph glyph-name="acircumflex" unicode="&#xe2;" horiz-adv-x="351" 
d="M160 407q-56 0 -100.5 -33.5t-59.5 -85.5h36q14 38 48 61.5t76 23.5q94 0 96 -128v-8q-41 42 -111 42q-62 0 -102 -34q-43 -36 -43 -94q0 -60 42.5 -102.5t102.5 -42.5q68 0 111 51v-43h35v231v0q-2 73 -33 115q-34 47 -98 47zM145 40q-46 0 -78.5 32.5t-32.5 78.5
q0 44 33 70q30 24 78 24t79.5 -25t31.5 -69q0 -46 -32.5 -78.5t-78.5 -32.5zM187 450l-60 68h-42l59 -68h43z" />
    <glyph glyph-name="ccedilla" unicode="&#xe7;" horiz-adv-x="380" 
d="M354 99h-42q-43 -52 -110 -59v33h-35v-33q-62 6 -99 55q-35 46 -35 111q0 71 40 119t106 48h9q75 0 125 -60h41q-59 94 -166 94h-9q-79 0 -129 -58.5t-50 -142.5q0 -80 46 -137t121 -63v-69h35v69q99 9 152 93z" />
    <glyph glyph-name="egrave" unicode="&#xe8;" 
d="M385 206q0 83 -57.5 142t-139.5 59h-9q-79 0 -129 -58.5t-50 -142.5q0 -82 46.5 -141t120.5 -59v0h8q6 -1 9 -1v0v0h9q105 5 161 94h-42q-49 -59 -128 -60h-7h-6q-63 5 -100 53q-36 45 -37 110h351q0 5 0 4zM36 236q8 60 46.5 98.5t96.5 38.5h9q60 0 105 -39.5t56 -97.5
h-313zM244 450l-60 68h-43l60 -68h43z" />
    <glyph glyph-name="eacute" unicode="&#xe9;" 
d="M385 206q0 83 -57.5 142t-139.5 59h-9q-79 0 -129 -58.5t-50 -142.5q0 -82 46.5 -141t120.5 -59v0h8q6 -1 9 -1v0v0h9q105 5 161 94h-42q-49 -59 -128 -60h-7h-6q-63 5 -100 53q-36 45 -37 110h351q0 5 0 4zM36 236q8 60 46.5 98.5t96.5 38.5h9q60 0 105 -39.5t56 -97.5
h-313zM244 518h-43l-60 -68h43z" />
    <glyph glyph-name="ecircumflex" unicode="&#xea;" 
d="M385 206q0 83 -57.5 142t-139.5 59h-9q-79 0 -129 -58.5t-50 -142.5q0 -82 46.5 -141t120.5 -59v0h8q6 -1 9 -1v0v0h9q105 5 161 94h-42q-49 -59 -128 -60h-7h-6q-63 5 -100 53q-36 45 -37 110h351q0 5 0 4zM36 236q8 60 46.5 98.5t96.5 38.5h9q60 0 105 -39.5t56 -97.5
h-313zM193 494l38 -44h43l-60 68h-43l-60 -68h43z" />
    <glyph glyph-name="edieresis" unicode="&#xeb;" 
d="M385 206q0 83 -57.5 142t-139.5 59h-9q-79 0 -129 -58.5t-50 -142.5q0 -82 46.5 -141t120.5 -59v0h8q6 -1 9 -1v0v0h9q105 5 161 94h-42q-49 -59 -128 -60h-7h-6q-63 5 -100 53q-36 45 -37 110h351q0 5 0 4zM36 236q8 60 46.5 98.5t96.5 38.5h9q60 0 105 -39.5t56 -97.5
h-313zM248 518h-34v-68h34v68zM171 518h-34v-68h34v68z" />
    <glyph glyph-name="icircumflex" unicode="&#xee;" horiz-adv-x="160" 
d="M103 586h-43l-60 -68h43l38 44l39 -44h42zM64 14h34v384h-34v-384z" />
    <glyph glyph-name="idieresis" unicode="&#xef;" horiz-adv-x="163" 
d="M0 518h34v68h-34v-68zM77 586v-68h34v68h-34zM38 14h35v384h-35v-384z" />
    <glyph glyph-name="ocircumflex" unicode="&#xf4;" horiz-adv-x="439" 
d="M192 494l39 -44h42l-59 68h-43l-60 -68h43zM192 407q-79 0 -135.5 -59t-56.5 -142t56.5 -142t135.5 -59q80 0 136.5 59t56.5 142t-56.5 142t-136.5 59zM192 39q-65 0 -111.5 49t-46.5 118t46.5 118t111.5 49q66 0 112 -49t46 -118t-46 -118t-112 -49z" />
    <glyph glyph-name="odieresis" unicode="&#xf6;" horiz-adv-x="160" 
 />
    <glyph glyph-name="ugrave" unicode="&#xf9;" horiz-adv-x="322" 
d="M226 398v-260v0q0 -94 -81 -94q-48 0 -78 24q-33 26 -33 70v260h-34v-260v0q0 -59 43 -95q40 -34 102 -34q53 0 81 28v-23h35v384h-35zM182 450l-60 68h-43l60 -68h43z" />
    <glyph glyph-name="ucircumflex" unicode="&#xfb;" horiz-adv-x="322" 
d="M130 494l39 -44h43l-60 68h-43v0l-60 -68h43zM226 398v-260v0q0 -94 -81 -94q-48 0 -78 24q-33 26 -33 70v260h-34v-260v0q0 -59 43 -95q40 -34 102 -34q53 0 81 28v-23h35v384h-35z" />
    <glyph glyph-name="udieresis" unicode="&#xfc;" horiz-adv-x="322" 
d="M186 518h-34v-68h34v68zM109 518h-34v-68h34v68zM226 398v-260v0q0 -94 -81 -94q-48 0 -78 24q-33 26 -33 70v260h-34v-260v0q0 -59 43 -95q40 -34 102 -34q53 0 81 28v-23h35v384h-35z" />
    <glyph glyph-name="yacute" unicode="&#xfd;" horiz-adv-x="626" 
d="M160 407q-56 0 -100.5 -33.5t-59.5 -85.5h36q14 38 48 61.5t76 23.5q94 0 96 -128v-8q-41 42 -111 42q-62 0 -102 -34q-43 -36 -43 -94q0 -60 42.5 -102.5t102.5 -42.5q68 0 111 51v-43h35v231v0q-2 73 -33 115q-34 47 -98 47zM145 40q-46 0 -78.5 32.5t-32.5 78.5
q0 44 33 70q30 24 78 24t79.5 -25t31.5 -69q0 -46 -32.5 -78.5t-78.5 -32.5zM187 450l-60 68h-42l59 -68h43zM523 -200h-34v1000h34v-1000zM459 697h115h-115zM459 14h115h-115z" />
    <glyph glyph-name="OE" unicode="&#x152;" horiz-adv-x="893" 
d="M872 663v34h-308v-179q-38 85 -109 136.5t-156 51.5q-124 0 -211.5 -102.5t-87.5 -247.5q0 -146 87.5 -248.5t211.5 -102.5q85 0 156 51.5t109 136.5v-179h308v34h-274v342h205v34h-205v239h274zM299 39q-110 0 -187.5 93t-77.5 224t77.5 223.5t187.5 92.5t187.5 -92.5
t77.5 -223.5t-77.5 -224t-187.5 -93z" />
    <glyph glyph-name="oe" unicode="&#x153;" horiz-adv-x="777" 
d="M735 202q0 5 0 4q0 82 -57.5 141.5t-139.5 59.5h-9q-57 0 -99.5 -31.5t-63.5 -83.5q-24 52 -70.5 83.5t-103.5 31.5q-79 0 -135.5 -59t-56.5 -142t56.5 -142t135.5 -59q57 0 104 31.5t70 83.5q45 -112 167 -115h1v0h9q3 0 8 1q100 8 153 93h-42q-49 -59 -128 -60h-7h-6
q-60 5 -96.5 47.5t-40.5 104.5q0 5 1 11h350zM529 373h9q60 0 105 -39.5t56 -97.5h-313q8 60 46.5 98.5t96.5 38.5zM192 39q-65 0 -111.5 49t-46.5 118t46.5 118t111.5 49q63 0 109 -46t49 -111v-10.5v-9.5q-3 -65 -49 -111t-109 -46z" />
    <glyph glyph-name="endash" unicode="&#x2013;" horiz-adv-x="240" 
d="M179 202h-179v34h179v-34z" />
    <glyph glyph-name="bullet" unicode="&#x2022;" horiz-adv-x="217" 
d="M154 219q0 -32 -22.5 -54.5t-54.5 -22.5t-54.5 22.5t-22.5 54.5t22.5 54.5t54.5 22.5t54.5 -22.5t22.5 -54.5z" />
    <glyph glyph-name="ellipsis" unicode="&#x2026;" horiz-adv-x="265" 
d="M0 14h34v102h-34v-102zM171 116v-102h34v102h-34zM85 14h35v102h-35v-102z" />
    <glyph glyph-name="Euro" unicode="&#x20ac;" horiz-adv-x="644" 
d="M604 153q-81 -114 -207 -114q-96 0 -169.5 70.5t-93.5 177.5h131v34h-136q-2 18 -2 35t2 34h136v34h-131q20 107 93.5 177.5t169.5 70.5q123 0 204 -109h37q-41 66 -104.5 104.5t-136.5 38.5q-108 0 -190.5 -80t-102.5 -202h-104v-34h99q-1 -17 -1 -34t1 -35h-99v-34h104
q20 -121 102.5 -201.5t190.5 -80.5q74 0 138.5 39.5t105.5 108.5h-37z" />
    <glyph glyph-name="minus" unicode="&#x2212;" horiz-adv-x="240" 
d="M179 202h-179v34h179v-34z" />
  </font>
</defs>
</svg>
