<?xml version="1.0" standalone="no"?>
<!DOCTYPE svg PUBLIC "-//W3C//DTD SVG 1.1//EN" "http://www.w3.org/Graphics/SVG/1.1/DTD/svg11.dtd" >
<svg xmlns="http://www.w3.org/2000/svg" xmlns:xlink="http://www.w3.org/1999/xlink" version="1.1">
<metadata>
Created by FontForge 20201107 at Thu Jan 19 14:10:40 2012
 By 
Generated by Fontographer 4.7
</metadata>
<defs>
<font id="SornetteRegularCondensed" horiz-adv-x="123" >
  <font-face 
    font-family="Sornette"
    font-weight="400"
    font-stretch="normal"
    units-per-em="1000"
    panose-1="0 0 4 0 0 0 0 0 0 0"
    ascent="800"
    descent="-200"
    x-height="413"
    cap-height="712"
    bbox="-166 -211 641 842"
    underline-thickness="20"
    underline-position="-143"
    unicode-range="U+0020-2212"
  />
<missing-glyph horiz-adv-x="500" 
d="M63 0v800h375v-800h-375zM125 63h250v675h-250v-675z" />
    <glyph glyph-name=".notdef" horiz-adv-x="500" 
d="M63 0v800h375v-800h-375zM125 63h250v675h-250v-675z" />
    <glyph glyph-name=".null" horiz-adv-x="0" 
 />
    <glyph glyph-name="nonmarkingreturn" 
 />
    <glyph glyph-name="space" unicode=" " 
 />
    <glyph glyph-name="exclam" unicode="!" horiz-adv-x="85" 
d="M-11 171v541h47v-541h-47zM-11 -1v132h47v-132h-47z" />
    <glyph glyph-name="quotedbl" unicode="&#x22;" horiz-adv-x="162" 
d="M70 469v209h46v-209h-46zM-11 469v209h47v-209h-47z" />
    <glyph glyph-name="percent" unicode="%" horiz-adv-x="289" 
d="M92 494q-30 0 -51.5 29.5t-21.5 71.5q0 41 21.5 70.5t51.5 29.5t51 -29.5t21 -70.5q0 -42 -21 -71.5t-51 -29.5zM35 -1h-53l264 713h53zM178 16q-30 0 -51 29.5t-21 70.5q0 42 21 71.5t51 29.5t51.5 -29.5t21.5 -71.5q0 -41 -21.5 -70.5t-51.5 -29.5zM92 631
q-26 0 -26 -36t26 -36t26 36t-26 36zM178 153q-26 0 -26 -37q0 -36 26 -36t26 36q0 37 -26 37z" />
    <glyph glyph-name="ampersand" unicode="&#x26;" horiz-adv-x="402" 
d="M308 -1l-50 85q-42 -97 -124 -97q-60 0 -102.5 58.5t-42.5 141.5q0 122 70 172l23 21l-47 80q-20 41 -20 93q0 68 34 117t82 51h1h4q56 0 91 -58q30 -50 30 -110q0 -89 -58 -143l-48 -44l93 -156l59 231h49l-74 -289l91 -153h-61zM79 485q8 -11 42 -69l59 53q31 35 31 84
q0 8 -1 16l3 -4q-9 12 -26 62q-9 28 -47 29h-4h-2q-33 -1 -54 -37q-18 -30 -18 -66q0 -34 17 -67v-1zM225 139l-113 191q-13 -12 -37 -36q-39 -44 -39 -107q0 -56 28.5 -96t69.5 -40q31 0 56 24.5t35 63.5z" />
    <glyph glyph-name="quotesingle" unicode="'" horiz-adv-x="147" 
d="M37 460h-55l67 175h55z" />
    <glyph glyph-name="parenleft" unicode="(" horiz-adv-x="210" 
d="M-11 276q0 164 43 280q50 136 140 136q11 -14 12 -64h-12q-66 2 -103 -109q-33 -98 -33 -243q0 -146 33 -243q37 -110 103 -110q11 -14 12 -64q-98 0 -151 136q-44 115 -44 281z" />
    <glyph glyph-name="parenright" unicode=")" horiz-adv-x="231" 
d="M1 -141q-11 14 -12 64h12q66 -1 103 109q33 98 33 244q0 145 -33 242q-37 110 -103 110q-11 14 -12 64h12q90 2 140 -135q43 -117 43 -281q0 -165 -43 -281q-50 -136 -140 -136z" />
    <glyph glyph-name="asterisk" unicode="*" horiz-adv-x="171" 
d="M96 504l-29 28v-48h-24v48l-29 -28l-14 28l34 33l-34 33l14 28l29 -28v48h24v-48l29 28l14 -28l-33 -33l33 -33z" />
    <glyph glyph-name="plus" unicode="+" horiz-adv-x="245" 
d="M122 187v-120h-46v120h-87v64h87v120h46v-120h86v-64h-86z" />
    <glyph glyph-name="comma" unicode="," horiz-adv-x="149" 
d="M37 -78h-55l67 175h55z" />
    <glyph glyph-name="period" unicode="." horiz-adv-x="86" 
d="M-11 -1v132h47v-132h-47z" />
    <glyph glyph-name="slash" unicode="/" horiz-adv-x="319" 
d="M34 -1h-52l263 713h52z" />
    <glyph glyph-name="zero" unicode="0" horiz-adv-x="355" 
d="M307 210q0 -91 -46.5 -155.5t-112.5 -64.5t-112.5 64.5t-46.5 155.5v291q0 91 46.5 155.5t112.5 64.5t112.5 -64.5t46.5 -155.5v-291zM261 210v291q0 64 -33 110t-80 46q-46 0 -79 -46t-33 -110v-291q0 -64 33 -110t79 -46q47 0 80 46t33 110z" />
    <glyph glyph-name="one" unicode="1" horiz-adv-x="225" 
d="M129 -1v610l-92 -166h-59l150 269h47v-713h-46z" />
    <glyph glyph-name="two" unicode="2" horiz-adv-x="309" 
d="M-11 -1v49l5 -12q-3 19 204 440q14 29 14 63q0 49 -25 83.5t-60 34.5q-32 0 -55.5 -30.5t-29.5 -80.5h-47q7 78 44 126.5t88 48.5q54 0 92.5 -53t38.5 -129q0 -56 -26 -108l-182 -368h227v-64h-288z" />
    <glyph glyph-name="three" unicode="3" horiz-adv-x="338" 
d="M139 -10q-53 0 -94.5 47t-58.5 128h47q13 -51 41.5 -81t64.5 -30q46 0 78.5 44.5t32.5 107.5q0 60 -30 104t-74 48q-3 0 -16 -1v65q42 1 68 34.5t26 82.5t-24.5 83.5t-60.5 34.5q-32 0 -55.5 -30.5t-29.5 -80.5h-46q7 78 44 126.5t87 48.5q55 0 93.5 -53t38.5 -129
q0 -91 -54 -146q78 -62 78 -187q0 -89 -45.5 -152.5t-110.5 -63.5z" />
    <glyph glyph-name="four" unicode="4" horiz-adv-x="349" 
d="M249 135v-136h-47v136h-220l221 577h46v-265.5t0 -246.5h61v-65h-61zM202 573l-143 -373h143v373z" />
    <glyph glyph-name="five" unicode="5" horiz-adv-x="326" 
d="M139 -10q-53 0 -94.5 47t-58.5 128h47q13 -51 41.5 -81t64.5 -30q44 0 77.5 53.5t33.5 119.5t-33.5 120t-77.5 54q-64 0 -99 -86h-45v210q1 191 1 187h281v-64h-235v-231q43 48 97 48q64 0 110 -73.5t46 -164.5q0 -90 -45 -162q-47 -75 -111 -75z" />
    <glyph glyph-name="six" unicode="6" horiz-adv-x="333" 
d="M-3 151v0l1 361q0 96 39.5 152.5t104.5 56.5q50 0 89.5 -46.5t58.5 -128.5h-48q-31 111 -100 111q-43 0 -74.5 -50.5t-31.5 -122.5v-86q44 67 106 67q64 0 108.5 -70t44.5 -168q0 -97 -44.5 -167t-108.5 -70q-50 0 -89.5 45t-55.5 116zM142 400q-43 0 -74.5 -50
t-31.5 -123q0 -72 31.5 -122.5t74.5 -50.5q44 0 75.5 50.5t31.5 122.5q0 73 -31.5 123t-75.5 50z" />
    <glyph glyph-name="seven" unicode="7" horiz-adv-x="292" 
d="M194 422h70v-64h-93l-133 -359h-53l133 359h-73v64h97l83 226h-236v64h313z" />
    <glyph glyph-name="eight" unicode="8" horiz-adv-x="344" 
d="M145 -10q-64 0 -110 63.5t-46 152.5q0 125 78 187q-53 55 -53 146q0 76 38.5 129t92.5 53t92.5 -53t38.5 -129q0 -91 -53 -146q78 -62 78 -187q0 -89 -45.5 -152.5t-110.5 -63.5zM145 657q-35 0 -60 -34.5t-25 -83.5q0 -48 25 -82.5t60 -34.5t60 34.5t25 82.5
q0 49 -25 83.5t-60 34.5zM153 358h-7.5h-7.5q-43 -4 -73 -48t-30 -104q0 -63 32.5 -107.5t77.5 -44.5q46 0 78 44.5t32 107.5q0 60 -29.5 104t-72.5 48z" />
    <glyph glyph-name="nine" unicode="9" horiz-adv-x="343" 
d="M142 -18q-50 0 -89.5 46.5t-58.5 128.5h48q32 -111 100 -111q44 0 75.5 50t31.5 123v95q-45 -67 -107 -67q-64 0 -108.5 69.5t-44.5 167.5q0 97 44.5 167t108.5 70t108.5 -70t44.5 -167v-265q8 -95 -39.5 -166t-113.5 -71zM142 657q-43 0 -74.5 -50.5t-31.5 -122.5
q0 -73 31.5 -123t74.5 -50q44 0 75.5 50t31.5 123q0 72 -31.5 122.5t-75.5 50.5z" />
    <glyph glyph-name="colon" unicode=":" horiz-adv-x="83" 
d="M-11 158v116h47v-116h-47zM-11 -1v115h47v-115h-47z" />
    <glyph glyph-name="semicolon" unicode=";" horiz-adv-x="147" 
d="M48 141v133h47v-133h-47zM37 -78h-55l67 175h55z" />
    <glyph glyph-name="less" unicode="&#x3c;" horiz-adv-x="324" 
d="M-11 192v61l300 150v-69l-224 -112l224 -111v-69z" />
    <glyph glyph-name="equal" unicode="=" horiz-adv-x="245" 
d="M-11 278v64h219v-64h-219zM-11 135v65h219v-65h-219z" />
    <glyph glyph-name="greater" unicode="&#x3e;" horiz-adv-x="313" 
d="M-11 42v69l224 111l-224 112v69l300 -150v-61z" />
    <glyph glyph-name="question" unicode="?" horiz-adv-x="264" 
d="M134 229v-86h-46v93q0 19 11 51l3 8q58 123 89 181q13 27 13 63q0 49 -24.5 83.5t-60.5 34.5q-32 0 -55.5 -30.5t-29.5 -80.5h-46q7 78 44 126.5t87 48.5q55 0 93.5 -53t38.5 -129q0 -55 -26 -108l-86 -173q-5 -11 -5 -29zM90 -1v108h46v-108h-46z" />
    <glyph glyph-name="at" unicode="@" horiz-adv-x="480" 
d="M285 259q-20 99 -65 99q-61 0 -82 -76h-48q30 140 130 140q53 0 80 -54q24 -46 26 -123v0v-231q0 -37 26 -37q12 0 22 11.5t10 25.5v196q0 129 -47.5 215t-120.5 86q-74 0 -127 -87.5t-53 -213.5t53 -213.5t127 -87.5q32 0 66 35v-74q-32 -30 -91 -30q-92 0 -149 110
q-53 105 -53 260q0 151 66 258.5t161 107.5q94 0 155 -109q60 -105 60 -257v-196q0 -42 -24.5 -71.5t-54.5 -29.5t-51.5 29.5t-21.5 71.5v8q-30 -32 -69 -32q-48 0 -82 47t-34 113t35 106q32 38 81 38q44 0 75 -35zM210 229q-31 0 -50 -21t-19 -58q0 -39 20 -67.5t49 -28.5
t49 28.5t20 67.5q0 37 -19 58t-50 21z" />
    <glyph glyph-name="A" unicode="A" horiz-adv-x="347" 
d="M81 238l-48 -239h-47l142 713h41l142 -713h-48l-47 239h-135zM148 579l-55 -277h110z" />
    <glyph glyph-name="B" unicode="B" horiz-adv-x="302" 
d="M99 -1h-110v713h110q49 0 84 -48t35 -116q0 -77 -43 -127q39 -28 62.5 -81t23.5 -117q0 -93 -47.5 -158.5t-114.5 -65.5zM99 648h-63v-201h63q30 0 51 29.5t21 71.5q0 41 -21 70.5t-51 29.5zM99 383h-63v-320h63q48 0 82 47t34 113t-34 113t-82 47z" />
    <glyph glyph-name="C" unicode="C" horiz-adv-x="435" 
d="M216 -12q-95 0 -161 107.5t-66 257.5q0 151 66 258.5t161 107.5q116 0 194 -173h-52q-58 109 -142 109q-76 0 -130 -88t-54 -214q0 -125 54 -213t130 -88q86 0 144 113h52q-78 -177 -196 -177z" />
    <glyph glyph-name="D" unicode="D" horiz-adv-x="350" 
d="M87 -1h-98v713h114q87 0 147.5 -107t60.5 -249q0 -147 -65.5 -252t-158.5 -105zM92 649h-56v-586h50q75 0 128.5 85.5t53.5 208.5q0 120 -51.5 204.5t-124.5 87.5z" />
    <glyph glyph-name="E" unicode="E" horiz-adv-x="264" 
d="M-11 -1v713h244v-64h-197v-209h148v-64h-148v-312h197v-64h-244z" />
    <glyph glyph-name="F" unicode="F" horiz-adv-x="261" 
d="M36 648v-209h148v-64h-148v-376h-47v713h244v-64h-197z" />
    <glyph glyph-name="G" unicode="G" horiz-adv-x="480" 
d="M216 -10q-95 0 -161 107.5t-66 258.5q0 150 66 257.5t161 107.5q117 0 195 -175h-52q-58 111 -143 111q-76 0 -130 -88t-54 -213q0 -126 54 -214t130 -88q73 0 126.5 83t57.5 203h-189v64h232v-49q0 -150 -66 -257.5t-161 -107.5z" />
    <glyph glyph-name="H" unicode="H" horiz-adv-x="307" 
d="M211 -1v359h-175v-359h-47v713h47v-290h175v290h47v-713h-47z" />
    <glyph glyph-name="I" unicode="I" horiz-adv-x="105" 
d="M10 -1v713h46v-713h-46z" />
    <glyph glyph-name="J" unicode="J" horiz-adv-x="318" 
d="M128 -10q-58 0 -99 57t-40 136v17h47v-17q-1 -53 26.5 -91t65.5 -38q39 0 66 38t27 91v529h47v-527q0 -80 -41 -137.5t-99 -57.5z" />
    <glyph glyph-name="K" unicode="K" horiz-adv-x="310" 
d="M226 -1l-158 369l-32 -60v-309h-47v713h47v-298l166 298h58l-161 -290l181 -423h-54z" />
    <glyph glyph-name="L" unicode="L" horiz-adv-x="250" 
d="M-11 -1v713h47v-649h197v-64h-244z" />
    <glyph glyph-name="M" unicode="M" horiz-adv-x="405" 
d="M309 -1v495l-115 -495h-44l-114 495v-495h-47v713h45l137 -594l138 594h47v-713h-47z" />
    <glyph glyph-name="N" unicode="N" horiz-adv-x="329" 
d="M235 -1l-199 564v-564h-47v713h45l200 -563v563h46v-713h-45z" />
    <glyph glyph-name="O" unicode="O" horiz-adv-x="483" 
d="M216 -10q-95 0 -161 107.5t-66 258.5q0 150 66 257.5t161 107.5t161 -107.5t66 -257.5q0 -151 -66 -258.5t-161 -107.5zM216 657q-74 0 -127 -88t-53 -213q0 -126 53 -214t127 -88t127.5 88t53.5 214q0 125 -53.5 213t-127.5 88z" />
    <glyph glyph-name="P" unicode="P" horiz-adv-x="272" 
d="M99 306h-63v-307h-47v713h110q61 0 103.5 -59.5t42.5 -143.5t-42.5 -143.5t-103.5 -59.5zM99 648h-63v-277h63q41 0 70.5 40.5t29.5 97.5q0 58 -29.5 98.5t-70.5 40.5z" />
    <glyph glyph-name="Q" unicode="Q" horiz-adv-x="484" 
d="M339 48l51 -118h-54l-37 85q-40 -25 -83 -25q-95 0 -161 107.5t-66 258.5q0 150 66 257.5t161 107.5t161 -107.5t66 -257.5q0 -95 -28 -176.5t-76 -131.5zM216 657q-74 0 -127 -88t-53 -213q0 -126 53 -214t127 -88q31 0 60 17l-59 137h54l44 -104q82 89 82 252
q0 125 -53.5 213t-127.5 88z" />
    <glyph glyph-name="R" unicode="R" horiz-adv-x="297" 
d="M206 -1l-128 307h-42v-307h-47v713h110q61 0 103.5 -59.5t42.5 -143.5q0 -72 -32.5 -127.5t-82.5 -70.5l129 -312h-53zM99 648h-63v-277h63q41 0 70.5 40.5t29.5 97.5q0 58 -29.5 98.5t-70.5 40.5z" />
    <glyph glyph-name="S" unicode="S" horiz-adv-x="314" 
d="M129 -12q-109 0 -143 167h48q26 -102 95 -102q41 0 69.5 40t28.5 96q0 72 -46 114l-117 109q-58 54 -58 143q0 70 35 119t86 49q52 0 85 -49q30 -44 36 -116h-46q-12 100 -75 100q-31 0 -53 -30t-22 -73q0 -56 31 -84l121 -110q70 -64 70 -172q0 -83 -42.5 -142
t-102.5 -59z" />
    <glyph glyph-name="T" unicode="T" horiz-adv-x="285" 
d="M147 648v-649h-47v649h-111v64h269v-64h-111z" />
    <glyph glyph-name="U" unicode="U" horiz-adv-x="356" 
d="M148 -10q-66 0 -112.5 64.5t-46.5 155.5v502h47v-502q0 -64 33 -110t79 -46q47 0 80 46t33 110v502h46v-502q0 -93 -46 -156.5t-113 -63.5z" />
    <glyph glyph-name="V" unicode="V" horiz-adv-x="329" 
d="M162 -1h-43l-133 713h48l106 -572l107 572h48z" />
    <glyph glyph-name="W" unicode="W" horiz-adv-x="530" 
d="M363 -1h-44l-78 538l-78 -538h-44l-133 713h48l104 -557l81 557h44l81 -557l104 557h48z" />
    <glyph glyph-name="X" unicode="X" horiz-adv-x="334" 
d="M245 -1l-105 286l-106 -286h-52l132 357l-132 356h52l106 -286l105 286h52l-131 -356l131 -357h-52z" />
    <glyph glyph-name="Y" unicode="Y" horiz-adv-x="324" 
d="M163 348v-349h-47v349l-134 364h52l106 -286l105 286h52z" />
    <glyph glyph-name="Z" unicode="Z" horiz-adv-x="324" 
d="M58 63h231v-64h-307l239 649h-219v64h295z" />
    <glyph glyph-name="underscore" unicode="_" horiz-adv-x="366" 
d="M-11 -70v64h318v-64h-318z" />
    <glyph glyph-name="a" unicode="a" horiz-adv-x="270" 
d="M173 269q-6 89 -58 89q-58 0 -79 -74h-48q30 138 127 138q53 0 81 -54q25 -47 25 -123v-246h-47v23q-30 -32 -69 -32q-48 0 -82 47t-34 113t35 106q32 38 81 38q39 0 68 -25zM105 229q-31 0 -50 -21t-19 -58q0 -39 20 -67.5t49 -28.5t49 28.5t20 67.5q0 37 -19 58t-50 21
z" />
    <glyph glyph-name="b" unicode="b" horiz-adv-x="331" 
d="M139 -10q-60 0 -103 60v-51h-47v619h47v-256q43 60 103 60q62 0 106 -63.5t44 -152.5t-44 -152.5t-106 -63.5zM139 358q-43 0 -73 -44.5t-30 -107.5t30 -107.5t73 -44.5t73 44.5t30 107.5t-30 107.5t-73 44.5z" />
    <glyph glyph-name="c" unicode="c" horiz-adv-x="301" 
d="M140 -10h-7h-7q-62 3 -101 68q-36 61 -36 148q0 90 38 151q40 65 103 65h6q83 0 140 -124h-55q-36 60 -85 60h-6q-43 0 -69 -43.5t-26 -108.5q0 -61 23 -103q25 -45 66 -49h4h5h2h3q47 1 83 60h55q-55 -121 -136 -124z" />
    <glyph glyph-name="d" unicode="d" horiz-adv-x="339" 
d="M242 -1v51q-43 -60 -103 -60q-62 0 -106 63.5t-44 152.5t44 152.5t106 63.5q60 0 103 -60v256h47v-619h-47zM139 358q-43 0 -73 -44.5t-30 -107.5t30 -107.5t73 -44.5t73 44.5t30 107.5t-30 107.5t-73 44.5z" />
    <glyph glyph-name="e" unicode="e" horiz-adv-x="325" 
d="M289 187h-253q4 -56 27.5 -93t60.5 -40h4h5h2h3q47 1 83 60h55q-55 -121 -136 -124h-7h-7q-62 3 -101 68q-36 61 -36 148q0 90 38 151q40 65 103 65h6q64 0 109.5 -64t43.5 -152v-19zM136 358h-6q-35 0 -59 -29.5t-32 -77.5h199q-10 47 -38.5 77t-63.5 30z" />
    <glyph glyph-name="f" unicode="f" horiz-adv-x="186" 
d="M131 657q-58 0 -58 -113v-131h74v-64h-74v-350h-47v350h-37v64h37v131q0 76 25 123q28 54 80 54q2 0 16 -1v-64z" />
    <glyph glyph-name="g" unicode="g" horiz-adv-x="338" 
d="M242 -23v66q-38 -53 -93 -53h-7q-63 0 -108 63.5t-45 152.5q0 75 37 138q43 75 113 78h6h7q52 -2 90 -53v44h47v-193v-7v-7v-7v-8v-235q0 -69 -26 -114q-29 -48 -80 -48q-45 0 -80 39.5t-50 109.5h48q24 -85 82 -85q59 0 59 119zM242 227q-4 55 -27.5 91.5t-60.5 39.5h-4
h-5h-4q-49 -3 -79 -54q-27 -46 -27 -98q0 -63 31.5 -107.5t75.5 -44.5h7q38 0 63.5 36.5t29.5 93.5v43z" />
    <glyph glyph-name="h" unicode="h" horiz-adv-x="269" 
d="M175 -1v275q0 37 -19 58t-51 21q-69 0 -69 -94v-260h-47v654h47v-261q29 26 69 26q49 0 82.5 -39t33.5 -104v-276h-46z" />
    <glyph glyph-name="i" unicode="i" horiz-adv-x="92" 
d="M-4 477v124h47v-124h-47zM-4 -1v414h47v-414h-47z" />
    <glyph glyph-name="j" unicode="j" horiz-adv-x="116" 
d="M23 477v124h46v-124h-46zM-36 -206q-46 0 -80.5 39.5t-49.5 109.5h48q23 -85 82 -85q58 0 58 113v447h47v-447q0 -76 -25 -124q-28 -53 -80 -53z" />
    <glyph glyph-name="k" unicode="k" horiz-adv-x="264" 
d="M98 114q-35 3 -62 32v-147h-47v654h47v-261q29 26 69 26q49 0 82.5 -39t33.5 -105q0 -51 -21.5 -92.5t-55.5 -58.5q12 -60 65 -60v-64q-92 0 -111 115zM105 353q-31 0 -50 -21t-19 -58q0 -39 20.5 -67.5t48.5 -28.5q29 0 49.5 28.5t20.5 67.5q0 37 -19 58t-51 21z" />
    <glyph glyph-name="l" unicode="l" horiz-adv-x="91" 
d="M-4 -1v654h46v-654h-46z" />
    <glyph glyph-name="m" unicode="m" horiz-adv-x="407" 
d="M360 -2h-47v276q0 37 -19 58t-50 21q-30 0 -40 -27q-5 -15 -5 -53v-275h-46v275q0 37 -19.5 58.5t-50.5 21.5q-27 0 -37 -20.5t-10 -73.5v-261h-47v415h47v-10q20 14 47 14q55 0 88 -45q22 45 73 45q48 0 81 -37q35 -40 35 -106v-276z" />
    <glyph glyph-name="n" unicode="n" horiz-adv-x="247" 
d="M199 -1h-46v275q0 37 -19 58t-51 21q-27 0 -37 -20t-10 -74v-260h-47v414h47v-9q20 14 47 14q49 0 82.5 -38.5t33.5 -104.5v-276z" />
    <glyph glyph-name="o" unicode="o" horiz-adv-x="337" 
d="M139 -10q-62 0 -106 63.5t-44 152.5t44 152.5t106 63.5t106 -63.5t44 -152.5t-44 -152.5t-106 -63.5zM139 358q-43 0 -73 -44.5t-30 -107.5t30 -107.5t73 -44.5t73 44.5t30 107.5t-30 107.5t-73 44.5z" />
    <glyph glyph-name="p" unicode="p" horiz-adv-x="330" 
d="M139 -10q-60 0 -103 60v-256h-47v619h47v-51q43 60 103 60q62 0 106 -63.5t44 -152.5t-44 -152.5t-106 -63.5zM139 358q-43 0 -73 -44.5t-30 -107.5t30 -107.5t73 -44.5t73 44.5t30 107.5t-30 107.5t-73 44.5z" />
    <glyph glyph-name="q" unicode="q" horiz-adv-x="342" 
d="M242 -206v256q-43 -60 -103 -60q-62 0 -106 63.5t-44 152.5t44 152.5t106 63.5q60 0 103 -60v51h47v-619h-47zM139 358q-43 0 -73 -44.5t-30 -107.5t30 -107.5t73 -44.5t73 44.5t30 107.5t-30 107.5t-73 44.5z" />
    <glyph glyph-name="r" unicode="r" horiz-adv-x="134" 
d="M36 274v-275h-47v414h47v-25q18 30 58 30v-65q-34 0 -46 -17.5t-12 -61.5z" />
    <glyph glyph-name="s" unicode="s" horiz-adv-x="211" 
d="M79 -10q-34 0 -59 32t-33 88h47q11 -56 45 -56q18 0 31.5 18.5t13.5 43.5q0 37 -24 55l-72 55l1 2q-29 33 -29 85q0 45 22.5 77t54.5 32t54 -33t24 -86h-46q-3 55 -32 55q-13 0 -22 -13t-9 -32q0 -27 14 -38q66 -51 73 -59q37 -40 37 -100q0 -52 -26.5 -89t-64.5 -37z
" />
    <glyph glyph-name="t" unicode="t" horiz-adv-x="186" 
d="M73 349v-350h-47v350h-37v64h37v163h47v-163h74v-64h-74z" />
    <glyph glyph-name="u" unicode="u" horiz-adv-x="248" 
d="M153 -1v9q-20 -14 -48 -14q-49 0 -81 38q-35 39 -35 105v276h47v-275q0 -37 19 -58t50 -21q27 0 37 20t10 74l1 260h46v-414h-46z" />
    <glyph glyph-name="v" unicode="v" horiz-adv-x="282" 
d="M137 -1h-44l-108 414h49l81 -310l80 310h50z" />
    <glyph glyph-name="w" unicode="w" horiz-adv-x="327" 
d="M209 -1h-43l-30 220l-29 -220h-44l-77 414h48l47 -252l33 252h44l34 -252l47 252h47z" />
    <glyph glyph-name="x" unicode="x" horiz-adv-x="238" 
d="M143 -1l-54 139l-54 -139h-53l80 207l-80 207h53l54 -139l54 139h52l-80 -207l80 -207h-52z" />
    <glyph glyph-name="y" unicode="y" horiz-adv-x="259" 
d="M210 -33q0 -77 -25 -124q-28 -54 -80 -54q-46 0 -80.5 40t-49.5 110h48q23 -86 82 -86t59 114v41q-20 -14 -48 -14q-48 0 -82 38.5t-34 104.5v276h47v-275q0 -37 19 -58t50 -21q48 0 48 71v283h46v-446z" />
    <glyph glyph-name="z" unicode="z" horiz-adv-x="235" 
d="M-18 -1l136 350h-124v64h201l-136 -350h129v-64h-206z" />
    <glyph glyph-name="nonbreakingspace" unicode="&#xa0;" 
 />
    <glyph glyph-name="guillemotleft" unicode="&#xab;" 
 />
    <glyph glyph-name="hyphen" unicode="&#xad;" horiz-adv-x="189" 
d="M-11 187v64h152v-64h-152z" />
    <glyph glyph-name="macron" unicode="&#xaf;" horiz-adv-x="189" 
d="M-11 187v64h152v-64h-152z" />
    <glyph glyph-name="macron" unicode="&#x2c9;" horiz-adv-x="189" 
d="M-11 187v64h152v-64h-152z" />
    <glyph glyph-name="degree" unicode="&#xb0;" horiz-adv-x="179" 
d="M62 477q-30 0 -51.5 29.5t-21.5 71.5q0 41 21.5 70.5t51.5 29.5t51 -29.5t21 -70.5q0 -42 -21 -71.5t-51 -29.5zM62 614q-26 0 -26 -36q0 -37 26 -37t26 37q0 36 -26 36z" />
    <glyph glyph-name="Agrave" unicode="&#xc0;" horiz-adv-x="347" 
d="M149 740l-62 98h60l62 -98h-60zM81 238l-48 -239h-47l142 713h41l142 -713h-48l-47 239h-135zM148 579l-55 -277h110z" />
    <glyph glyph-name="Acircumflex" unicode="&#xc2;" horiz-adv-x="347" 
d="M174 740l-23 36l-23 -36h-59l62 98h41l62 -98h-60zM81 238l-48 -239h-47l142 713h41l142 -713h-48l-47 239h-135zM148 579l-55 -277h110z" />
    <glyph glyph-name="Ccedilla" unicode="&#xc7;" horiz-adv-x="417" 
d="M239 -8v-79h-46v79q-87 14 -145.5 118.5t-58.5 245.5q0 150 66 257.5t161 107.5q116 0 194 -173h-52q-58 109 -142 109q-76 0 -130 -88t-54 -213q0 -116 46.5 -200.5t114.5 -98.5v40h46v-40q71 14 121 111h52q-70 -159 -173 -176z" />
    <glyph glyph-name="Egrave" unicode="&#xc8;" horiz-adv-x="255" 
d="M112 740l-62 98h60l62 -98h-60zM-11 -1v713h244v-64h-197v-209h148v-64h-148v-312h197v-64h-244z" />
    <glyph glyph-name="Eacute" unicode="&#xc9;" horiz-adv-x="255" 
d="M110 740h-60l62 98h60zM-11 -1v713h244v-64h-197v-209h148v-64h-148v-312h197v-64h-244z" />
    <glyph glyph-name="Ecircumflex" unicode="&#xca;" horiz-adv-x="255" 
d="M134 740l-23 36l-23 -36h-59l62 98h41l62 -98h-60zM-11 -1v713h244v-64h-197v-209h148v-64h-148v-312h197v-64h-244z" />
    <glyph glyph-name="Edieresis" unicode="&#xcb;" horiz-adv-x="255" 
d="M127 740v98h47v-98h-47zM49 740v98h46v-98h-46zM-11 -1v713h244v-64h-197v-209h148v-64h-148v-312h197v-64h-244z" />
    <glyph glyph-name="Icircumflex" unicode="&#xce;" horiz-adv-x="133" 
d="M82 740l-23 36l-23 -36h-60l62 98h41l62 -98h-59zM35 -1v713h47v-713h-47z" />
    <glyph glyph-name="Idieresis" unicode="&#xcf;" horiz-adv-x="113" 
d="M45 740v98h46v-98h-46zM-11 740v98h47v-98h-47zM17 -1v713h46v-713h-46z" />
    <glyph glyph-name="Ocircumflex" unicode="&#xd4;" horiz-adv-x="483" 
d="M239 744l-23 36l-23 -36h-59l62 98h40l63 -98h-60zM216 -10q-95 0 -161 107.5t-66 258.5q0 150 66 257.5t161 107.5t161 -107.5t66 -257.5q0 -151 -66 -258.5t-161 -107.5zM216 657q-74 0 -127 -88t-53 -213q0 -126 53 -214t127 -88t127.5 88t53.5 214q0 125 -53.5 213
t-127.5 88z" />
    <glyph glyph-name="Ugrave" unicode="&#xd9;" horiz-adv-x="356" 
d="M149 740l-62 98h60l62 -98h-60zM148 -10q-66 0 -112.5 64.5t-46.5 155.5v502h47v-502q0 -64 33 -110t79 -46q47 0 80 46t33 110v502h46v-502q0 -91 -46.5 -155.5t-112.5 -64.5z" />
    <glyph glyph-name="Ucircumflex" unicode="&#xdb;" horiz-adv-x="356" 
d="M171 740l-23 36l-23 -36h-59l62 98h41l62 -98h-60zM148 -10q-66 0 -112.5 64.5t-46.5 155.5v502h47v-502q0 -64 33 -110t79 -46q47 0 80 46t33 110v502h46v-502q0 -91 -46.5 -155.5t-112.5 -64.5z" />
    <glyph glyph-name="Udieresis" unicode="&#xdc;" horiz-adv-x="356" 
d="M164 740v98h47v-98h-47zM86 740v98h46v-98h-46zM148 -10q-66 0 -112.5 64.5t-46.5 155.5v502h47v-502q0 -64 33 -110t79 -46q47 0 80 46t33 110v502h46v-502q0 -91 -46.5 -155.5t-112.5 -64.5z" />
    <glyph glyph-name="agrave" unicode="&#xe0;" horiz-adv-x="270" 
d="M99 443l-62 98h60l62 -98h-60zM173 269q-6 89 -58 89q-59 0 -80 -77h-48q30 141 128 141q53 0 81 -53q25 -48 25 -124v-246h-47v24q-30 -32 -69 -32q-48 0 -82 47t-34 113t35 106q32 37 81 37q39 0 68 -25zM105 230q-31 0 -50 -21t-19 -58q0 -40 20 -68t49 -28t49 28
t20 68q0 37 -19 58t-50 21z" />
    <glyph glyph-name="acircumflex" unicode="&#xe2;" horiz-adv-x="270" 
d="M134 442l-23 37l-23 -37h-60l63 99h40l62 -99h-59zM173 269q-6 89 -58 89q-59 0 -80 -78h-48q30 142 128 142q53 0 81 -54q25 -47 25 -123v-246h-47v23q-30 -32 -69 -32q-48 0 -82 47t-34 113t35 106q32 38 81 38q39 0 68 -25zM105 230q-31 0 -50 -21.5t-19 -58.5
q0 -39 20 -67.5t49 -28.5t49 28.5t20 67.5q0 37 -19 58.5t-50 21.5z" />
    <glyph glyph-name="ccedilla" unicode="&#xe7;" horiz-adv-x="301" 
d="M157 -7v-71h-47v71q-55 11 -88 71t-33 142q0 90 38 151q40 65 103 65h6q83 0 140 -124h-55q-36 60 -85 60h-6q-43 0 -69 -43t-26 -109q0 -54 19 -94q20 -44 56 -55v43h47v-43q36 12 64 57h55q-49 -107 -119 -121z" />
    <glyph glyph-name="egrave" unicode="&#xe8;" horiz-adv-x="325" 
d="M140 475l-62 98h60l62 -98h-60zM289 187h-253q4 -55 27.5 -92.5t60.5 -40.5h4h5h2h3q47 2 83 60h55q-55 -121 -136 -124h-7h-7q-71 3 -108 78q-29 59 -29 138q0 90 38 151q40 65 103 65h6q64 0 109.5 -64t43.5 -152v-19zM136 358h-6q-35 0 -59 -29.5t-32 -77.5h199
q-10 47 -38.5 77t-63.5 30z" />
    <glyph glyph-name="eacute" unicode="&#xe9;" horiz-adv-x="325" 
d="M138 475h-60l62 98h60zM289 187h-253q4 -55 27.5 -92.5t60.5 -40.5h4h5h2h3q47 2 83 60h55q-55 -121 -136 -124h-7h-7q-71 3 -108 78q-29 59 -29 138q0 90 38 151q40 65 103 65h6q64 0 109.5 -64t43.5 -152v-19zM136 358h-6q-35 0 -59 -29.5t-32 -77.5h199
q-10 47 -38.5 77t-63.5 30z" />
    <glyph glyph-name="ecircumflex" unicode="&#xea;" horiz-adv-x="325" 
d="M162 475l-23 36l-23 -36h-59l62 98h40l63 -98h-60zM289 187h-253q4 -55 27.5 -92.5t60.5 -40.5h4h5h2h3q47 2 83 60h55q-55 -121 -136 -124h-7h-7q-71 3 -108 78q-29 59 -29 138q0 90 38 151q40 65 103 65h6q64 0 109.5 -64t43.5 -152v-19zM136 358h-6q-35 0 -59 -29.5
t-32 -77.5h199q-10 47 -38.5 77t-63.5 30z" />
    <glyph glyph-name="edieresis" unicode="&#xeb;" horiz-adv-x="325" 
d="M155 475v98h47v-98h-47zM77 475v98h46v-98h-46zM289 187h-253q4 -55 27.5 -92.5t60.5 -40.5h4h5h2h3q47 2 83 60h55q-55 -121 -136 -124h-7h-7q-71 3 -108 78q-29 59 -29 138q0 90 38 151q40 65 103 65h6q64 0 109.5 -64t43.5 -152v-19zM136 358h-6q-35 0 -59 -29.5
t-32 -77.5h199q-10 47 -38.5 77t-63.5 30z" />
    <glyph glyph-name="icircumflex" unicode="&#xee;" horiz-adv-x="132" 
d="M82 543l-23 36l-23 -36h-60l62 98h41l62 -98h-59zM35 -1v414h47v-414h-47z" />
    <glyph glyph-name="idieresis" unicode="&#xef;" horiz-adv-x="124" 
d="M56 543v98h47v-98h-47zM-22 543v98h46v-98h-46zM17 -1v414h46v-414h-46z" />
    <glyph glyph-name="ocircumflex" unicode="&#xf4;" horiz-adv-x="332" 
d="M162 446l-23 36l-23 -36h-60l63 98h40l62 -98h-59zM139 -10q-62 0 -106 63.5t-44 152.5t44 152.5t106 63.5t106 -63.5t44 -152.5t-44 -152.5t-106 -63.5zM139 358q-43 0 -73 -44.5t-30 -107.5t30 -107.5t73 -44.5t73 44.5t30 107.5t-30 107.5t-73 44.5z" />
    <glyph glyph-name="ugrave" unicode="&#xf9;" horiz-adv-x="248" 
d="M95 443l-62 98h60l62 -98h-60zM153 -1v9q-20 -14 -48 -14q-49 0 -81 38q-35 40 -35 106v275h47v-275q0 -37 19 -58t50 -21q27 0 37 20t10 74l1 260h46v-414h-46z" />
    <glyph glyph-name="ucircumflex" unicode="&#xfb;" horiz-adv-x="248" 
d="M117 443l-23 36l-23 -36h-59l62 98h41l62 -98h-60zM153 -1v9q-20 -14 -48 -14q-49 0 -81 38q-35 40 -35 106v275h47v-275q0 -37 19 -58t50 -21q27 0 37 20t10 74l1 260h46v-414h-46z" />
    <glyph glyph-name="udieresis" unicode="&#xfc;" horiz-adv-x="248" 
d="M102 443v98h46v-98h-46zM40 443v98h47v-98h-47zM153 -1v9q-20 -14 -48 -14q-49 0 -81 38q-35 40 -35 106v275h47v-275q0 -37 19 -58t50 -21q27 0 37 20t10 74l1 260h46v-414h-46z" />
    <glyph glyph-name="OE" unicode="&#x152;" horiz-adv-x="662" 
d="M397 -1v135q-68 -144 -181 -144q-95 0 -161 107.5t-66 258.5q0 150 66 257.5t161 107.5q113 0 181 -144v135h244v-64h-198v-209h148v-64h-148v-312h198v-64h-244zM216 657q-74 0 -127 -88t-53 -213q0 -126 53 -214t127 -88t127.5 88t53.5 214q0 125 -53.5 213t-127.5 88z
" />
    <glyph glyph-name="oe" unicode="&#x153;" horiz-adv-x="578" 
d="M289 187q3 -56 26.5 -93t61.5 -40h4h5h2h2q48 1 83 60h55q-55 -121 -136 -124h-6h-7q-76 3 -115 97q-45 -97 -125 -97q-62 0 -106 63.5t-44 152.5t44 152.5t106 63.5q80 0 125 -97q40 97 119 97h6q64 0 109.5 -64t43.5 -152v-19h-253zM389 358h-6q-35 0 -59 -29.5
t-32 -77.5h199q-10 47 -38.5 77t-63.5 30zM139 358q-43 0 -73 -44.5t-30 -107.5t30 -107.5t73 -44.5q41 0 71 41.5t32 100.5v9.5v9.5q-2 60 -32 101.5t-71 41.5z" />
    <glyph glyph-name="Scaron" unicode="&#x160;" 
 />
    <glyph glyph-name="endash" unicode="&#x2013;" horiz-adv-x="189" 
d="M-11 187v64h152v-64h-152z" />
    <glyph glyph-name="bullet" unicode="&#x2022;" horiz-adv-x="176" 
d="M56 127q-28 0 -47.5 27t-19.5 65t19.5 65t47.5 27q27 0 46.5 -27t19.5 -65t-19.5 -65t-46.5 -27z" />
    <glyph glyph-name="ellipsis" unicode="&#x2026;" horiz-adv-x="230" 
d="M136 -1v132h46v-132h-46zM62 -1v132h47v-132h-47zM-11 -1v132h47v-132h-47z" />
    <glyph glyph-name="Euro" unicode="&#x20ac;" horiz-adv-x="493" 
d="M287 -10q-80 0 -141.5 80t-79.5 202h-77v64h71v19.5v19.5h-71v64h77q18 122 79.5 202t141.5 80q115 0 194 -173h-52q-59 109 -142 109q-62 0 -111 -61t-66 -157h92v-64h-99v-19.5v-19.5h99v-64h-92q17 -96 66 -157t111 -61q85 0 144 114h51q-77 -178 -195 -178z" />
    <glyph glyph-name="minus" unicode="&#x2212;" horiz-adv-x="189" 
d="M-11 187v64h152v-64h-152z" />
    <glyph glyph-name="glyph94" 
 />
    <glyph glyph-name="glyph95" 
 />
    </font>
</defs>
</svg>
