<?xml version="1.0" standalone="no"?>
<!DOCTYPE svg PUBLIC "-//W3C//DTD SVG 1.1//EN" "http://www.w3.org/Graphics/SVG/1.1/DTD/svg11.dtd" >
<svg xmlns="http://www.w3.org/2000/svg" xmlns:xlink="http://www.w3.org/1999/xlink" version="1.1">
<metadata>
Created by FontForge 20201107 at Tue Jan 17 21:00:49 2012
 By 
Generated by Fontographer 4.7
</metadata>
<defs>
<font id="SornetteBoldNarrow" horiz-adv-x="164" >
  <font-face 
    font-family="Sornette"
    font-weight="600"
    font-stretch="normal"
    units-per-em="1000"
    panose-1="0 0 6 0 0 0 0 0 0 0"
    ascent="800"
    descent="-200"
    x-height="428"
    cap-height="727"
    bbox="-213 -226 767 869"
    underline-thickness="20"
    underline-position="-143"
    unicode-range="U+0020-2212"
  />
<missing-glyph horiz-adv-x="500" 
d="M63 0v800h375v-800h-375zM125 63h250v675h-250v-675z" />
    <glyph glyph-name=".notdef" horiz-adv-x="500" 
d="M63 0v800h375v-800h-375zM125 63h250v675h-250v-675z" />
    <glyph glyph-name=".null" horiz-adv-x="0" 
 />
    <glyph glyph-name="nonmarkingreturn" 
 />
    <glyph glyph-name="space" unicode=" " 
 />
    <glyph glyph-name="exclam" unicode="!" horiz-adv-x="136" 
d="M-26 199v528h81v-528h-81zM-26 -16v162h81v-162h-81z" />
    <glyph glyph-name="quotedbl" unicode="&#x22;" horiz-adv-x="272" 
d="M116 454v239h82v-239h-82zM-26 454v239h81v-239h-81z" />
    <glyph glyph-name="percent" unicode="%" horiz-adv-x="409" 
d="M88 489q-38 0 -64 31t-26 75t26 74.5t64 30.5q37 0 63 -30.5t26 -74.5t-26 -75t-63 -31zM44 -6h-72l315 723h72zM237 11q-37 0 -63.5 31t-26.5 74q0 44 26.5 75t63.5 31t63 -31t26 -75q0 -43 -26 -74t-63 -31zM88 626q-27 0 -27 -31t27 -31q26 0 26 31t-26 31zM237 148
q-27 0 -27 -32q0 -31 27 -31q26 0 26 31q0 32 -26 32z" />
    <glyph glyph-name="ampersand" unicode="&#x26;" horiz-adv-x="522" 
d="M357 -16l-53 75q-54 -87 -147 -87q-75 0 -129 63t-54 152q0 130 89 185l15 12l-47 67q-26 46 -26 102q0 77 45 130t110 53q64 0 110 -54t46 -129q0 -97 -75 -156l-44 -35l85 -122l65 216h86l-91 -301l119 -171h-104zM233 568q-9 76 -73 73h-3q-31 -1 -51.5 -28t-20.5 -60
q0 -28 21 -62q11 -14 39 -55l59 45q31 30 31 72q0 -7 -2 15zM129 310q-36 -28 -51 -49q-23 -32 -23 -74q0 -50 30 -85.5t72 -35.5q66 0 93 70z" />
    <glyph glyph-name="quotesingle" unicode="'" horiz-adv-x="209" 
d="M52 445h-94l92 205h94z" />
    <glyph glyph-name="parenleft" unicode="(" horiz-adv-x="278" 
d="M-26 276q0 167 53 287q63 144 181 144q18 -20 21 -94h-27q-69 1 -110 -100q-37 -94 -37 -237q0 -144 38 -237q42 -101 115 -101q18 -20 21 -94q-131 0 -199 144q-56 117 -56 288z" />
    <glyph glyph-name="parenright" unicode=")" horiz-adv-x="303" 
d="M-4 -156q-19 20 -22 94h27q69 -1 110 100q38 94 38 238q0 143 -39 236q-41 101 -114 101q-19 20 -22 94h26q115 2 177 -143q52 -121 52 -288q0 -168 -52 -288q-63 -144 -181 -144z" />
    <glyph glyph-name="asterisk" unicode="*" horiz-adv-x="199" 
d="M113 504l-34 28v-48h-29v48l-33 -28l-17 28l40 33l-40 33l17 28l33 -28v48h29v-48l34 28l17 -28l-40 -33l40 -33z" />
    <glyph glyph-name="plus" unicode="+" horiz-adv-x="321" 
d="M156 172v-120h-80v120h-102v94h102v120h80v-120h102v-94h-102z" />
    <glyph glyph-name="comma" unicode="," horiz-adv-x="213" 
d="M52 -93h-94l92 205h94z" />
    <glyph glyph-name="period" unicode="." horiz-adv-x="141" 
d="M-26 -16v162h81v-162h-81z" />
    <glyph glyph-name="slash" unicode="/" horiz-adv-x="413" 
d="M48 -16h-90l322 743h90z" />
    <glyph glyph-name="zero" unicode="0" horiz-adv-x="452" 
d="M174 -25q-82 0 -141 69t-59 166l1 291q0 97 58.5 166t140.5 69q83 0 141.5 -68.5t58.5 -166.5v-291q0 -97 -58.5 -166t-141.5 -69zM174 642q-49 0 -84 -41.5t-35 -99.5v-291q0 -58 35 -99.5t84 -41.5q50 0 85 41.5t35 99.5v291q0 58 -35 99.5t-85 41.5z" />
    <glyph glyph-name="one" unicode="1" horiz-adv-x="301" 
d="M139 -16v581l-90 -137h-101l196 299h75v-743h-80z" />
    <glyph glyph-name="two" unicode="2" horiz-adv-x="396" 
d="M-25 -16v128l19 -45q47 99 229 417q13 25 13 55q0 43 -25.5 73t-61.5 30q-74 0 -89 -111h-80q10 95 57 150t112 55q69 0 118 -57.5t49 -139.5q0 -60 -32 -116l-201 -345h255v-94h-363z" />
    <glyph glyph-name="three" unicode="3" horiz-adv-x="427" 
d="M164 -25q-69 0 -120 53q-54 54 -78 152h82q33 -111 116 -111q48 0 82.5 40t34.5 97q0 54 -31.5 93.5t-77.5 43.5q-3 0 -31 -1v94q52 1 82 32q28 28 28 71t-25.5 73t-61.5 30q-74 0 -89 -111h-80q10 95 56.5 150t112.5 55q69 0 118 -57.5t49 -139.5q0 -86 -54 -144
q83 -70 83 -189q0 -96 -57.5 -163.5t-138.5 -67.5z" />
    <glyph glyph-name="four" unicode="4" horiz-adv-x="445" 
d="M305 120v-136h-80v136h-267l274 607h74v-239q-1 -280 -1 -273h73v-95h-73zM225 512l-134 -297h134v297z" />
    <glyph glyph-name="five" unicode="5" horiz-adv-x="421" 
d="M164 -25q-69 0 -120 53q-54 54 -78 152h82q33 -111 116 -111q45 0 81 49t36 109q0 61 -36 110t-81 49q-69 0 -109 -86h-74q0 29 1 231q0 202 0 196h356v-94h-276v-187q47 34 102 34q81 0 140 -80q56 -77 56 -173t-56 -172q-59 -80 -140 -80z" />
    <glyph glyph-name="six" unicode="6" horiz-adv-x="429" 
d="M167 -25q-64 0 -113.5 49t-69.5 125l1 363q0 102 50 163t132 61q135 0 192 -205h-83q-37 111 -109 111q-45 0 -78.5 -45.5t-33.5 -112.5v-52q50 48 112 48q81 0 137 -75t56 -178t-56 -177.5t-137 -74.5zM167 385q-45 0 -78 -44q-34 -47 -34 -114t33.5 -112.5t78.5 -45.5
t79 45.5t34 112.5t-35 114q-33 44 -78 44z" />
    <glyph glyph-name="seven" unicode="7" horiz-adv-x="373" 
d="M249 437h74v-94h-115l-156 -359h-91l157 359h-78v94h119l85 196h-270v94h402z" />
    <glyph glyph-name="eight" unicode="8" horiz-adv-x="433" 
d="M171 -25q-82 0 -139.5 67.5t-57.5 163.5q0 119 84 189q-54 58 -54 144q0 82 48.5 139.5t118.5 57.5q69 0 118 -57.5t49 -139.5q0 -86 -54 -144q83 -70 83 -189q0 -96 -57.5 -163.5t-138.5 -67.5zM171 642q-36 0 -61.5 -30t-25.5 -73q0 -42 25 -72t62 -30q36 0 61.5 30
t25.5 72q0 43 -25.5 73t-61.5 30zM179 343h-8h-9q-45 -4 -76.5 -43.5t-31.5 -93.5q0 -57 34 -97t83 -40q48 0 82 40t34 97q0 54 -31 93.5t-77 43.5z" />
    <glyph glyph-name="nine" unicode="9" horiz-adv-x="438" 
d="M360 220q1 -13 1 -25q0 -94 -58.5 -161t-135.5 -67q-135 0 -192 205h84q36 -111 108 -111q46 0 79.5 45.5t33.5 112.5v60q-50 -47 -113 -47q-81 0 -137 74.5t-56 177.5t56 177.5t137 74.5t137 -74.5t56 -177.5v-264zM167 642q-45 0 -78.5 -45.5t-33.5 -112.5t33.5 -112.5
t78.5 -45.5q46 0 79.5 45.5t33.5 112.5t-33.5 112.5t-79.5 45.5z" />
    <glyph glyph-name="colon" unicode=":" horiz-adv-x="134" 
d="M-25 171v134h80v-134h-80zM-26 -16v134h81v-134h-81z" />
    <glyph glyph-name="semicolon" unicode=";" horiz-adv-x="193" 
d="M44 152v151h80v-151h-80zM41 -93h-83l84 194h81z" />
    <glyph glyph-name="less" unicode="&#x3c;" horiz-adv-x="425" 
d="M-26 182v81l378 161v-100l-238 -102l238 -101v-100z" />
    <glyph glyph-name="equal" unicode="=" horiz-adv-x="319" 
d="M-26 307v94h284v-94h-284zM-26 108v95h284v-95h-284z" />
    <glyph glyph-name="greater" unicode="&#x3e;" horiz-adv-x="397" 
d="M-26 21v100l239 101l-239 102v100l378 -161v-81z" />
    <glyph glyph-name="question" unicode="?" horiz-adv-x="365" 
d="M275 423l-100 -174q-4 -6 -4 -20v-77h-80v84q0 20 14 57l3 9q32 58 106 183q14 22 14 54q0 43 -25.5 73t-62.5 30q-74 0 -89 -111h-80q10 95 57 150t112 55q70 0 119 -57.5t49 -139.5q0 -60 -33 -116zM91 -16v126h80v-126h-80z" />
    <glyph glyph-name="at" unicode="@" horiz-adv-x="593" 
d="M511 14q0 -44 -30 -75t-67 -31q-34 0 -59 28t-31 75q-42 -26 -77 -26q-58 0 -99.5 48.5t-41.5 116.5q0 69 43 110q39 39 98 39q37 0 82 -24q-35 80 -70 80q-40 0 -57 -6q-27 -10 -36 -40h-65q20 71 63 97q34 21 95 21q65 0 99 -56q29 -49 29 -126l1 -231q0 -32 26 -32
q13 0 23.5 10.5t10.5 21.5v196q0 128 -55 212t-139 84q-85 0 -146.5 -86t-61.5 -210t61.5 -210t146.5 -86q31 0 52 12v-80q-30 -11 -81 -11q-111 0 -179 112q-63 106 -63 263q0 152 79 261.5t192 109.5t186 -111q71 -106 71 -260v-196zM247 224q-35 0 -56 -19.5t-21 -54.5
q0 -37 22.5 -64t54.5 -27t54.5 27t22.5 64q0 35 -21 54.5t-56 19.5z" />
    <glyph glyph-name="A" unicode="A" horiz-adv-x="440" 
d="M300 -16l-56 239h-140l-56 -239h-81l173 743h68l174 -743h-82zM174 522l-48 -205h96z" />
    <glyph glyph-name="B" unicode="B" horiz-adv-x="387" 
d="M116 -16h-142v743h142q63 0 108 -52.5t45 -126.5q0 -72 -42 -124q93 -71 93 -201q0 -99 -59.5 -169t-144.5 -70zM116 633h-61v-171h61q30 0 51.5 25t21.5 61q0 35 -21.5 60t-51.5 25zM116 368h-61v-290h61q51 0 87.5 42.5t36.5 102.5t-36.5 102.5t-87.5 42.5z" />
    <glyph glyph-name="C" unicode="C" horiz-adv-x="550" 
d="M254 -27q-117 0 -198.5 112.5t-81.5 267.5q0 156 81.5 268.5t198.5 112.5q143 0 251 -203h-90q-69 109 -161 109q-83 0 -143.5 -83t-60.5 -204q0 -120 60.5 -203t143.5 -83q94 0 163 113h90q-107 -207 -253 -207z" />
    <glyph glyph-name="D" unicode="D" horiz-adv-x="447" 
d="M102 -16h-128v743h148q108 0 183 -114q73 -110 73 -257q0 -153 -80 -262.5t-196 -109.5zM108 634h-53v-556h47q81 0 141 81t60 198q0 114 -57.5 194t-137.5 83z" />
    <glyph glyph-name="E" unicode="E" horiz-adv-x="334" 
d="M-26 -16v743h313v-94h-232v-179h174v-94h-174v-282h232v-94h-313z" />
    <glyph glyph-name="F" unicode="F" horiz-adv-x="337" 
d="M55 633v-179h174v-94h-174v-376h-81v743h313v-94h-232z" />
    <glyph glyph-name="G" unicode="G" horiz-adv-x="601" 
d="M254 -25q-117 0 -198.5 112.5t-81.5 268.5q0 155 81.5 267.5t198.5 112.5q144 0 252 -205h-90q-69 111 -162 111q-83 0 -143.5 -83t-60.5 -203q0 -121 60.5 -204t143.5 -83q78 0 136.5 73t66.5 183h-221v94h298v-64q0 -155 -81 -267.5t-199 -112.5z" />
    <glyph glyph-name="H" unicode="H" horiz-adv-x="398" 
d="M236 -16v359h-181v-359h-81v743h81v-290h181v290h80v-743h-80z" />
    <glyph glyph-name="I" unicode="I" horiz-adv-x="161" 
d="M-1 -16v743h80v-743h-80z" />
    <glyph glyph-name="J" unicode="J" horiz-adv-x="407" 
d="M151 -25q-73 0 -125.5 61.5t-50.5 146.5v32h80v-33q-1 -46 27.5 -79.5t68.5 -33.5t68.5 33.5t28.5 80.5v544h80v-542q0 -87 -52 -148.5t-125 -61.5z" />
    <glyph glyph-name="K" unicode="K" horiz-adv-x="412" 
d="M259 -16l-180 357l-24 -38v-319h-81v743h81v-269l176 269h101l-200 -306l220 -437h-93z" />
    <glyph glyph-name="L" unicode="L" horiz-adv-x="354" 
d="M-26 -16v743h81v-649h232v-94h-313z" />
    <glyph glyph-name="M" unicode="M" horiz-adv-x="504" 
d="M351 -16v414l-113 -414h-70l-113 414v-414h-81v743h75l153 -560l152 560h77v-743h-80z" />
    <glyph glyph-name="N" unicode="N" horiz-adv-x="424" 
d="M342 -16h-73l-214 514v-514h-81v743h74l214 -514v514h80v-743z" />
    <glyph glyph-name="O" unicode="O" horiz-adv-x="604" 
d="M254 -25q-117 0 -198.5 112.5t-81.5 268.5q0 155 81.5 267.5t198.5 112.5q118 0 199 -112.5t81 -267.5q0 -156 -81 -268.5t-199 -112.5zM254 642q-81 0 -140 -83t-59 -203q0 -121 59 -204t140 -83t140.5 83t59.5 204q0 120 -59.5 203t-140.5 83z" />
    <glyph glyph-name="P" unicode="P" horiz-adv-x="350" 
d="M116 291h-61v-307h-81v743h142q77 0 131.5 -63.5t54.5 -154.5q0 -90 -54.5 -154t-131.5 -64zM116 633h-61v-247h61q44 0 75 36t31 87q0 52 -31 88t-75 36z" />
    <glyph glyph-name="Q" unicode="Q" horiz-adv-x="605" 
d="M416 45l65 -130h-93l-41 81q-45 -21 -93 -21q-117 0 -198.5 112.5t-81.5 268.5q0 155 81.5 267.5t198.5 112.5q118 0 199 -112.5t81 -267.5q0 -95 -31.5 -177t-86.5 -134zM254 642q-81 0 -140 -83t-59 -203q0 -121 59 -204t140 -83q26 0 51 10l-72 144h93l48 -96
q80 86 80 229q0 120 -59.5 203t-140.5 83z" />
    <glyph glyph-name="R" unicode="R" horiz-adv-x="388" 
d="M235 -16l-150 307h-30v-307h-81v743h142q77 0 131.5 -63.5t54.5 -154.5q0 -72 -36.5 -129t-93.5 -79l155 -317h-92zM116 633h-61v-247h61q44 0 75 36t31 87q0 52 -31 88t-75 36z" />
    <glyph glyph-name="S" unicode="S" horiz-adv-x="402" 
d="M152 -27q-138 0 -186 197h83q30 -102 103 -102q42 0 72 35.5t30 85.5q0 64 -48 101l-138 109q-74 59 -74 156q0 76 45.5 129.5t109.5 53.5q68 0 109 -56q39 -51 49 -139h-81q-13 100 -77 100q-31 0 -53 -25.5t-22 -62.5q0 -48 31 -71l142 -110q88 -69 88 -185
q0 -89 -53.5 -152.5t-129.5 -63.5z" />
    <glyph glyph-name="T" unicode="T" horiz-adv-x="361" 
d="M185 633v-649h-80v649h-131v94h342v-94h-131z" />
    <glyph glyph-name="U" unicode="U" horiz-adv-x="453" 
d="M174 -25q-82 0 -141 69t-59 166v517h81v-517q0 -58 35 -99.5t84 -41.5q50 0 85 41.5t35 99.5v517h80v-517q0 -99 -58 -167t-142 -68z" />
    <glyph glyph-name="V" unicode="V" horiz-adv-x="422" 
d="M201 -16h-71l-163 743h83l115 -527l116 527h82z" />
    <glyph glyph-name="W" unicode="W" horiz-adv-x="658" 
d="M437 -16h-72l-82 477l-81 -477h-72l-163 743h83l110 -505l87 505h73l86 -505l111 505h83z" />
    <glyph glyph-name="X" unicode="X" horiz-adv-x="437" 
d="M209 356l161 -372h-90l-116 268l-116 -268h-90l161 372l-161 371h90l116 -268l116 268h90z" />
    <glyph glyph-name="Y" unicode="Y" horiz-adv-x="419" 
d="M204 344v-360h-80v360l-166 383h90l116 -268l116 268h90z" />
    <glyph glyph-name="Z" unicode="Z" horiz-adv-x="421" 
d="M89 78h263v-94h-394l281 649h-250v94h381z" />
    <glyph glyph-name="underscore" unicode="_" horiz-adv-x="467" 
d="M-26 -85v94h400v-94h-400z" />
    <glyph glyph-name="a" unicode="a" horiz-adv-x="352" 
d="M273 -16h-81v22q-34 -31 -68 -31q-62 0 -106 51.5t-44 123.5q0 74 46 118q42 41 104 41q34 0 63 -14q-11 47 -51 48q-41 1 -53 -4q-18 -6 -26 -34h-83q21 83 64 111q32 21 98 21q69 0 105 -60q32 -52 32 -132v-261zM124 214q-69 0 -69 -64q0 -33 20 -57t49 -24
q28 0 48 24t20 57q0 64 -68 64z" />
    <glyph glyph-name="b" unicode="b" horiz-adv-x="419" 
d="M163 -25q-60 0 -108 42v-33h-81v649h81v-238q48 42 108 42q79 0 134 -68t55 -163t-55 -163t-134 -68zM163 343q-44 0 -76 -40t-32 -97t32 -97t76 -40q45 0 77 40t32 97t-32 97t-77 40z" />
    <glyph glyph-name="c" unicode="c" horiz-adv-x="397" 
d="M160 -25h-3h-5q-81 2 -130 71q-48 65 -48 160t48 161q51 70 131 70h7q105 0 187 -154h-93q-43 60 -94 60h-7q-44 0 -71.5 -38.5t-27.5 -98.5q0 -56 25 -95t68 -42h4h5h2q54 1 95 60h94q-81 -151 -187 -154z" />
    <glyph glyph-name="d" unicode="d" horiz-adv-x="435" 
d="M272 -16v33q-49 -42 -109 -42q-78 0 -133.5 68t-55.5 163t55.5 163t133.5 68q60 0 109 -42v238h80v-649h-80zM163 343q-44 0 -76 -40t-32 -97t32 -97t76 -40q45 0 77 40t32 97t-32 97t-77 40z" />
    <glyph glyph-name="e" unicode="e" horiz-adv-x="417" 
d="M352 172h-295q15 -97 90 -103h4h5h2q54 1 95 60h94q-81 -151 -187 -154h-3h-5q-81 2 -130 71q-48 65 -48 160t48 161q51 70 131 70h7q80 0 137.5 -68.5t55.5 -163.5zM160 343h-7q-66 0 -90 -77h199q-32 77 -102 77z" />
    <glyph glyph-name="f" unicode="f" horiz-adv-x="247" 
d="M155 642q-57 0 -57 -98v-116h87v-94h-87v-350h-80v350h-44v94h44v116q0 80 32 132q36 60 105 60q2 0 30 -1v-95z" />
    <glyph glyph-name="g" unicode="g" horiz-adv-x="434" 
d="M352 191v-235q0 -75 -33 -123q-37 -54 -103 -54q-121 0 -164 173h82q26 -79 82 -79t56 104v34q-43 -36 -97 -36h-8q-80 0 -136.5 68t-56.5 163t56.5 162t136.5 69h4h4q55 -1 97 -36v27h80v-208q0 -2 1 -7v-7v-7q-1 -5 -1 -8zM272 227q-10 110 -97 116h-4h-2h-3
q-46 -3 -79 -43.5t-33 -93.5q0 -57 33.5 -97t79.5 -40h8q40 0 66 32t31 84v42z" />
    <glyph glyph-name="h" unicode="h" horiz-adv-x="346" 
d="M193 -16v290q0 64 -69 64t-69 -79v-275h-81v684h81v-252q31 17 69 17q61 0 104 -41q45 -44 45 -117v-291h-80z" />
    <glyph glyph-name="i" unicode="i" horiz-adv-x="146" 
d="M-17 462v154h80v-154h-80zM-17 -16v444h80v-444h-80z" />
    <glyph glyph-name="j" unicode="j" horiz-adv-x="176" 
d="M14 462v154h80v-154h-80zM-43 -221q-125 0 -170 179h83q27 -85 87 -85q57 0 57 98v462h80v-462q0 -81 -32 -133q-36 -59 -105 -59z" />
    <glyph glyph-name="k" unicode="k" horiz-adv-x="341" 
d="M186 115q13 -37 72 -37v-94q-124 0 -153 116q-27 4 -50 19v-135h-81v684h81v-252q31 17 69 17q62 0 104 -41q45 -45 45 -118q0 -52 -24 -95t-63 -64zM124 338q-69 0 -69 -64q0 -33 20 -57t49 -24q28 0 48.5 24t20.5 57q0 64 -69 64z" />
    <glyph glyph-name="l" unicode="l" horiz-adv-x="145" 
d="M-17 -16v684h79v-684h-79z" />
    <glyph glyph-name="m" unicode="m" horiz-adv-x="517" 
d="M356 -17v291q0 64 -69 64q-18 0 -25 -6q-15 -10 -15 -59v-290h-80v290q0 65 -69 65q-30 0 -39 -26q-4 -13 -4 -53v-276h-81v445h81v-3q19 7 43 7q60 0 101 -39q31 39 88 39q61 0 104 -41q45 -44 45 -117v-291h-80z" />
    <glyph glyph-name="n" unicode="n" horiz-adv-x="328" 
d="M167 -16v290q0 64 -69 64q-30 0 -39 -25q-4 -13 -4 -54v-275h-81v444h81v-2q19 7 43 7q62 0 104 -41q45 -44 45 -117v-291h-80z" />
    <glyph glyph-name="o" unicode="o" horiz-adv-x="419" 
d="M163 -25q-78 0 -133.5 68t-55.5 163t55.5 163t133.5 68q79 0 134 -68t55 -163t-55 -163t-134 -68zM163 343q-44 0 -76 -40t-32 -97t32 -97t76 -40q45 0 77 40t32 97t-32 97t-77 40z" />
    <glyph glyph-name="p" unicode="p" horiz-adv-x="419" 
d="M163 -25q-60 0 -108 42v-238h-81v649h81v-33q48 42 108 42q79 0 134 -68t55 -163t-55 -163t-134 -68zM163 343q-44 0 -76 -40t-32 -97t32 -97t76 -40q45 0 77 40t32 97t-32 97t-77 40z" />
    <glyph glyph-name="q" unicode="q" horiz-adv-x="434" 
d="M272 -221v238q-49 -42 -109 -42q-78 0 -133.5 68t-55.5 163t55.5 163t133.5 68q60 0 109 -42v33h80v-649h-80zM163 343q-44 0 -76 -40t-32 -97t32 -97t76 -40q45 0 77 40t32 97t-32 97t-77 40z" />
    <glyph glyph-name="r" unicode="r" horiz-adv-x="187" 
d="M55 274v-290h-81v444h81v-20q39 25 68 25v-95q-43 0 -55.5 -12t-12.5 -52z" />
    <glyph glyph-name="s" unicode="s" horiz-adv-x="282" 
d="M93 -25q-99 0 -124 150h80q14 -56 44 -56q16 0 28 14t12 33q0 28 -22 42l-95 63l2 4q-31 36 -31 88q0 51 30.5 87.5t73.5 36.5q44 0 73 -40t32 -109h-79q-4 55 -26 55q-24 0 -24 -30q0 -18 10 -25q79 -52 91 -63q45 -44 45 -109q0 -58 -35.5 -99.5t-84.5 -41.5z" />
    <glyph glyph-name="t" unicode="t" horiz-adv-x="246" 
d="M98 334v-350h-80v350h-44v94h44v163h80v-163h87v-94h-87z" />
    <glyph glyph-name="u" unicode="u" horiz-adv-x="330" 
d="M167 -16v2q-20 -7 -43 -7q-62 0 -104 41q-45 44 -45 117v291h80v-290q0 -64 69 -64q30 0 38 25q5 13 5 54v275h80v-444h-80z" />
    <glyph glyph-name="v" unicode="v" horiz-adv-x="366" 
d="M170 -16h-70l-136 444h85l86 -280l86 280h85z" />
    <glyph glyph-name="w" unicode="w" horiz-adv-x="417" 
d="M256 -16h-72l-24 152l-24 -152h-71l-98 444h83l52 -280l22 280h73l22 -280l52 280h83z" />
    <glyph glyph-name="x" unicode="x" horiz-adv-x="325" 
d="M160 -16l-56 122l-56 -122h-91l102 222l-102 222h91l56 -122l56 122h91l-101 -222l101 -222h-91z" />
    <glyph glyph-name="y" unicode="y" horiz-adv-x="341" 
d="M123 -226q-125 0 -170 180h82q28 -86 88 -86q57 0 57 99v19q-20 -7 -43 -7q-62 0 -104 41q-45 44 -45 117v291h80v-290q0 -64 69 -64q24 0 33.5 12t9.5 44v298h80v-461q0 -81 -32 -133q-36 -60 -105 -60z" />
    <glyph glyph-name="z" unicode="z" horiz-adv-x="313" 
d="M91 78h143v-94h-277l160 350h-137v94h271z" />
    <glyph glyph-name="nonbreakingspace" unicode="&#xa0;" 
 />
    <glyph glyph-name="guillemotleft" unicode="&#xab;" 
 />
    <glyph glyph-name="hyphen" unicode="&#xad;" horiz-adv-x="254" 
d="M-26 172v94h204v-94h-204z" />
    <glyph glyph-name="macron" unicode="&#xaf;" horiz-adv-x="254" 
d="M-26 172v94h204v-94h-204z" />
    <glyph glyph-name="macron" unicode="&#x2c9;" horiz-adv-x="254" 
d="M-26 172v94h204v-94h-204z" />
    <glyph glyph-name="degree" unicode="&#xb0;" horiz-adv-x="229" 
d="M73 477q-36 0 -61 29.5t-25 71.5q0 41 25 70.5t61 29.5q35 0 60 -29.5t25 -70.5q0 -42 -25 -71.5t-60 -29.5zM73 614q-13 0 -22 -10.5t-9 -25.5t9 -26t22 -11q12 0 21 11t9 26t-9 25.5t-21 10.5z" />
    <glyph glyph-name="Agrave" unicode="&#xc0;" horiz-adv-x="440" 
d="M153 745l-78 108h86l78 -108h-86zM300 -16l-56 239h-140l-56 -239h-81l173 743h68l174 -743h-82zM174 522l-48 -205h96z" />
    <glyph glyph-name="Acircumflex" unicode="&#xc2;" horiz-adv-x="440" 
d="M199 751l-21 44l-21 -44h-72l63 102h60l61 -102h-70zM300 -16l-56 239h-140l-56 -239h-81l173 743h68l174 -743h-82zM174 522l-48 -205h96z" />
    <glyph glyph-name="Ccedilla" unicode="&#xc7;" horiz-adv-x="533" 
d="M294 -21v-102h-80v102q-103 20 -171.5 127.5t-68.5 249.5q0 155 81.5 267.5t198.5 112.5q143 0 251 -203h-90q-69 109 -161 109q-83 0 -143.5 -83t-60.5 -203q0 -105 47 -183t117 -98v77h80v-77q69 19 123 108h90q-93 -181 -213 -204z" />
    <glyph glyph-name="Egrave" unicode="&#xc8;" horiz-adv-x="333" 
d="M103 758l-72 95h91l73 -95h-92zM-26 -16v743h313v-94h-232v-179h174v-94h-174v-282h232v-94h-313z" />
    <glyph glyph-name="Eacute" unicode="&#xc9;" horiz-adv-x="333" 
d="M148 757h-94l72 96h94zM-26 -16v743h313v-94h-232v-179h174v-94h-174v-282h232v-94h-313z" />
    <glyph glyph-name="Ecircumflex" unicode="&#xca;" horiz-adv-x="333" 
d="M152 757l-21 32l-21 -32h-81l72 96h59l71 -96h-79zM-26 -16v743h313v-94h-232v-179h174v-94h-174v-282h232v-94h-313z" />
    <glyph glyph-name="Edieresis" unicode="&#xcb;" horiz-adv-x="334" 
d="M144 749v104h66v-104h-66zM51 749v104h67v-104h-67zM-26 -16v743h313v-94h-232v-179h174v-94h-174v-282h232v-94h-313z" />
    <glyph glyph-name="Icircumflex" unicode="&#xce;" horiz-adv-x="191" 
d="M90 751l-21 34l-21 -34h-76l67 102h60l68 -102h-77zM29 -16v743h80v-743h-80z" />
    <glyph glyph-name="Idieresis" unicode="&#xcf;" horiz-adv-x="169" 
d="M64 757v96h49v-96h-49zM-19 757v96h52v-96h-52zM7 -16v743h80v-743h-80z" />
    <glyph glyph-name="Ocircumflex" unicode="&#xd4;" horiz-adv-x="604" 
d="M275 764l-21 34l-21 -34h-90l82 105h59l82 -105h-91zM254 -25q-117 0 -198.5 112.5t-81.5 268.5q0 155 81.5 267.5t198.5 112.5q118 0 199 -112.5t81 -267.5q0 -156 -81 -268.5t-199 -112.5zM254 642q-81 0 -140 -83t-59 -203q0 -121 59 -204t140 -83t140.5 83t59.5 204
q0 120 -59.5 203t-140.5 83z" />
    <glyph glyph-name="Ugrave" unicode="&#xd9;" horiz-adv-x="453" 
d="M150 758l-69 95h91l69 -95h-91zM174 -25q-82 0 -141 69t-59 166v517h81v-517q0 -58 35 -99.5t84 -41.5q50 0 85 41.5t35 99.5v517h80v-517q0 -97 -58.5 -166t-141.5 -69z" />
    <glyph glyph-name="Ucircumflex" unicode="&#xdb;" horiz-adv-x="453" 
d="M202 758l-21 34l-21 -34h-87l72 95h73l68 -95h-84zM174 -25q-82 0 -141 69t-59 166v517h81v-517q0 -58 35 -99.5t84 -41.5q50 0 85 41.5t35 99.5v517h80v-517q0 -97 -58.5 -166t-141.5 -69z" />
    <glyph glyph-name="Udieresis" unicode="&#xdc;" horiz-adv-x="453" 
d="M191 744v109h64v-109h-64zM95 744v109h63v-109h-63zM174 -25q-82 0 -141 69t-59 166v517h81v-517q0 -58 35 -99.5t84 -41.5q50 0 85 41.5t35 99.5v517h80v-517q0 -97 -58.5 -166t-141.5 -69z" />
    <glyph glyph-name="agrave" unicode="&#xe0;" horiz-adv-x="346" 
d="M96 459l-70 97h84l70 -97h-84zM273 -16h-81v20q-31 -28 -68 -28q-62 0 -106 51t-44 124t46 117q42 41 104 41q34 0 63 -13q-12 51 -51 51q-73 0 -88 -41h-82q29 131 170 131q69 0 105 -60q32 -51 32 -132v-261zM124 215q-69 0 -69 -64q0 -34 20 -57.5t49 -23.5
q28 0 48 23.5t20 57.5q0 64 -68 64z" />
    <glyph glyph-name="acircumflex" unicode="&#xe2;" horiz-adv-x="349" 
d="M152 459l-21 33l-22 -33h-90l82 97h63l71 -97h-83zM273 -16h-81v19q-45 -28 -68 -28q-62 0 -106 51.5t-44 123.5q0 74 46 118q42 41 104 41q34 0 63 -14q-13 56 -59 56q-61 0 -78 -43h-82q33 73 71 101t97 28q69 0 105 -60q32 -52 32 -132v-261zM124 215q-69 0 -69 -65
q0 -33 20 -57t49 -24q28 0 48 24t20 57q0 65 -68 65z" />
    <glyph glyph-name="ccedilla" unicode="&#xe7;" horiz-adv-x="397" 
d="M197 -20v-90h-80v90q-65 16 -105 81q-38 62 -38 145q0 95 48 161q51 70 131 70h7q105 0 187 -154h-93q-43 60 -94 60h-7q-44 0 -71.5 -38.5t-27.5 -98.5q0 -98 63 -129v41h80v-41q29 13 56 52h94q-69 -129 -150 -149z" />
    <glyph glyph-name="egrave" unicode="&#xe8;" horiz-adv-x="417" 
d="M139 479l-84 109h94l84 -109h-94zM352 172h-295q15 -97 90 -103h4h5h2q54 1 95 60h94q-81 -151 -187 -154h-3h-5q-87 2 -136 75q-42 64 -42 156q0 95 48 161q51 70 131 70h7q80 0 137.5 -68.5t55.5 -162.5zM160 343h-7q-66 0 -90 -77h199q-32 77 -102 77z" />
    <glyph glyph-name="eacute" unicode="&#xe9;" horiz-adv-x="417" 
d="M198 477h-87l82 111h87zM352 172h-295q15 -97 90 -103h4h5h2q54 1 95 60h94q-81 -151 -187 -154h-3h-5q-87 2 -136 75q-42 64 -42 156q0 95 48 161q51 70 131 70h7q80 0 137.5 -68.5t55.5 -162.5zM160 343h-7q-66 0 -90 -77h199q-32 77 -102 77z" />
    <glyph glyph-name="ecircumflex" unicode="&#xea;" horiz-adv-x="417" 
d="M185 476l-21 34l-21 -34h-91l82 112h59l75 -112h-83zM352 172h-295q15 -97 90 -103h4h5h2q54 1 95 60h94q-81 -151 -187 -154h-3h-5q-87 2 -136 75q-42 64 -42 156q0 95 48 161q51 70 131 70h7q80 0 137.5 -68.5t55.5 -162.5zM160 343h-7q-66 0 -90 -77h199
q-32 77 -102 77z" />
    <glyph glyph-name="edieresis" unicode="&#xeb;" horiz-adv-x="417" 
d="M177 472v116h66v-116h-66zM84 472v116h67v-116h-67zM352 172h-295q15 -97 90 -103h4h5h2q54 1 95 60h94q-81 -151 -187 -154h-3h-5q-87 2 -136 75q-42 64 -42 156q0 95 48 161q51 70 131 70h7q80 0 137.5 -68.5t55.5 -162.5zM160 343h-7q-66 0 -90 -77h199
q-32 77 -102 77z" />
    <glyph glyph-name="icircumflex" unicode="&#xee;" horiz-adv-x="195" 
d="M90 528l-21 34l-21 -34h-89l90 128h40l90 -128h-89zM29 -16v444h80v-444h-80z" />
    <glyph glyph-name="idieresis" unicode="&#xef;" horiz-adv-x="191" 
d="M60 528v128h67v-128h-67zM-32 528v128h66v-128h-66zM7 -16v444h80v-444h-80z" />
    <glyph glyph-name="ocircumflex" unicode="&#xf4;" horiz-adv-x="419" 
d="M185 459l-22 34l-21 -34h-88l80 100h59l80 -100h-88zM163 -25q-78 0 -133.5 68t-55.5 163t55.5 163t133.5 68q79 0 134 -68t55 -163t-55 -163t-134 -68zM163 343q-44 0 -76 -40t-32 -97t32 -97t76 -40q45 0 77 40t32 97t-32 97t-77 40z" />
    <glyph glyph-name="ugrave" unicode="&#xf9;" horiz-adv-x="329" 
d="M92 460l-71 96h84l71 -96h-84zM167 -16v2q-20 -7 -43 -7q-62 0 -104 41q-45 45 -45 118l-1 290h81v-290q0 -64 69 -64q30 0 38 25q5 13 5 54v275h80v-444h-80z" />
    <glyph glyph-name="ucircumflex" unicode="&#xfb;" horiz-adv-x="326" 
d="M133 464l-21 34l-22 -34h-75l66 92h60l64 -92h-72zM167 -16v2q-20 -7 -43 -7q-62 0 -104 41q-45 45 -45 118l-1 290h81v-290q0 -64 69 -64q30 0 38 25q5 13 5 54v275h80v-444h-80z" />
    <glyph glyph-name="udieresis" unicode="&#xfc;" horiz-adv-x="326" 
d="M126 461v95h52v-95h-52zM35 461v95h55v-95h-55zM167 -16v2q-20 -7 -43 -7q-62 0 -104 41q-45 45 -45 118l-1 290h81v-290q0 -64 69 -64q30 0 38 25q5 13 5 54v275h80v-444h-80z" />
    <glyph glyph-name="OE" unicode="&#x152;" horiz-adv-x="813" 
d="M454 -16v105q-82 -114 -200 -114q-117 0 -198.5 112.5t-81.5 268.5q0 155 81.5 267.5t198.5 112.5q118 0 200 -114v105h313v-94h-233v-179h174v-94h-174v-282h233v-94h-313zM254 642q-81 0 -140 -83t-59 -203q0 -121 59 -204t140 -83t140.5 83t59.5 204q0 120 -59.5 203
t-140.5 83z" />
    <glyph glyph-name="oe" unicode="&#x153;" horiz-adv-x="714" 
d="M650 172h-296q16 -97 90 -103h5h5h2q53 1 95 60h94q-81 -151 -187 -154h-4h-4q-89 2 -140 85q-57 -85 -147 -85q-78 0 -133.5 68t-55.5 163t55.5 163t133.5 68q90 0 147 -85q52 85 140 85h7q81 0 138 -68.5t55 -163.5v-33zM457 343h-7q-66 0 -90 -77h199q-31 77 -102 77z
M163 343q-44 0 -76 -40t-32 -97t32 -97t76 -40q43 0 74.5 37t34.5 91v8.5v9.5q-3 54 -34.5 91t-74.5 37z" />
    <glyph glyph-name="Scaron" unicode="&#x160;" 
 />
    <glyph glyph-name="endash" unicode="&#x2013;" horiz-adv-x="254" 
d="M-26 172v94h204v-94h-204z" />
    <glyph glyph-name="bullet" unicode="&#x2022;" horiz-adv-x="226" 
d="M65 112q-37 0 -64 31.5t-27 75.5t27 75.5t64 31.5q38 0 64.5 -31.5t26.5 -75.5t-26.5 -75.5t-64.5 -31.5z" />
    <glyph glyph-name="ellipsis" unicode="&#x2026;" horiz-adv-x="423" 
d="M255 -16v162h66v-162h-66zM126 -16v162h66v-162h-66zM0 -16v162h67v-162h-67z" />
    <glyph glyph-name="Euro" unicode="&#x20ac;" horiz-adv-x="621" 
d="M338 -25q-98 0 -172.5 80t-98.5 202h-93v78h84v41h-84v78h93q24 122 98.5 202t172.5 80q142 0 251 -203h-91q-69 109 -160 109q-65 0 -117.5 -52t-74.5 -136h105v-78h-117v-41h117v-78h-105q22 -84 74.5 -136t117.5 -52q94 0 162 114h90q-107 -208 -252 -208z" />
    <glyph glyph-name="minus" unicode="&#x2212;" horiz-adv-x="254" 
d="M-26 172v94h204v-94h-204z" />
    <glyph glyph-name="glyph94" 
 />
    <glyph glyph-name="glyph95" 
 />
    </font>
</defs>
</svg>
